%TF.GenerationSoftware,KiCad,Pcbnew,(6.0.0)*%
%TF.CreationDate,2022-01-05T23:10:14+08:00*%
%TF.ProjectId,CH573_KIT,43483537-335f-44b4-9954-2e6b69636164,rev?*%
%TF.SameCoordinates,Original*%
%TF.FileFunction,Legend,Bot*%
%TF.FilePolarity,Positive*%
%FSLAX46Y46*%
G04 Gerber Fmt 4.6, Leading zero omitted, Abs format (unit mm)*
G04 Created by KiCad (PCBNEW (6.0.0)) date 2022-01-05 23:10:14*
%MOMM*%
%LPD*%
G01*
G04 APERTURE LIST*
%ADD10C,0.150000*%
G04 APERTURE END LIST*
D10*
X183119047Y-97285714D02*
X183119047Y-97952380D01*
X183119047Y-97380952D02*
X183071428Y-97333333D01*
X182976190Y-97285714D01*
X182833333Y-97285714D01*
X182738095Y-97333333D01*
X182690476Y-97428571D01*
X182690476Y-97952380D01*
X181833333Y-97904761D02*
X181928571Y-97952380D01*
X182119047Y-97952380D01*
X182214285Y-97904761D01*
X182261904Y-97809523D01*
X182261904Y-97428571D01*
X182214285Y-97333333D01*
X182119047Y-97285714D01*
X181928571Y-97285714D01*
X181833333Y-97333333D01*
X181785714Y-97428571D01*
X181785714Y-97523809D01*
X182261904Y-97619047D01*
X181500000Y-97285714D02*
X181119047Y-97285714D01*
X181357142Y-96952380D02*
X181357142Y-97809523D01*
X181309523Y-97904761D01*
X181214285Y-97952380D01*
X181119047Y-97952380D01*
X180357142Y-97285714D02*
X180357142Y-97952380D01*
X180785714Y-97285714D02*
X180785714Y-97809523D01*
X180738095Y-97904761D01*
X180642857Y-97952380D01*
X180500000Y-97952380D01*
X180404761Y-97904761D01*
X180357142Y-97857142D01*
X179880952Y-97952380D02*
X179880952Y-96952380D01*
X179880952Y-97333333D02*
X179785714Y-97285714D01*
X179595238Y-97285714D01*
X179500000Y-97333333D01*
X179452380Y-97380952D01*
X179404761Y-97476190D01*
X179404761Y-97761904D01*
X179452380Y-97857142D01*
X179500000Y-97904761D01*
X179595238Y-97952380D01*
X179785714Y-97952380D01*
X179880952Y-97904761D01*
X178595238Y-97904761D02*
X178690476Y-97952380D01*
X178880952Y-97952380D01*
X178976190Y-97904761D01*
X179023809Y-97809523D01*
X179023809Y-97428571D01*
X178976190Y-97333333D01*
X178880952Y-97285714D01*
X178690476Y-97285714D01*
X178595238Y-97333333D01*
X178547619Y-97428571D01*
X178547619Y-97523809D01*
X179023809Y-97619047D01*
X177500000Y-97476190D02*
X177547619Y-97428571D01*
X177642857Y-97380952D01*
X177738095Y-97380952D01*
X177833333Y-97428571D01*
X177880952Y-97476190D01*
X177928571Y-97571428D01*
X177928571Y-97666666D01*
X177880952Y-97761904D01*
X177833333Y-97809523D01*
X177738095Y-97857142D01*
X177642857Y-97857142D01*
X177547619Y-97809523D01*
X177500000Y-97761904D01*
X177500000Y-97380952D02*
X177500000Y-97761904D01*
X177452380Y-97809523D01*
X177404761Y-97809523D01*
X177309523Y-97761904D01*
X177261904Y-97666666D01*
X177261904Y-97428571D01*
X177357142Y-97285714D01*
X177500000Y-97190476D01*
X177690476Y-97142857D01*
X177880952Y-97190476D01*
X178023809Y-97285714D01*
X178119047Y-97428571D01*
X178166666Y-97619047D01*
X178119047Y-97809523D01*
X178023809Y-97952380D01*
X177880952Y-98047619D01*
X177690476Y-98095238D01*
X177500000Y-98047619D01*
X177357142Y-97952380D01*
X176309523Y-97952380D02*
X176880952Y-97952380D01*
X176595238Y-97952380D02*
X176595238Y-96952380D01*
X176690476Y-97095238D01*
X176785714Y-97190476D01*
X176880952Y-97238095D01*
X175452380Y-96952380D02*
X175642857Y-96952380D01*
X175738095Y-97000000D01*
X175785714Y-97047619D01*
X175880952Y-97190476D01*
X175928571Y-97380952D01*
X175928571Y-97761904D01*
X175880952Y-97857142D01*
X175833333Y-97904761D01*
X175738095Y-97952380D01*
X175547619Y-97952380D01*
X175452380Y-97904761D01*
X175404761Y-97857142D01*
X175357142Y-97761904D01*
X175357142Y-97523809D01*
X175404761Y-97428571D01*
X175452380Y-97380952D01*
X175547619Y-97333333D01*
X175738095Y-97333333D01*
X175833333Y-97380952D01*
X175880952Y-97428571D01*
X175928571Y-97523809D01*
X175023809Y-96952380D02*
X174404761Y-96952380D01*
X174738095Y-97333333D01*
X174595238Y-97333333D01*
X174500000Y-97380952D01*
X174452380Y-97428571D01*
X174404761Y-97523809D01*
X174404761Y-97761904D01*
X174452380Y-97857142D01*
X174500000Y-97904761D01*
X174595238Y-97952380D01*
X174880952Y-97952380D01*
X174976190Y-97904761D01*
X175023809Y-97857142D01*
X173976190Y-97857142D02*
X173928571Y-97904761D01*
X173976190Y-97952380D01*
X174023809Y-97904761D01*
X173976190Y-97857142D01*
X173976190Y-97952380D01*
X173071428Y-97904761D02*
X173166666Y-97952380D01*
X173357142Y-97952380D01*
X173452380Y-97904761D01*
X173500000Y-97857142D01*
X173547619Y-97761904D01*
X173547619Y-97476190D01*
X173500000Y-97380952D01*
X173452380Y-97333333D01*
X173357142Y-97285714D01*
X173166666Y-97285714D01*
X173071428Y-97333333D01*
X172500000Y-97952380D02*
X172595238Y-97904761D01*
X172642857Y-97857142D01*
X172690476Y-97761904D01*
X172690476Y-97476190D01*
X172642857Y-97380952D01*
X172595238Y-97333333D01*
X172500000Y-97285714D01*
X172357142Y-97285714D01*
X172261904Y-97333333D01*
X172214285Y-97380952D01*
X172166666Y-97476190D01*
X172166666Y-97761904D01*
X172214285Y-97857142D01*
X172261904Y-97904761D01*
X172357142Y-97952380D01*
X172500000Y-97952380D01*
X171738095Y-97952380D02*
X171738095Y-97285714D01*
X171738095Y-97380952D02*
X171690476Y-97333333D01*
X171595238Y-97285714D01*
X171452380Y-97285714D01*
X171357142Y-97333333D01*
X171309523Y-97428571D01*
X171309523Y-97952380D01*
X171309523Y-97428571D02*
X171261904Y-97333333D01*
X171166666Y-97285714D01*
X171023809Y-97285714D01*
X170928571Y-97333333D01*
X170880952Y-97428571D01*
X170880952Y-97952380D01*
X181619047Y-98702380D02*
X181619047Y-99416666D01*
X181666666Y-99559523D01*
X181761904Y-99654761D01*
X181904761Y-99702380D01*
X182000000Y-99702380D01*
X180666666Y-99702380D02*
X181142857Y-99702380D01*
X181142857Y-98702380D01*
X179761904Y-99607142D02*
X179809523Y-99654761D01*
X179952380Y-99702380D01*
X180047619Y-99702380D01*
X180190476Y-99654761D01*
X180285714Y-99559523D01*
X180333333Y-99464285D01*
X180380952Y-99273809D01*
X180380952Y-99130952D01*
X180333333Y-98940476D01*
X180285714Y-98845238D01*
X180190476Y-98750000D01*
X180047619Y-98702380D01*
X179952380Y-98702380D01*
X179809523Y-98750000D01*
X179761904Y-98797619D01*
X179047619Y-98702380D02*
X179047619Y-99416666D01*
X179095238Y-99559523D01*
X179190476Y-99654761D01*
X179333333Y-99702380D01*
X179428571Y-99702380D01*
X178095238Y-99702380D02*
X178571428Y-99702380D01*
X178571428Y-98702380D01*
X177190476Y-99607142D02*
X177238095Y-99654761D01*
X177380952Y-99702380D01*
X177476190Y-99702380D01*
X177619047Y-99654761D01*
X177714285Y-99559523D01*
X177761904Y-99464285D01*
X177809523Y-99273809D01*
X177809523Y-99130952D01*
X177761904Y-98940476D01*
X177714285Y-98845238D01*
X177619047Y-98750000D01*
X177476190Y-98702380D01*
X177380952Y-98702380D01*
X177238095Y-98750000D01*
X177190476Y-98797619D01*
X176476190Y-98702380D02*
X176476190Y-99416666D01*
X176523809Y-99559523D01*
X176619047Y-99654761D01*
X176761904Y-99702380D01*
X176857142Y-99702380D01*
X175523809Y-99702380D02*
X176000000Y-99702380D01*
X176000000Y-98702380D01*
X174619047Y-99607142D02*
X174666666Y-99654761D01*
X174809523Y-99702380D01*
X174904761Y-99702380D01*
X175047619Y-99654761D01*
X175142857Y-99559523D01*
X175190476Y-99464285D01*
X175238095Y-99273809D01*
X175238095Y-99130952D01*
X175190476Y-98940476D01*
X175142857Y-98845238D01*
X175047619Y-98750000D01*
X174904761Y-98702380D01*
X174809523Y-98702380D01*
X174666666Y-98750000D01*
X174619047Y-98797619D01*
X173904761Y-98702380D02*
X173904761Y-99416666D01*
X173952380Y-99559523D01*
X174047619Y-99654761D01*
X174190476Y-99702380D01*
X174285714Y-99702380D01*
X172952380Y-99702380D02*
X173428571Y-99702380D01*
X173428571Y-98702380D01*
X172047619Y-99607142D02*
X172095238Y-99654761D01*
X172238095Y-99702380D01*
X172333333Y-99702380D01*
X172476190Y-99654761D01*
X172571428Y-99559523D01*
X172619047Y-99464285D01*
X172666666Y-99273809D01*
X172666666Y-99130952D01*
X172619047Y-98940476D01*
X172571428Y-98845238D01*
X172476190Y-98750000D01*
X172333333Y-98702380D01*
X172238095Y-98702380D01*
X172095238Y-98750000D01*
X172047619Y-98797619D01*
M02*
