%TF.GenerationSoftware,KiCad,Pcbnew,(6.0.0)*%
%TF.CreationDate,2022-01-05T23:10:14+08:00*%
%TF.ProjectId,CH573_KIT,43483537-335f-44b4-9954-2e6b69636164,rev?*%
%TF.SameCoordinates,Original*%
%TF.FileFunction,Copper,L2,Bot*%
%TF.FilePolarity,Positive*%
%FSLAX46Y46*%
G04 Gerber Fmt 4.6, Leading zero omitted, Abs format (unit mm)*
G04 Created by KiCad (PCBNEW (6.0.0)) date 2022-01-05 23:10:14*
%MOMM*%
%LPD*%
G01*
G04 APERTURE LIST*
G04 Aperture macros list*
%AMRoundRect*
0 Rectangle with rounded corners*
0 $1 Rounding radius*
0 $2 $3 $4 $5 $6 $7 $8 $9 X,Y pos of 4 corners*
0 Add a 4 corners polygon primitive as box body*
4,1,4,$2,$3,$4,$5,$6,$7,$8,$9,$2,$3,0*
0 Add four circle primitives for the rounded corners*
1,1,$1+$1,$2,$3*
1,1,$1+$1,$4,$5*
1,1,$1+$1,$6,$7*
1,1,$1+$1,$8,$9*
0 Add four rect primitives between the rounded corners*
20,1,$1+$1,$2,$3,$4,$5,0*
20,1,$1+$1,$4,$5,$6,$7,0*
20,1,$1+$1,$6,$7,$8,$9,0*
20,1,$1+$1,$8,$9,$2,$3,0*%
G04 Aperture macros list end*
%TA.AperFunction,ComponentPad*%
%ADD10O,1.700000X1.700000*%
%TD*%
%TA.AperFunction,ComponentPad*%
%ADD11R,1.700000X1.700000*%
%TD*%
%TA.AperFunction,ComponentPad*%
%ADD12O,1.000000X2.100000*%
%TD*%
%TA.AperFunction,ComponentPad*%
%ADD13O,1.000000X1.600000*%
%TD*%
%TA.AperFunction,ComponentPad*%
%ADD14RoundRect,0.200000X-0.450000X0.200000X-0.450000X-0.200000X0.450000X-0.200000X0.450000X0.200000X0*%
%TD*%
%TA.AperFunction,ComponentPad*%
%ADD15O,1.300000X0.800000*%
%TD*%
%TA.AperFunction,ViaPad*%
%ADD16C,0.500000*%
%TD*%
%TA.AperFunction,Conductor*%
%ADD17C,0.500000*%
%TD*%
%TA.AperFunction,Conductor*%
%ADD18C,0.127000*%
%TD*%
%TA.AperFunction,Conductor*%
%ADD19C,0.254000*%
%TD*%
%TA.AperFunction,Conductor*%
%ADD20C,0.200000*%
%TD*%
G04 APERTURE END LIST*
D10*
%TO.P,J3,12,Pin_12*%
%TO.N,/BOOT*%
X149515000Y-91350000D03*
%TO.P,J3,11,Pin_11*%
%TO.N,/NRST*%
X146975000Y-91350000D03*
%TO.P,J3,10,Pin_10*%
%TO.N,/PB4*%
X149515000Y-88810000D03*
%TO.P,J3,9,Pin_9*%
%TO.N,/PB7*%
X146975000Y-88810000D03*
%TO.P,J3,8,Pin_8*%
%TO.N,/PB10*%
X149515000Y-86270000D03*
%TO.P,J3,7,Pin_7*%
%TO.N,/PB11*%
X146975000Y-86270000D03*
%TO.P,J3,6,Pin_6*%
%TO.N,/I2C_IO*%
X149515000Y-83730000D03*
%TO.P,J3,5,Pin_5*%
%TO.N,/I2C_CK*%
X146975000Y-83730000D03*
%TO.P,J3,4,Pin_4*%
%TO.N,/PB14*%
X149515000Y-81190000D03*
%TO.P,J3,3,Pin_3*%
%TO.N,/PB15*%
X146975000Y-81190000D03*
%TO.P,J3,2,Pin_2*%
%TO.N,VDD*%
X149515000Y-78650000D03*
D11*
%TO.P,J3,1,Pin_1*%
X146975000Y-78650000D03*
%TD*%
%TO.P,J4,1,Pin_1*%
%TO.N,+3V3*%
X173875000Y-68725000D03*
D10*
%TO.P,J4,2,Pin_2*%
%TO.N,VDD*%
X173875000Y-71265000D03*
%TO.P,J4,3,Pin_3*%
%TO.N,/USB1_DN*%
X171335000Y-68725000D03*
%TO.P,J4,4,Pin_4*%
%TO.N,/PB10*%
X171335000Y-71265000D03*
%TO.P,J4,5,Pin_5*%
%TO.N,/USB1_DP*%
X168795000Y-68725000D03*
%TO.P,J4,6,Pin_6*%
%TO.N,/PB11*%
X168795000Y-71265000D03*
%TO.P,J4,7,Pin_7*%
%TO.N,/USB_TX*%
X166255000Y-68725000D03*
%TO.P,J4,8,Pin_8*%
%TO.N,/CH_RX*%
X166255000Y-71265000D03*
%TO.P,J4,9,Pin_9*%
%TO.N,/USB_RX*%
X163715000Y-68725000D03*
%TO.P,J4,10,Pin_10*%
%TO.N,/CH_TX*%
X163715000Y-71265000D03*
%TO.P,J4,11,Pin_11*%
%TO.N,/AHT_DIO*%
X161175000Y-68725000D03*
%TO.P,J4,12,Pin_12*%
%TO.N,/I2C_IO*%
X161175000Y-71265000D03*
%TO.P,J4,13,Pin_13*%
%TO.N,/AHT_CLK*%
X158635000Y-68725000D03*
%TO.P,J4,14,Pin_14*%
%TO.N,/I2C_CK*%
X158635000Y-71265000D03*
%TO.P,J4,15,Pin_15*%
%TO.N,/VDD_AHT*%
X156095000Y-68725000D03*
%TO.P,J4,16,Pin_16*%
%TO.N,VDD*%
X156095000Y-71265000D03*
%TD*%
D12*
%TO.P,USB2,S1,SHIELD*%
%TO.N,Net-(C2-Pad1)*%
X152680000Y-57070000D03*
D13*
X161320000Y-52890000D03*
D12*
X161320000Y-57070000D03*
D13*
X152680000Y-52890000D03*
%TD*%
D11*
%TO.P,J2,1,Pin_1*%
%TO.N,VDD*%
X147500000Y-67500000D03*
D10*
%TO.P,J2,2,Pin_2*%
%TO.N,/PB14*%
X147500000Y-64960000D03*
%TO.P,J2,3,Pin_3*%
%TO.N,/PB15*%
X147500000Y-62420000D03*
%TO.P,J2,4,Pin_4*%
%TO.N,GND*%
X147500000Y-59880000D03*
%TD*%
D13*
%TO.P,USB1,S1,SHIELD*%
%TO.N,Net-(C1-Pad1)*%
X168680000Y-52950000D03*
D12*
X168680000Y-57130000D03*
D13*
X177320000Y-52950000D03*
D12*
X177320000Y-57130000D03*
%TD*%
D11*
%TO.P,J1,1,Pin_1*%
%TO.N,Net-(D1-Pad2)*%
X181500000Y-54775000D03*
D10*
%TO.P,J1,2,Pin_2*%
%TO.N,GND*%
X181500000Y-52235000D03*
%TD*%
%TO.P,J6,12,Pin_12*%
%TO.N,/PA5*%
X183015000Y-91350000D03*
%TO.P,J6,11,Pin_11*%
%TO.N,/PA4*%
X180475000Y-91350000D03*
%TO.P,J6,10,Pin_10*%
%TO.N,/PA14*%
X183015000Y-88810000D03*
%TO.P,J6,9,Pin_9*%
%TO.N,/PA15*%
X180475000Y-88810000D03*
%TO.P,J6,8,Pin_8*%
%TO.N,/PA12*%
X183015000Y-86270000D03*
%TO.P,J6,7,Pin_7*%
%TO.N,/PA13*%
X180475000Y-86270000D03*
%TO.P,J6,6,Pin_6*%
%TO.N,/PA10*%
X183015000Y-83730000D03*
%TO.P,J6,5,Pin_5*%
%TO.N,/PA11*%
X180475000Y-83730000D03*
%TO.P,J6,4,Pin_4*%
%TO.N,/CH_RX*%
X183015000Y-81190000D03*
%TO.P,J6,3,Pin_3*%
%TO.N,/CH_TX*%
X180475000Y-81190000D03*
%TO.P,J6,2,Pin_2*%
%TO.N,GND*%
X183015000Y-78650000D03*
D11*
%TO.P,J6,1,Pin_1*%
X180475000Y-78650000D03*
%TD*%
D14*
%TO.P,J5,1,Pin_1*%
%TO.N,VBUS*%
X182050000Y-63375000D03*
D15*
%TO.P,J5,2,Pin_2*%
%TO.N,Net-(F1-Pad1)*%
X182050000Y-64625000D03*
%TO.P,J5,3,Pin_3*%
X182050000Y-65875000D03*
%TO.P,J5,4,Pin_4*%
%TO.N,GND*%
X182050000Y-67125000D03*
%TD*%
D16*
%TO.N,GND*%
X151500000Y-54500000D03*
X150750000Y-54500000D03*
X156750000Y-79500000D03*
X156000000Y-79500000D03*
X156750000Y-78750000D03*
X156250000Y-63250000D03*
X157250000Y-63250000D03*
X157250000Y-62250000D03*
X156250000Y-62250000D03*
X164250000Y-85750000D03*
X165750000Y-85750000D03*
X165750000Y-84250000D03*
X164250000Y-84250000D03*
X159750000Y-65750000D03*
X176000000Y-67487000D03*
X165500000Y-62750000D03*
X164750000Y-62750000D03*
X151500000Y-70250000D03*
X176250000Y-74000000D03*
X155000000Y-53250000D03*
X174750000Y-76500000D03*
X155500000Y-82500000D03*
X168500000Y-89750000D03*
X155000000Y-52500000D03*
X181000000Y-58500000D03*
X168250000Y-58750000D03*
X180750000Y-62250000D03*
X168500000Y-92750000D03*
X155750000Y-53250000D03*
X178500000Y-57500000D03*
X148000000Y-54500000D03*
X147000000Y-93500000D03*
X162750000Y-78250000D03*
X148750000Y-58250000D03*
X168250000Y-79250000D03*
X180750000Y-63000000D03*
X176000000Y-66750000D03*
X169000000Y-58750000D03*
X183000000Y-93500000D03*
X174500000Y-51750000D03*
X167000000Y-73250000D03*
X162950000Y-91700000D03*
X171500000Y-83000000D03*
X168000000Y-78500000D03*
X176250000Y-73250000D03*
X155500000Y-81750000D03*
X171500000Y-53750000D03*
X170500000Y-88250000D03*
X170750000Y-63250000D03*
X168250000Y-83000000D03*
X168000000Y-87500000D03*
X174500000Y-52500000D03*
X168500000Y-92000000D03*
X175500000Y-73250000D03*
X174000000Y-65250000D03*
X175250000Y-51750000D03*
X167250000Y-66500000D03*
X170750000Y-53750000D03*
X173750000Y-92250000D03*
X162750000Y-72750000D03*
X149750000Y-72750000D03*
X161500000Y-61500000D03*
X168500000Y-90500000D03*
X161250000Y-62250000D03*
X146250000Y-94250000D03*
X171500000Y-87250000D03*
X174500000Y-93000000D03*
X168500000Y-88250000D03*
X181750000Y-57750000D03*
X183000000Y-69000000D03*
X152250000Y-69500000D03*
X175500000Y-74000000D03*
X166500000Y-92000000D03*
X177750000Y-59000000D03*
X161250000Y-60750000D03*
X154500000Y-64750000D03*
X172250000Y-83000000D03*
X159250000Y-54000000D03*
X164050000Y-90300000D03*
X183000000Y-68250000D03*
X161750000Y-79250000D03*
X177750000Y-65750000D03*
X151250000Y-63500000D03*
X167500000Y-83000000D03*
X152000000Y-63500000D03*
X171500000Y-74000000D03*
X152250000Y-70250000D03*
X174000000Y-64500000D03*
X168500000Y-94250000D03*
X161250000Y-91000000D03*
X174500000Y-92250000D03*
X162000000Y-78500000D03*
X161000000Y-87000000D03*
X166500000Y-89250000D03*
X167500000Y-87000000D03*
X155000000Y-75750000D03*
X183500000Y-63000000D03*
X177750000Y-66500000D03*
X167750000Y-73250000D03*
X158500000Y-54000000D03*
X160750000Y-59250000D03*
X159250000Y-54750000D03*
X153500000Y-59500000D03*
X166500000Y-91250000D03*
X170750000Y-53000000D03*
X147000000Y-94250000D03*
X171500000Y-63250000D03*
X160500000Y-91000000D03*
X160000000Y-82750000D03*
X151986444Y-65263556D03*
X181000000Y-57750000D03*
X183750000Y-94250000D03*
X153750000Y-64750000D03*
X168500000Y-93500000D03*
X159750000Y-66500000D03*
X167250000Y-65750000D03*
X183750000Y-68250000D03*
X171250000Y-88000000D03*
X175500000Y-76500000D03*
X166500000Y-94250000D03*
X167250000Y-78250000D03*
X174750000Y-77250000D03*
X171500000Y-53000000D03*
X155000000Y-76500000D03*
X166500000Y-92750000D03*
X154250000Y-76500000D03*
X160500000Y-91750000D03*
X183750000Y-93500000D03*
X165500000Y-58250000D03*
X168000000Y-65750000D03*
X168500000Y-89000000D03*
X149000000Y-54500000D03*
X154250000Y-75750000D03*
X168000000Y-66500000D03*
X155500000Y-87750000D03*
X174000000Y-61000000D03*
X178500000Y-56750000D03*
X168500000Y-91250000D03*
X164750000Y-58250000D03*
X148000000Y-58250000D03*
X158500000Y-54750000D03*
X155500000Y-87000000D03*
X162000000Y-72750000D03*
X161500000Y-59250000D03*
X181750000Y-58500000D03*
X154750000Y-87750000D03*
X172250000Y-74000000D03*
X183750000Y-69000000D03*
X176750000Y-63750000D03*
X160750000Y-82750000D03*
X173750000Y-93000000D03*
X176000000Y-63750000D03*
X183000000Y-94250000D03*
X151500000Y-69500000D03*
X180250000Y-74250000D03*
X162750000Y-73500000D03*
X175250000Y-52500000D03*
X160250000Y-87000000D03*
X152750000Y-59500000D03*
X146250000Y-93500000D03*
X175500000Y-77250000D03*
X161250000Y-91750000D03*
X177000000Y-59000000D03*
X167000000Y-74000000D03*
X162000000Y-73500000D03*
X166500000Y-93500000D03*
X167750000Y-74000000D03*
X165000000Y-85000000D03*
X183500000Y-62250000D03*
X154750000Y-82500000D03*
X155750000Y-52500000D03*
X172250000Y-73250000D03*
X171500000Y-73250000D03*
%TO.N,/VSW*%
X168250000Y-80775000D03*
X169750000Y-86500000D03*
%TO.N,/NRST*%
X164500000Y-77000000D03*
%TO.N,/PB15*%
X159250000Y-83500000D03*
X158000000Y-83500000D03*
%TO.N,/PB11*%
X162037503Y-76987005D03*
%TO.N,/PB10*%
X162750000Y-77000000D03*
%TO.N,/+3.3V_UART*%
X156500000Y-66000000D03*
X160500000Y-64000000D03*
%TO.N,/USB2_DP*%
X156000000Y-59250000D03*
X157500000Y-59250000D03*
%TD*%
D17*
%TO.N,/VSW*%
X169750000Y-82275000D02*
X169750000Y-86500000D01*
X168250000Y-80775000D02*
X169750000Y-82275000D01*
D18*
%TO.N,/NRST*%
X164500000Y-82000000D02*
X164500000Y-80000000D01*
X161250000Y-90000000D02*
X161750000Y-89500000D01*
X162125000Y-82500000D02*
X164000000Y-82500000D01*
X148325000Y-90000000D02*
X161250000Y-90000000D01*
X146975000Y-91350000D02*
X148325000Y-90000000D01*
X161750000Y-89500000D02*
X161750000Y-82875000D01*
X161750000Y-82875000D02*
X162125000Y-82500000D01*
X164000000Y-82500000D02*
X164500000Y-82000000D01*
D19*
%TO.N,/PB10*%
X150331480Y-85453520D02*
X149515000Y-86270000D01*
X155812854Y-85453520D02*
X150331480Y-85453520D01*
X156703520Y-84562854D02*
X155812854Y-85453520D01*
X156703520Y-83046480D02*
X156703520Y-84562854D01*
X158437854Y-82453520D02*
X157296480Y-82453520D01*
X160500000Y-77563516D02*
X159953520Y-78109996D01*
X159953520Y-78109996D02*
X159953520Y-80937854D01*
X162276303Y-77563516D02*
X160500000Y-77563516D01*
X159953520Y-80937854D02*
X158437854Y-82453520D01*
X162750000Y-77089819D02*
X162276303Y-77563516D01*
X157296480Y-82453520D02*
X156703520Y-83046480D01*
X162750000Y-77000000D02*
X162750000Y-77089819D01*
%TO.N,/PB11*%
X148245000Y-85000000D02*
X146975000Y-86270000D01*
X155625000Y-85000000D02*
X148245000Y-85000000D01*
X156250000Y-84375000D02*
X155625000Y-85000000D01*
X157108626Y-82000000D02*
X156250000Y-82858626D01*
X156250000Y-82858626D02*
X156250000Y-84375000D01*
X160435137Y-76987005D02*
X159500000Y-77922142D01*
X159500000Y-77922142D02*
X159500000Y-80750000D01*
X159500000Y-80750000D02*
X158250000Y-82000000D01*
X158250000Y-82000000D02*
X157108626Y-82000000D01*
X162037503Y-76987005D02*
X160435137Y-76987005D01*
D18*
%TO.N,/NRST*%
X164500000Y-80125000D02*
X164500000Y-77000000D01*
%TO.N,/PB15*%
X159250000Y-83500000D02*
X158000000Y-83500000D01*
D20*
%TO.N,/+3.3V_UART*%
X158500000Y-66000000D02*
X156500000Y-66000000D01*
X160500000Y-64000000D02*
X158500000Y-66000000D01*
D18*
%TO.N,/CH_RX*%
X176826520Y-75864751D02*
X176826520Y-80326520D01*
X181825000Y-80000000D02*
X183015000Y-81190000D01*
X176135249Y-75173480D02*
X176826520Y-75864751D01*
X176826520Y-80326520D02*
X177363480Y-80863480D01*
X165423480Y-75173480D02*
X176135249Y-75173480D01*
X166255000Y-71265000D02*
X165076520Y-72443480D01*
X177363480Y-80863480D02*
X178886520Y-80863480D01*
X165076520Y-72443480D02*
X165076520Y-74826520D01*
X179750000Y-80000000D02*
X181825000Y-80000000D01*
X165076520Y-74826520D02*
X165423480Y-75173480D01*
X178886520Y-80863480D02*
X179750000Y-80000000D01*
%TO.N,/CH_TX*%
X164750000Y-72300000D02*
X164750000Y-75000000D01*
X164750000Y-75000000D02*
X165250000Y-75500000D01*
X177190000Y-81190000D02*
X180475000Y-81190000D01*
X176500000Y-80500000D02*
X177190000Y-81190000D01*
X165250000Y-75500000D02*
X176000000Y-75500000D01*
X163715000Y-71265000D02*
X164750000Y-72300000D01*
X176500000Y-76000000D02*
X176500000Y-80500000D01*
X176000000Y-75500000D02*
X176500000Y-76000000D01*
%TO.N,/I2C_IO*%
X153673040Y-83076960D02*
X153673040Y-80951960D01*
X160076520Y-72363480D02*
X161175000Y-71265000D01*
X153020000Y-83730000D02*
X153673040Y-83076960D01*
X149515000Y-83730000D02*
X153020000Y-83730000D01*
X157135250Y-80576520D02*
X158000000Y-79711770D01*
X159635249Y-75576520D02*
X160076520Y-75135250D01*
X154048480Y-80576520D02*
X157135250Y-80576520D01*
X158000000Y-76000000D02*
X158423480Y-75576520D01*
X153673040Y-80951960D02*
X154048480Y-80576520D01*
X158000000Y-79711770D02*
X158000000Y-76000000D01*
X160076520Y-75135250D02*
X160076520Y-72363480D01*
X158423480Y-75576520D02*
X159635249Y-75576520D01*
%TO.N,/I2C_CK*%
X158635000Y-71265000D02*
X159750000Y-72380000D01*
X157673480Y-79576520D02*
X157000000Y-80250000D01*
X159750000Y-72380000D02*
X159750000Y-75000000D01*
X153346520Y-80816710D02*
X153346520Y-82941710D01*
X150868239Y-83403480D02*
X149964759Y-82500000D01*
X148205000Y-82500000D02*
X146975000Y-83730000D01*
X159500000Y-75250000D02*
X158288230Y-75250000D01*
X153346520Y-82941710D02*
X152884750Y-83403480D01*
X158288230Y-75250000D02*
X157673480Y-75864750D01*
X153913230Y-80250000D02*
X153346520Y-80816710D01*
X159750000Y-75000000D02*
X159500000Y-75250000D01*
X152884750Y-83403480D02*
X150868239Y-83403480D01*
X149964759Y-82500000D02*
X148205000Y-82500000D01*
X157673480Y-75864750D02*
X157673480Y-79576520D01*
X157000000Y-80250000D02*
X153913230Y-80250000D01*
D19*
%TO.N,/USB2_DP*%
X156000000Y-59250000D02*
X157500000Y-59250000D01*
D17*
%TO.N,VDD*%
X146975000Y-78650000D02*
X149515000Y-78650000D01*
X147500000Y-67500000D02*
X151265000Y-71265000D01*
X147500000Y-67500000D02*
X147750000Y-67250000D01*
X151265000Y-71265000D02*
X156095000Y-71265000D01*
X149515000Y-78650000D02*
X155350000Y-78650000D01*
X156095000Y-77905000D02*
X156095000Y-71265000D01*
X174750000Y-67250000D02*
X175250000Y-67750000D01*
X175250000Y-69890000D02*
X173875000Y-71265000D01*
X156095000Y-71345000D02*
X156095000Y-71265000D01*
X175250000Y-67750000D02*
X175250000Y-69890000D01*
X147750000Y-67250000D02*
X174750000Y-67250000D01*
X155350000Y-78650000D02*
X156095000Y-77905000D01*
%TD*%
%TA.AperFunction,Conductor*%
%TO.N,GND*%
G36*
X184363121Y-50349002D02*
G01*
X184409614Y-50402658D01*
X184421000Y-50455000D01*
X184421000Y-71924403D01*
X184400998Y-71992524D01*
X184380631Y-72016833D01*
X184372143Y-72024696D01*
X184360468Y-72034276D01*
X184359291Y-72035129D01*
X184348015Y-72040312D01*
X184340810Y-72048088D01*
X184338048Y-72050526D01*
X184337314Y-72051058D01*
X184336070Y-72052272D01*
X184224584Y-72150682D01*
X184123701Y-72281848D01*
X184120995Y-72287260D01*
X184060329Y-72408591D01*
X184011974Y-72460575D01*
X183943190Y-72478164D01*
X183875817Y-72455773D01*
X183831244Y-72400512D01*
X183827797Y-72391175D01*
X183826566Y-72387384D01*
X183824115Y-72379842D01*
X183738893Y-72245553D01*
X183726805Y-72234201D01*
X183628728Y-72142100D01*
X183622952Y-72136676D01*
X183483576Y-72060054D01*
X183329524Y-72020500D01*
X183210397Y-72020500D01*
X183154574Y-72027552D01*
X183100071Y-72034437D01*
X183100068Y-72034438D01*
X183092206Y-72035431D01*
X183084839Y-72038348D01*
X183084838Y-72038348D01*
X183079878Y-72040312D01*
X182944326Y-72093981D01*
X182937915Y-72098639D01*
X182937913Y-72098640D01*
X182871794Y-72146678D01*
X182815653Y-72187467D01*
X182741541Y-72277052D01*
X182733097Y-72287260D01*
X182714271Y-72310016D01*
X182646552Y-72453928D01*
X182645067Y-72461711D01*
X182645066Y-72461715D01*
X182627685Y-72552832D01*
X182616749Y-72610159D01*
X182626736Y-72768894D01*
X182629185Y-72776430D01*
X182629185Y-72776432D01*
X182654144Y-72853246D01*
X182675885Y-72920158D01*
X182761107Y-73054447D01*
X182877048Y-73163324D01*
X183016424Y-73239946D01*
X183170476Y-73279500D01*
X183289603Y-73279500D01*
X183345426Y-73272448D01*
X183399929Y-73265563D01*
X183399932Y-73265562D01*
X183407794Y-73264569D01*
X183415161Y-73261652D01*
X183415162Y-73261652D01*
X183449097Y-73248216D01*
X183555674Y-73206019D01*
X183621905Y-73157900D01*
X183677933Y-73117193D01*
X183684347Y-73112533D01*
X183772916Y-73005472D01*
X183831749Y-72965734D01*
X183902727Y-72964113D01*
X183963315Y-73001122D01*
X183994275Y-73065012D01*
X183996000Y-73085788D01*
X183996000Y-73916995D01*
X183975998Y-73985116D01*
X183922342Y-74031609D01*
X183852068Y-74041713D01*
X183787488Y-74012219D01*
X183763618Y-73984514D01*
X183738893Y-73945553D01*
X183622952Y-73836676D01*
X183483576Y-73760054D01*
X183329524Y-73720500D01*
X183210397Y-73720500D01*
X183154574Y-73727552D01*
X183100071Y-73734437D01*
X183100068Y-73734438D01*
X183092206Y-73735431D01*
X183084839Y-73738348D01*
X183084838Y-73738348D01*
X183050903Y-73751784D01*
X182944326Y-73793981D01*
X182937915Y-73798639D01*
X182937913Y-73798640D01*
X182830563Y-73876635D01*
X182815653Y-73887467D01*
X182714271Y-74010016D01*
X182646552Y-74153928D01*
X182645067Y-74161711D01*
X182645066Y-74161715D01*
X182633397Y-74222888D01*
X182616749Y-74310159D01*
X182626736Y-74468894D01*
X182629185Y-74476430D01*
X182629185Y-74476432D01*
X182673434Y-74612616D01*
X182673435Y-74612619D01*
X182675885Y-74620158D01*
X182761107Y-74754447D01*
X182877048Y-74863324D01*
X183016424Y-74939946D01*
X183170476Y-74979500D01*
X183289603Y-74979500D01*
X183345426Y-74972448D01*
X183399929Y-74965563D01*
X183399932Y-74965562D01*
X183407794Y-74964569D01*
X183415161Y-74961652D01*
X183415162Y-74961652D01*
X183450329Y-74947728D01*
X183555674Y-74906019D01*
X183576831Y-74890648D01*
X183677933Y-74817193D01*
X183684347Y-74812533D01*
X183764357Y-74715818D01*
X183780677Y-74696091D01*
X183780678Y-74696090D01*
X183785729Y-74689984D01*
X183832192Y-74591244D01*
X183879293Y-74538124D01*
X183947637Y-74518901D01*
X184015525Y-74539680D01*
X184058897Y-74588544D01*
X184123701Y-74718152D01*
X184224584Y-74849318D01*
X184229120Y-74853322D01*
X184336070Y-74947728D01*
X184337314Y-74948942D01*
X184338048Y-74949474D01*
X184340810Y-74951912D01*
X184348015Y-74959688D01*
X184359291Y-74964871D01*
X184360468Y-74965724D01*
X184372143Y-74975304D01*
X184380629Y-74983166D01*
X184417008Y-75044132D01*
X184421000Y-75075597D01*
X184421000Y-94624000D01*
X184400998Y-94692121D01*
X184347342Y-94738614D01*
X184295000Y-94750000D01*
X145705000Y-94750000D01*
X145636879Y-94729998D01*
X145590386Y-94676342D01*
X145579000Y-94624000D01*
X145579000Y-91335262D01*
X145919520Y-91335262D01*
X145936759Y-91540553D01*
X145993544Y-91738586D01*
X145996359Y-91744063D01*
X145996360Y-91744066D01*
X146017247Y-91784707D01*
X146087712Y-91921818D01*
X146215677Y-92083270D01*
X146372564Y-92216791D01*
X146552398Y-92317297D01*
X146647238Y-92348112D01*
X146742471Y-92379056D01*
X146742475Y-92379057D01*
X146748329Y-92380959D01*
X146952894Y-92405351D01*
X146959029Y-92404879D01*
X146959031Y-92404879D01*
X147015039Y-92400569D01*
X147158300Y-92389546D01*
X147164230Y-92387890D01*
X147164232Y-92387890D01*
X147350797Y-92335800D01*
X147350796Y-92335800D01*
X147356725Y-92334145D01*
X147362214Y-92331372D01*
X147362220Y-92331370D01*
X147535116Y-92244033D01*
X147540610Y-92241258D01*
X147702951Y-92114424D01*
X147837564Y-91958472D01*
X147858387Y-91921818D01*
X147936276Y-91784707D01*
X147939323Y-91779344D01*
X148004351Y-91583863D01*
X148030171Y-91379474D01*
X148030583Y-91350000D01*
X148010480Y-91144970D01*
X147950935Y-90947749D01*
X147925163Y-90899278D01*
X147910844Y-90829742D01*
X147936392Y-90763502D01*
X147947320Y-90751032D01*
X148397447Y-90300905D01*
X148459759Y-90266879D01*
X148486542Y-90264000D01*
X148831345Y-90264000D01*
X148899466Y-90284002D01*
X148945959Y-90337658D01*
X148956063Y-90407932D01*
X148926569Y-90472512D01*
X148910297Y-90488197D01*
X148776447Y-90595815D01*
X148644024Y-90753630D01*
X148641056Y-90759028D01*
X148641053Y-90759033D01*
X148602181Y-90829742D01*
X148544776Y-90934162D01*
X148482484Y-91130532D01*
X148481798Y-91136649D01*
X148481797Y-91136653D01*
X148460207Y-91329137D01*
X148459520Y-91335262D01*
X148476759Y-91540553D01*
X148533544Y-91738586D01*
X148536359Y-91744063D01*
X148536360Y-91744066D01*
X148557247Y-91784707D01*
X148627712Y-91921818D01*
X148755677Y-92083270D01*
X148912564Y-92216791D01*
X149092398Y-92317297D01*
X149187238Y-92348112D01*
X149282471Y-92379056D01*
X149282475Y-92379057D01*
X149288329Y-92380959D01*
X149492894Y-92405351D01*
X149499029Y-92404879D01*
X149499031Y-92404879D01*
X149555039Y-92400569D01*
X149698300Y-92389546D01*
X149704230Y-92387890D01*
X149704232Y-92387890D01*
X149890797Y-92335800D01*
X149890796Y-92335800D01*
X149896725Y-92334145D01*
X149902214Y-92331372D01*
X149902220Y-92331370D01*
X150075116Y-92244033D01*
X150080610Y-92241258D01*
X150242951Y-92114424D01*
X150377564Y-91958472D01*
X150398387Y-91921818D01*
X150476276Y-91784707D01*
X150479323Y-91779344D01*
X150544351Y-91583863D01*
X150570171Y-91379474D01*
X150570583Y-91350000D01*
X150569138Y-91335262D01*
X179419520Y-91335262D01*
X179436759Y-91540553D01*
X179493544Y-91738586D01*
X179496359Y-91744063D01*
X179496360Y-91744066D01*
X179517247Y-91784707D01*
X179587712Y-91921818D01*
X179715677Y-92083270D01*
X179872564Y-92216791D01*
X180052398Y-92317297D01*
X180147238Y-92348112D01*
X180242471Y-92379056D01*
X180242475Y-92379057D01*
X180248329Y-92380959D01*
X180452894Y-92405351D01*
X180459029Y-92404879D01*
X180459031Y-92404879D01*
X180515039Y-92400569D01*
X180658300Y-92389546D01*
X180664230Y-92387890D01*
X180664232Y-92387890D01*
X180850797Y-92335800D01*
X180850796Y-92335800D01*
X180856725Y-92334145D01*
X180862214Y-92331372D01*
X180862220Y-92331370D01*
X181035116Y-92244033D01*
X181040610Y-92241258D01*
X181202951Y-92114424D01*
X181337564Y-91958472D01*
X181358387Y-91921818D01*
X181436276Y-91784707D01*
X181439323Y-91779344D01*
X181504351Y-91583863D01*
X181530171Y-91379474D01*
X181530583Y-91350000D01*
X181529138Y-91335262D01*
X181959520Y-91335262D01*
X181976759Y-91540553D01*
X182033544Y-91738586D01*
X182036359Y-91744063D01*
X182036360Y-91744066D01*
X182057247Y-91784707D01*
X182127712Y-91921818D01*
X182255677Y-92083270D01*
X182412564Y-92216791D01*
X182592398Y-92317297D01*
X182687238Y-92348112D01*
X182782471Y-92379056D01*
X182782475Y-92379057D01*
X182788329Y-92380959D01*
X182992894Y-92405351D01*
X182999029Y-92404879D01*
X182999031Y-92404879D01*
X183055039Y-92400569D01*
X183198300Y-92389546D01*
X183204230Y-92387890D01*
X183204232Y-92387890D01*
X183390797Y-92335800D01*
X183390796Y-92335800D01*
X183396725Y-92334145D01*
X183402214Y-92331372D01*
X183402220Y-92331370D01*
X183575116Y-92244033D01*
X183580610Y-92241258D01*
X183742951Y-92114424D01*
X183877564Y-91958472D01*
X183898387Y-91921818D01*
X183976276Y-91784707D01*
X183979323Y-91779344D01*
X184044351Y-91583863D01*
X184070171Y-91379474D01*
X184070583Y-91350000D01*
X184050480Y-91144970D01*
X183990935Y-90947749D01*
X183894218Y-90765849D01*
X183820859Y-90675902D01*
X183767906Y-90610975D01*
X183767903Y-90610972D01*
X183764011Y-90606200D01*
X183746786Y-90591950D01*
X183610025Y-90478811D01*
X183610021Y-90478809D01*
X183605275Y-90474882D01*
X183424055Y-90376897D01*
X183227254Y-90315977D01*
X183221129Y-90315333D01*
X183221128Y-90315333D01*
X183028498Y-90295087D01*
X183028496Y-90295087D01*
X183022369Y-90294443D01*
X182935529Y-90302346D01*
X182823342Y-90312555D01*
X182823339Y-90312556D01*
X182817203Y-90313114D01*
X182619572Y-90371280D01*
X182614107Y-90374137D01*
X182603223Y-90379827D01*
X182437002Y-90466726D01*
X182432201Y-90470586D01*
X182432198Y-90470588D01*
X182421971Y-90478811D01*
X182276447Y-90595815D01*
X182144024Y-90753630D01*
X182141056Y-90759028D01*
X182141053Y-90759033D01*
X182102181Y-90829742D01*
X182044776Y-90934162D01*
X181982484Y-91130532D01*
X181981798Y-91136649D01*
X181981797Y-91136653D01*
X181960207Y-91329137D01*
X181959520Y-91335262D01*
X181529138Y-91335262D01*
X181510480Y-91144970D01*
X181450935Y-90947749D01*
X181354218Y-90765849D01*
X181280859Y-90675902D01*
X181227906Y-90610975D01*
X181227903Y-90610972D01*
X181224011Y-90606200D01*
X181206786Y-90591950D01*
X181070025Y-90478811D01*
X181070021Y-90478809D01*
X181065275Y-90474882D01*
X180884055Y-90376897D01*
X180687254Y-90315977D01*
X180681129Y-90315333D01*
X180681128Y-90315333D01*
X180488498Y-90295087D01*
X180488496Y-90295087D01*
X180482369Y-90294443D01*
X180395529Y-90302346D01*
X180283342Y-90312555D01*
X180283339Y-90312556D01*
X180277203Y-90313114D01*
X180079572Y-90371280D01*
X180074107Y-90374137D01*
X180063223Y-90379827D01*
X179897002Y-90466726D01*
X179892201Y-90470586D01*
X179892198Y-90470588D01*
X179881971Y-90478811D01*
X179736447Y-90595815D01*
X179604024Y-90753630D01*
X179601056Y-90759028D01*
X179601053Y-90759033D01*
X179562181Y-90829742D01*
X179504776Y-90934162D01*
X179442484Y-91130532D01*
X179441798Y-91136649D01*
X179441797Y-91136653D01*
X179420207Y-91329137D01*
X179419520Y-91335262D01*
X150569138Y-91335262D01*
X150550480Y-91144970D01*
X150490935Y-90947749D01*
X150394218Y-90765849D01*
X150320859Y-90675902D01*
X150267906Y-90610975D01*
X150267903Y-90610972D01*
X150264011Y-90606200D01*
X150120024Y-90487083D01*
X150080287Y-90428251D01*
X150078665Y-90357273D01*
X150115675Y-90296685D01*
X150179565Y-90265725D01*
X150200341Y-90264000D01*
X161211588Y-90264000D01*
X161236168Y-90266421D01*
X161237827Y-90266751D01*
X161237829Y-90266751D01*
X161250000Y-90269172D01*
X161262171Y-90266751D01*
X161263831Y-90266421D01*
X161276002Y-90264000D01*
X161340838Y-90251104D01*
X161340839Y-90251103D01*
X161353008Y-90248683D01*
X161440333Y-90190333D01*
X161448170Y-90178604D01*
X161463836Y-90159516D01*
X161909520Y-89713833D01*
X161928607Y-89698168D01*
X161940333Y-89690333D01*
X161955060Y-89668293D01*
X161955063Y-89668290D01*
X161998683Y-89603008D01*
X162011526Y-89538439D01*
X162016751Y-89512172D01*
X162019172Y-89500000D01*
X162016421Y-89486168D01*
X162014000Y-89461588D01*
X162014000Y-88795262D01*
X179419520Y-88795262D01*
X179436759Y-89000553D01*
X179493544Y-89198586D01*
X179496359Y-89204063D01*
X179496360Y-89204066D01*
X179517247Y-89244707D01*
X179587712Y-89381818D01*
X179715677Y-89543270D01*
X179720370Y-89547264D01*
X179720371Y-89547265D01*
X179862584Y-89668297D01*
X179872564Y-89676791D01*
X179877942Y-89679797D01*
X179877944Y-89679798D01*
X179947871Y-89718879D01*
X180052398Y-89777297D01*
X180130808Y-89802774D01*
X180242471Y-89839056D01*
X180242475Y-89839057D01*
X180248329Y-89840959D01*
X180452894Y-89865351D01*
X180459029Y-89864879D01*
X180459031Y-89864879D01*
X180515039Y-89860569D01*
X180658300Y-89849546D01*
X180664230Y-89847890D01*
X180664232Y-89847890D01*
X180850797Y-89795800D01*
X180850796Y-89795800D01*
X180856725Y-89794145D01*
X180862214Y-89791372D01*
X180862220Y-89791370D01*
X181035116Y-89704033D01*
X181040610Y-89701258D01*
X181054594Y-89690333D01*
X181173356Y-89597546D01*
X181202951Y-89574424D01*
X181243309Y-89527669D01*
X181333540Y-89423134D01*
X181333540Y-89423133D01*
X181337564Y-89418472D01*
X181344322Y-89406577D01*
X181436276Y-89244707D01*
X181439323Y-89239344D01*
X181504351Y-89043863D01*
X181530171Y-88839474D01*
X181530583Y-88810000D01*
X181529138Y-88795262D01*
X181959520Y-88795262D01*
X181976759Y-89000553D01*
X182033544Y-89198586D01*
X182036359Y-89204063D01*
X182036360Y-89204066D01*
X182057247Y-89244707D01*
X182127712Y-89381818D01*
X182255677Y-89543270D01*
X182260370Y-89547264D01*
X182260371Y-89547265D01*
X182402584Y-89668297D01*
X182412564Y-89676791D01*
X182417942Y-89679797D01*
X182417944Y-89679798D01*
X182487871Y-89718879D01*
X182592398Y-89777297D01*
X182670808Y-89802774D01*
X182782471Y-89839056D01*
X182782475Y-89839057D01*
X182788329Y-89840959D01*
X182992894Y-89865351D01*
X182999029Y-89864879D01*
X182999031Y-89864879D01*
X183055039Y-89860569D01*
X183198300Y-89849546D01*
X183204230Y-89847890D01*
X183204232Y-89847890D01*
X183390797Y-89795800D01*
X183390796Y-89795800D01*
X183396725Y-89794145D01*
X183402214Y-89791372D01*
X183402220Y-89791370D01*
X183575116Y-89704033D01*
X183580610Y-89701258D01*
X183594594Y-89690333D01*
X183713356Y-89597546D01*
X183742951Y-89574424D01*
X183783309Y-89527669D01*
X183873540Y-89423134D01*
X183873540Y-89423133D01*
X183877564Y-89418472D01*
X183884322Y-89406577D01*
X183976276Y-89244707D01*
X183979323Y-89239344D01*
X184044351Y-89043863D01*
X184070171Y-88839474D01*
X184070583Y-88810000D01*
X184050480Y-88604970D01*
X183990935Y-88407749D01*
X183894218Y-88225849D01*
X183820859Y-88135902D01*
X183767906Y-88070975D01*
X183767903Y-88070972D01*
X183764011Y-88066200D01*
X183746786Y-88051950D01*
X183610025Y-87938811D01*
X183610021Y-87938809D01*
X183605275Y-87934882D01*
X183424055Y-87836897D01*
X183227254Y-87775977D01*
X183221129Y-87775333D01*
X183221128Y-87775333D01*
X183028498Y-87755087D01*
X183028496Y-87755087D01*
X183022369Y-87754443D01*
X182935529Y-87762346D01*
X182823342Y-87772555D01*
X182823339Y-87772556D01*
X182817203Y-87773114D01*
X182619572Y-87831280D01*
X182437002Y-87926726D01*
X182432201Y-87930586D01*
X182432198Y-87930588D01*
X182421971Y-87938811D01*
X182276447Y-88055815D01*
X182144024Y-88213630D01*
X182141056Y-88219028D01*
X182141053Y-88219033D01*
X182134315Y-88231290D01*
X182044776Y-88394162D01*
X181982484Y-88590532D01*
X181981798Y-88596649D01*
X181981797Y-88596653D01*
X181960207Y-88789137D01*
X181959520Y-88795262D01*
X181529138Y-88795262D01*
X181510480Y-88604970D01*
X181450935Y-88407749D01*
X181354218Y-88225849D01*
X181280859Y-88135902D01*
X181227906Y-88070975D01*
X181227903Y-88070972D01*
X181224011Y-88066200D01*
X181206786Y-88051950D01*
X181070025Y-87938811D01*
X181070021Y-87938809D01*
X181065275Y-87934882D01*
X180884055Y-87836897D01*
X180687254Y-87775977D01*
X180681129Y-87775333D01*
X180681128Y-87775333D01*
X180488498Y-87755087D01*
X180488496Y-87755087D01*
X180482369Y-87754443D01*
X180395529Y-87762346D01*
X180283342Y-87772555D01*
X180283339Y-87772556D01*
X180277203Y-87773114D01*
X180079572Y-87831280D01*
X179897002Y-87926726D01*
X179892201Y-87930586D01*
X179892198Y-87930588D01*
X179881971Y-87938811D01*
X179736447Y-88055815D01*
X179604024Y-88213630D01*
X179601056Y-88219028D01*
X179601053Y-88219033D01*
X179594315Y-88231290D01*
X179504776Y-88394162D01*
X179442484Y-88590532D01*
X179441798Y-88596649D01*
X179441797Y-88596653D01*
X179420207Y-88789137D01*
X179419520Y-88795262D01*
X162014000Y-88795262D01*
X162014000Y-83036542D01*
X162034002Y-82968421D01*
X162050905Y-82947447D01*
X162197447Y-82800905D01*
X162259759Y-82766879D01*
X162286542Y-82764000D01*
X163961588Y-82764000D01*
X163986168Y-82766421D01*
X163987827Y-82766751D01*
X163987829Y-82766751D01*
X164000000Y-82769172D01*
X164012171Y-82766751D01*
X164013831Y-82766421D01*
X164026002Y-82764000D01*
X164052643Y-82758701D01*
X164090838Y-82751104D01*
X164090839Y-82751103D01*
X164103008Y-82748683D01*
X164165824Y-82706710D01*
X164168290Y-82705062D01*
X164168295Y-82705059D01*
X164180017Y-82697226D01*
X164190333Y-82690333D01*
X164198170Y-82678604D01*
X164213836Y-82659516D01*
X164659520Y-82213833D01*
X164678607Y-82198168D01*
X164690333Y-82190333D01*
X164705060Y-82168293D01*
X164705063Y-82168290D01*
X164748683Y-82103008D01*
X164764750Y-82022231D01*
X164766751Y-82012172D01*
X164769172Y-82000000D01*
X164766421Y-81986168D01*
X164764000Y-81961588D01*
X164764000Y-80789310D01*
X167794636Y-80789310D01*
X167804150Y-80841403D01*
X167805130Y-80847666D01*
X167811633Y-80897394D01*
X167815246Y-80905605D01*
X167815512Y-80906558D01*
X167816626Y-80911390D01*
X167817283Y-80913309D01*
X167818975Y-80922573D01*
X167841542Y-80966017D01*
X167845047Y-80973335D01*
X167859989Y-81007294D01*
X167859992Y-81007298D01*
X167863605Y-81015510D01*
X167869380Y-81022380D01*
X167874124Y-81030001D01*
X167873619Y-81030316D01*
X167873833Y-81030637D01*
X167874097Y-81030459D01*
X167878111Y-81036416D01*
X167881421Y-81042788D01*
X167885725Y-81047828D01*
X167913524Y-81075627D01*
X167920880Y-81083647D01*
X167946639Y-81114291D01*
X167954109Y-81119263D01*
X167956769Y-81121642D01*
X167972092Y-81134195D01*
X169262595Y-82424698D01*
X169296621Y-82487010D01*
X169299500Y-82513793D01*
X169299500Y-86455152D01*
X169298000Y-86474536D01*
X169296282Y-86485567D01*
X169296282Y-86485571D01*
X169294901Y-86494440D01*
X169296065Y-86503342D01*
X169296065Y-86503344D01*
X169299127Y-86526756D01*
X169299500Y-86530386D01*
X169299500Y-86533850D01*
X169301684Y-86548376D01*
X169303581Y-86560995D01*
X169303913Y-86563364D01*
X169311633Y-86622394D01*
X169313424Y-86626464D01*
X169314551Y-86633962D01*
X169339617Y-86686162D01*
X169341346Y-86689924D01*
X169363605Y-86740510D01*
X169367603Y-86745266D01*
X169367883Y-86745776D01*
X169369112Y-86747585D01*
X169373191Y-86756079D01*
X169379585Y-86762996D01*
X169409804Y-86795687D01*
X169413730Y-86800141D01*
X169446639Y-86839291D01*
X169453824Y-86844074D01*
X169457210Y-86847405D01*
X169458755Y-86848643D01*
X169465146Y-86855556D01*
X169473288Y-86860285D01*
X169473289Y-86860286D01*
X169508345Y-86880648D01*
X169514879Y-86884715D01*
X169554060Y-86910796D01*
X169562626Y-86913472D01*
X169570489Y-86917223D01*
X169571973Y-86918006D01*
X169574141Y-86918865D01*
X169582287Y-86923596D01*
X169591458Y-86925722D01*
X169591461Y-86925723D01*
X169627063Y-86933975D01*
X169636184Y-86936454D01*
X169667627Y-86946277D01*
X169677233Y-86949278D01*
X169686209Y-86949443D01*
X169695068Y-86950878D01*
X169695038Y-86951062D01*
X169699638Y-86951631D01*
X169705083Y-86952059D01*
X169714255Y-86954185D01*
X169723649Y-86953520D01*
X169723651Y-86953520D01*
X169756089Y-86951223D01*
X169767297Y-86950929D01*
X169797279Y-86951479D01*
X169797283Y-86951479D01*
X169806255Y-86951643D01*
X169814912Y-86949283D01*
X169816948Y-86949029D01*
X169838257Y-86945405D01*
X169849384Y-86944617D01*
X169884759Y-86930931D01*
X169897072Y-86926883D01*
X169901327Y-86925723D01*
X169930755Y-86917700D01*
X169938407Y-86913002D01*
X169938411Y-86913000D01*
X169941077Y-86911363D01*
X169961536Y-86901229D01*
X169966941Y-86899138D01*
X169966942Y-86899137D01*
X169975726Y-86895739D01*
X170002353Y-86874748D01*
X170014423Y-86866328D01*
X170040724Y-86850179D01*
X170051580Y-86838185D01*
X170066984Y-86823797D01*
X170074711Y-86817706D01*
X170074715Y-86817702D01*
X170082110Y-86811872D01*
X170099091Y-86787302D01*
X170109325Y-86774390D01*
X170121297Y-86761163D01*
X170127322Y-86754507D01*
X170136143Y-86736301D01*
X170145880Y-86719605D01*
X170153775Y-86708182D01*
X170153778Y-86708177D01*
X170159131Y-86700431D01*
X170166920Y-86675804D01*
X170173663Y-86658860D01*
X170179675Y-86646452D01*
X170179675Y-86646451D01*
X170183588Y-86638375D01*
X170185592Y-86626464D01*
X170187616Y-86614432D01*
X170191735Y-86597344D01*
X170197814Y-86578122D01*
X170197816Y-86578113D01*
X170199980Y-86571270D01*
X170200500Y-86564663D01*
X170200500Y-86548376D01*
X170202246Y-86527472D01*
X170204190Y-86515917D01*
X170204997Y-86511120D01*
X170205133Y-86500000D01*
X170201773Y-86476538D01*
X170200500Y-86458676D01*
X170200500Y-86255262D01*
X179419520Y-86255262D01*
X179436759Y-86460553D01*
X179438458Y-86466478D01*
X179490065Y-86646452D01*
X179493544Y-86658586D01*
X179496359Y-86664063D01*
X179496360Y-86664066D01*
X179581816Y-86830346D01*
X179587712Y-86841818D01*
X179715677Y-87003270D01*
X179872564Y-87136791D01*
X180052398Y-87237297D01*
X180147238Y-87268113D01*
X180242471Y-87299056D01*
X180242475Y-87299057D01*
X180248329Y-87300959D01*
X180452894Y-87325351D01*
X180459029Y-87324879D01*
X180459031Y-87324879D01*
X180515039Y-87320569D01*
X180658300Y-87309546D01*
X180664230Y-87307890D01*
X180664232Y-87307890D01*
X180850797Y-87255800D01*
X180850796Y-87255800D01*
X180856725Y-87254145D01*
X180862214Y-87251372D01*
X180862220Y-87251370D01*
X181035116Y-87164033D01*
X181040610Y-87161258D01*
X181202951Y-87034424D01*
X181274416Y-86951631D01*
X181333540Y-86883134D01*
X181333540Y-86883133D01*
X181337564Y-86878472D01*
X181358387Y-86841818D01*
X181384592Y-86795687D01*
X181439323Y-86699344D01*
X181504351Y-86503863D01*
X181530171Y-86299474D01*
X181530583Y-86270000D01*
X181529138Y-86255262D01*
X181959520Y-86255262D01*
X181976759Y-86460553D01*
X181978458Y-86466478D01*
X182030065Y-86646452D01*
X182033544Y-86658586D01*
X182036359Y-86664063D01*
X182036360Y-86664066D01*
X182121816Y-86830346D01*
X182127712Y-86841818D01*
X182255677Y-87003270D01*
X182412564Y-87136791D01*
X182592398Y-87237297D01*
X182687238Y-87268113D01*
X182782471Y-87299056D01*
X182782475Y-87299057D01*
X182788329Y-87300959D01*
X182992894Y-87325351D01*
X182999029Y-87324879D01*
X182999031Y-87324879D01*
X183055039Y-87320569D01*
X183198300Y-87309546D01*
X183204230Y-87307890D01*
X183204232Y-87307890D01*
X183390797Y-87255800D01*
X183390796Y-87255800D01*
X183396725Y-87254145D01*
X183402214Y-87251372D01*
X183402220Y-87251370D01*
X183575116Y-87164033D01*
X183580610Y-87161258D01*
X183742951Y-87034424D01*
X183814416Y-86951631D01*
X183873540Y-86883134D01*
X183873540Y-86883133D01*
X183877564Y-86878472D01*
X183898387Y-86841818D01*
X183924592Y-86795687D01*
X183979323Y-86699344D01*
X184044351Y-86503863D01*
X184070171Y-86299474D01*
X184070583Y-86270000D01*
X184050480Y-86064970D01*
X183990935Y-85867749D01*
X183894218Y-85685849D01*
X183820859Y-85595902D01*
X183767906Y-85530975D01*
X183767903Y-85530972D01*
X183764011Y-85526200D01*
X183697808Y-85471432D01*
X183610025Y-85398811D01*
X183610021Y-85398809D01*
X183605275Y-85394882D01*
X183424055Y-85296897D01*
X183227254Y-85235977D01*
X183221129Y-85235333D01*
X183221128Y-85235333D01*
X183028498Y-85215087D01*
X183028496Y-85215087D01*
X183022369Y-85214443D01*
X182935529Y-85222346D01*
X182823342Y-85232555D01*
X182823339Y-85232556D01*
X182817203Y-85233114D01*
X182619572Y-85291280D01*
X182437002Y-85386726D01*
X182432201Y-85390586D01*
X182432198Y-85390588D01*
X182281254Y-85511950D01*
X182276447Y-85515815D01*
X182144024Y-85673630D01*
X182141056Y-85679028D01*
X182141053Y-85679033D01*
X182083432Y-85783846D01*
X182044776Y-85854162D01*
X181982484Y-86050532D01*
X181981798Y-86056649D01*
X181981797Y-86056653D01*
X181960207Y-86249137D01*
X181959520Y-86255262D01*
X181529138Y-86255262D01*
X181510480Y-86064970D01*
X181450935Y-85867749D01*
X181354218Y-85685849D01*
X181280859Y-85595902D01*
X181227906Y-85530975D01*
X181227903Y-85530972D01*
X181224011Y-85526200D01*
X181157808Y-85471432D01*
X181070025Y-85398811D01*
X181070021Y-85398809D01*
X181065275Y-85394882D01*
X180884055Y-85296897D01*
X180687254Y-85235977D01*
X180681129Y-85235333D01*
X180681128Y-85235333D01*
X180488498Y-85215087D01*
X180488496Y-85215087D01*
X180482369Y-85214443D01*
X180395529Y-85222346D01*
X180283342Y-85232555D01*
X180283339Y-85232556D01*
X180277203Y-85233114D01*
X180079572Y-85291280D01*
X179897002Y-85386726D01*
X179892201Y-85390586D01*
X179892198Y-85390588D01*
X179741254Y-85511950D01*
X179736447Y-85515815D01*
X179604024Y-85673630D01*
X179601056Y-85679028D01*
X179601053Y-85679033D01*
X179543432Y-85783846D01*
X179504776Y-85854162D01*
X179442484Y-86050532D01*
X179441798Y-86056649D01*
X179441797Y-86056653D01*
X179420207Y-86249137D01*
X179419520Y-86255262D01*
X170200500Y-86255262D01*
X170200500Y-83715262D01*
X179419520Y-83715262D01*
X179420036Y-83721406D01*
X179435940Y-83910796D01*
X179436759Y-83920553D01*
X179438458Y-83926478D01*
X179482545Y-84080227D01*
X179493544Y-84118586D01*
X179496359Y-84124063D01*
X179496360Y-84124066D01*
X179517247Y-84164707D01*
X179587712Y-84301818D01*
X179715677Y-84463270D01*
X179872564Y-84596791D01*
X180052398Y-84697297D01*
X180133119Y-84723525D01*
X180242471Y-84759056D01*
X180242475Y-84759057D01*
X180248329Y-84760959D01*
X180452894Y-84785351D01*
X180459029Y-84784879D01*
X180459031Y-84784879D01*
X180515039Y-84780569D01*
X180658300Y-84769546D01*
X180664230Y-84767890D01*
X180664232Y-84767890D01*
X180850797Y-84715800D01*
X180850796Y-84715800D01*
X180856725Y-84714145D01*
X180862214Y-84711372D01*
X180862220Y-84711370D01*
X181005049Y-84639221D01*
X181040610Y-84621258D01*
X181064639Y-84602485D01*
X181126642Y-84554043D01*
X181202951Y-84494424D01*
X181229067Y-84464169D01*
X181333540Y-84343134D01*
X181333540Y-84343133D01*
X181337564Y-84338472D01*
X181358387Y-84301818D01*
X181376056Y-84270714D01*
X181439323Y-84159344D01*
X181504351Y-83963863D01*
X181530171Y-83759474D01*
X181530583Y-83730000D01*
X181529138Y-83715262D01*
X181959520Y-83715262D01*
X181960036Y-83721406D01*
X181975940Y-83910796D01*
X181976759Y-83920553D01*
X181978458Y-83926478D01*
X182022545Y-84080227D01*
X182033544Y-84118586D01*
X182036359Y-84124063D01*
X182036360Y-84124066D01*
X182057247Y-84164707D01*
X182127712Y-84301818D01*
X182255677Y-84463270D01*
X182412564Y-84596791D01*
X182592398Y-84697297D01*
X182673119Y-84723525D01*
X182782471Y-84759056D01*
X182782475Y-84759057D01*
X182788329Y-84760959D01*
X182992894Y-84785351D01*
X182999029Y-84784879D01*
X182999031Y-84784879D01*
X183055039Y-84780569D01*
X183198300Y-84769546D01*
X183204230Y-84767890D01*
X183204232Y-84767890D01*
X183390797Y-84715800D01*
X183390796Y-84715800D01*
X183396725Y-84714145D01*
X183402214Y-84711372D01*
X183402220Y-84711370D01*
X183545049Y-84639221D01*
X183580610Y-84621258D01*
X183604639Y-84602485D01*
X183666642Y-84554043D01*
X183742951Y-84494424D01*
X183769067Y-84464169D01*
X183873540Y-84343134D01*
X183873540Y-84343133D01*
X183877564Y-84338472D01*
X183898387Y-84301818D01*
X183916056Y-84270714D01*
X183979323Y-84159344D01*
X184044351Y-83963863D01*
X184070171Y-83759474D01*
X184070583Y-83730000D01*
X184050480Y-83524970D01*
X183990935Y-83327749D01*
X183894218Y-83145849D01*
X183805069Y-83036542D01*
X183767906Y-82990975D01*
X183767903Y-82990972D01*
X183764011Y-82986200D01*
X183759262Y-82982271D01*
X183610025Y-82858811D01*
X183610021Y-82858809D01*
X183605275Y-82854882D01*
X183432890Y-82761674D01*
X183429474Y-82759827D01*
X183424055Y-82756897D01*
X183227254Y-82695977D01*
X183221129Y-82695333D01*
X183221128Y-82695333D01*
X183028498Y-82675087D01*
X183028496Y-82675087D01*
X183022369Y-82674443D01*
X182935529Y-82682346D01*
X182823342Y-82692555D01*
X182823339Y-82692556D01*
X182817203Y-82693114D01*
X182619572Y-82751280D01*
X182614107Y-82754137D01*
X182576951Y-82773562D01*
X182437002Y-82846726D01*
X182432201Y-82850586D01*
X182432198Y-82850588D01*
X182354061Y-82913412D01*
X182276447Y-82975815D01*
X182144024Y-83133630D01*
X182141056Y-83139028D01*
X182141053Y-83139033D01*
X182063951Y-83279282D01*
X182044776Y-83314162D01*
X181982484Y-83510532D01*
X181981798Y-83516649D01*
X181981797Y-83516653D01*
X181969937Y-83622394D01*
X181959520Y-83715262D01*
X181529138Y-83715262D01*
X181510480Y-83524970D01*
X181450935Y-83327749D01*
X181354218Y-83145849D01*
X181265069Y-83036542D01*
X181227906Y-82990975D01*
X181227903Y-82990972D01*
X181224011Y-82986200D01*
X181219262Y-82982271D01*
X181070025Y-82858811D01*
X181070021Y-82858809D01*
X181065275Y-82854882D01*
X180892890Y-82761674D01*
X180889474Y-82759827D01*
X180884055Y-82756897D01*
X180687254Y-82695977D01*
X180681129Y-82695333D01*
X180681128Y-82695333D01*
X180488498Y-82675087D01*
X180488496Y-82675087D01*
X180482369Y-82674443D01*
X180395529Y-82682346D01*
X180283342Y-82692555D01*
X180283339Y-82692556D01*
X180277203Y-82693114D01*
X180079572Y-82751280D01*
X180074107Y-82754137D01*
X180036951Y-82773562D01*
X179897002Y-82846726D01*
X179892201Y-82850586D01*
X179892198Y-82850588D01*
X179814061Y-82913412D01*
X179736447Y-82975815D01*
X179604024Y-83133630D01*
X179601056Y-83139028D01*
X179601053Y-83139033D01*
X179523951Y-83279282D01*
X179504776Y-83314162D01*
X179442484Y-83510532D01*
X179441798Y-83516649D01*
X179441797Y-83516653D01*
X179429937Y-83622394D01*
X179419520Y-83715262D01*
X170200500Y-83715262D01*
X170200500Y-82309219D01*
X170201373Y-82294410D01*
X170204257Y-82270041D01*
X170205364Y-82260689D01*
X170203672Y-82251426D01*
X170203672Y-82251419D01*
X170194825Y-82202982D01*
X170194174Y-82199075D01*
X170186850Y-82150356D01*
X170186850Y-82150355D01*
X170185449Y-82141038D01*
X170182321Y-82134525D01*
X170181025Y-82127427D01*
X170153972Y-82075347D01*
X170152223Y-82071845D01*
X170130887Y-82027413D01*
X170130886Y-82027412D01*
X170126809Y-82018921D01*
X170121923Y-82013636D01*
X170121892Y-82013589D01*
X170118579Y-82007211D01*
X170114275Y-82002172D01*
X170077048Y-81964945D01*
X170073618Y-81961379D01*
X170042348Y-81927551D01*
X170034854Y-81919444D01*
X170028495Y-81915751D01*
X170022337Y-81910234D01*
X168584032Y-80471929D01*
X168577674Y-80465081D01*
X168555056Y-80438831D01*
X168555051Y-80438827D01*
X168549193Y-80432028D01*
X168509689Y-80406423D01*
X168503367Y-80402045D01*
X168470763Y-80377963D01*
X168470758Y-80377960D01*
X168463184Y-80372366D01*
X168454297Y-80369245D01*
X168452548Y-80368319D01*
X168448147Y-80366534D01*
X168440906Y-80361841D01*
X168432308Y-80359270D01*
X168432307Y-80359269D01*
X168391895Y-80347183D01*
X168386262Y-80345353D01*
X168354682Y-80334263D01*
X168344252Y-80330600D01*
X168344249Y-80330600D01*
X168335369Y-80327481D01*
X168325962Y-80327111D01*
X168323815Y-80326702D01*
X168323227Y-80326647D01*
X168317273Y-80324866D01*
X168308298Y-80324811D01*
X168308296Y-80324811D01*
X168287056Y-80324682D01*
X168261975Y-80324529D01*
X168257830Y-80324434D01*
X168200006Y-80322162D01*
X168192677Y-80324105D01*
X168188231Y-80324078D01*
X168152595Y-80334263D01*
X168131020Y-80340429D01*
X168128687Y-80341072D01*
X168078170Y-80354466D01*
X168078168Y-80354467D01*
X168069063Y-80356881D01*
X168065348Y-80359198D01*
X168064155Y-80359539D01*
X168050240Y-80368319D01*
X168009075Y-80394292D01*
X168008515Y-80394642D01*
X167954118Y-80428567D01*
X167912026Y-80477075D01*
X167911459Y-80477722D01*
X167869596Y-80525122D01*
X167868728Y-80526970D01*
X167865333Y-80530883D01*
X167861526Y-80539494D01*
X167861523Y-80539499D01*
X167840773Y-80586437D01*
X167839596Y-80589019D01*
X167814754Y-80641932D01*
X167813946Y-80647118D01*
X167810558Y-80654783D01*
X167809452Y-80664131D01*
X167809451Y-80664133D01*
X167803871Y-80711279D01*
X167803244Y-80715852D01*
X167796282Y-80760568D01*
X167794901Y-80769440D01*
X167795787Y-80776215D01*
X167795678Y-80777885D01*
X167795743Y-80779954D01*
X167794636Y-80789310D01*
X164764000Y-80789310D01*
X164764000Y-77428259D01*
X164784002Y-77360138D01*
X164796585Y-77343704D01*
X164871300Y-77261161D01*
X164871303Y-77261157D01*
X164877322Y-77254507D01*
X164933588Y-77138375D01*
X164954997Y-77011120D01*
X164955133Y-77000000D01*
X164936839Y-76872259D01*
X164930724Y-76858809D01*
X164887145Y-76762962D01*
X164887143Y-76762959D01*
X164883428Y-76754788D01*
X164823822Y-76685611D01*
X164805051Y-76663826D01*
X164805049Y-76663824D01*
X164799193Y-76657028D01*
X164690906Y-76586841D01*
X164682311Y-76584271D01*
X164682310Y-76584270D01*
X164575874Y-76552438D01*
X164575872Y-76552438D01*
X164567273Y-76549866D01*
X164558298Y-76549811D01*
X164558297Y-76549811D01*
X164503641Y-76549477D01*
X164438231Y-76549078D01*
X164426475Y-76552438D01*
X164322786Y-76582072D01*
X164322784Y-76582073D01*
X164314155Y-76584539D01*
X164306565Y-76589328D01*
X164220534Y-76643610D01*
X164205019Y-76653399D01*
X164199076Y-76660128D01*
X164199075Y-76660129D01*
X164152132Y-76713282D01*
X164119596Y-76750122D01*
X164115782Y-76758245D01*
X164115781Y-76758247D01*
X164110533Y-76769425D01*
X164064754Y-76866932D01*
X164063374Y-76875798D01*
X164046282Y-76985567D01*
X164046282Y-76985571D01*
X164044901Y-76994440D01*
X164046065Y-77003342D01*
X164046065Y-77003345D01*
X164060468Y-77113489D01*
X164060469Y-77113493D01*
X164061633Y-77122394D01*
X164113605Y-77240510D01*
X164119382Y-77247383D01*
X164119383Y-77247384D01*
X164125371Y-77254507D01*
X164196174Y-77338737D01*
X164196174Y-77338738D01*
X164196639Y-77339291D01*
X164196559Y-77339358D01*
X164231434Y-77395525D01*
X164236000Y-77429139D01*
X164236000Y-81838456D01*
X164215998Y-81906577D01*
X164199096Y-81927551D01*
X163927553Y-82199095D01*
X163865240Y-82233120D01*
X163838457Y-82236000D01*
X162163406Y-82236000D01*
X162138826Y-82233579D01*
X162137172Y-82233250D01*
X162125000Y-82230829D01*
X162112828Y-82233250D01*
X162099007Y-82235999D01*
X162098999Y-82236000D01*
X162098996Y-82236000D01*
X162098991Y-82236001D01*
X162034162Y-82248896D01*
X162034161Y-82248897D01*
X162021992Y-82251317D01*
X161987535Y-82274341D01*
X161956713Y-82294936D01*
X161956712Y-82294937D01*
X161944985Y-82302773D01*
X161934667Y-82309667D01*
X161926828Y-82321399D01*
X161911162Y-82340486D01*
X161590486Y-82661162D01*
X161571399Y-82676828D01*
X161559667Y-82684667D01*
X161544938Y-82706710D01*
X161501317Y-82771992D01*
X161498897Y-82784161D01*
X161498896Y-82784162D01*
X161484048Y-82858811D01*
X161480828Y-82875000D01*
X161483249Y-82887171D01*
X161483249Y-82887173D01*
X161483579Y-82888832D01*
X161486000Y-82913412D01*
X161486000Y-89338456D01*
X161465998Y-89406577D01*
X161449096Y-89427551D01*
X161177553Y-89699095D01*
X161115240Y-89733120D01*
X161088457Y-89736000D01*
X150378690Y-89736000D01*
X150310569Y-89715998D01*
X150264076Y-89662342D01*
X150253972Y-89592068D01*
X150283308Y-89527669D01*
X150307192Y-89500000D01*
X150377564Y-89418472D01*
X150384322Y-89406577D01*
X150476276Y-89244707D01*
X150479323Y-89239344D01*
X150544351Y-89043863D01*
X150570171Y-88839474D01*
X150570583Y-88810000D01*
X150550480Y-88604970D01*
X150490935Y-88407749D01*
X150394218Y-88225849D01*
X150320859Y-88135902D01*
X150267906Y-88070975D01*
X150267903Y-88070972D01*
X150264011Y-88066200D01*
X150246786Y-88051950D01*
X150110025Y-87938811D01*
X150110021Y-87938809D01*
X150105275Y-87934882D01*
X149924055Y-87836897D01*
X149727254Y-87775977D01*
X149721129Y-87775333D01*
X149721128Y-87775333D01*
X149528498Y-87755087D01*
X149528496Y-87755087D01*
X149522369Y-87754443D01*
X149435529Y-87762346D01*
X149323342Y-87772555D01*
X149323339Y-87772556D01*
X149317203Y-87773114D01*
X149119572Y-87831280D01*
X148937002Y-87926726D01*
X148932201Y-87930586D01*
X148932198Y-87930588D01*
X148921971Y-87938811D01*
X148776447Y-88055815D01*
X148644024Y-88213630D01*
X148641056Y-88219028D01*
X148641053Y-88219033D01*
X148634315Y-88231290D01*
X148544776Y-88394162D01*
X148482484Y-88590532D01*
X148481798Y-88596649D01*
X148481797Y-88596653D01*
X148460207Y-88789137D01*
X148459520Y-88795262D01*
X148476759Y-89000553D01*
X148533544Y-89198586D01*
X148536359Y-89204063D01*
X148536360Y-89204066D01*
X148557247Y-89244707D01*
X148627712Y-89381818D01*
X148631538Y-89386645D01*
X148746535Y-89531736D01*
X148773172Y-89597546D01*
X148760001Y-89667310D01*
X148711204Y-89718879D01*
X148647789Y-89736000D01*
X148363406Y-89736000D01*
X148338826Y-89733579D01*
X148337172Y-89733250D01*
X148325000Y-89730829D01*
X148312828Y-89733250D01*
X148299007Y-89735999D01*
X148298999Y-89736000D01*
X148298996Y-89736000D01*
X148298991Y-89736001D01*
X148234162Y-89748896D01*
X148234161Y-89748897D01*
X148221992Y-89751317D01*
X148134667Y-89809667D01*
X148126828Y-89821399D01*
X148111162Y-89840486D01*
X147574237Y-90377411D01*
X147511925Y-90411437D01*
X147441110Y-90406372D01*
X147425221Y-90399155D01*
X147384055Y-90376897D01*
X147187254Y-90315977D01*
X147181129Y-90315333D01*
X147181128Y-90315333D01*
X146988498Y-90295087D01*
X146988496Y-90295087D01*
X146982369Y-90294443D01*
X146895529Y-90302346D01*
X146783342Y-90312555D01*
X146783339Y-90312556D01*
X146777203Y-90313114D01*
X146579572Y-90371280D01*
X146574107Y-90374137D01*
X146563223Y-90379827D01*
X146397002Y-90466726D01*
X146392201Y-90470586D01*
X146392198Y-90470588D01*
X146381971Y-90478811D01*
X146236447Y-90595815D01*
X146104024Y-90753630D01*
X146101056Y-90759028D01*
X146101053Y-90759033D01*
X146062181Y-90829742D01*
X146004776Y-90934162D01*
X145942484Y-91130532D01*
X145941798Y-91136649D01*
X145941797Y-91136653D01*
X145920207Y-91329137D01*
X145919520Y-91335262D01*
X145579000Y-91335262D01*
X145579000Y-88795262D01*
X145919520Y-88795262D01*
X145936759Y-89000553D01*
X145993544Y-89198586D01*
X145996359Y-89204063D01*
X145996360Y-89204066D01*
X146017247Y-89244707D01*
X146087712Y-89381818D01*
X146215677Y-89543270D01*
X146220370Y-89547264D01*
X146220371Y-89547265D01*
X146362584Y-89668297D01*
X146372564Y-89676791D01*
X146377942Y-89679797D01*
X146377944Y-89679798D01*
X146447871Y-89718879D01*
X146552398Y-89777297D01*
X146630808Y-89802774D01*
X146742471Y-89839056D01*
X146742475Y-89839057D01*
X146748329Y-89840959D01*
X146952894Y-89865351D01*
X146959029Y-89864879D01*
X146959031Y-89864879D01*
X147015039Y-89860569D01*
X147158300Y-89849546D01*
X147164230Y-89847890D01*
X147164232Y-89847890D01*
X147350797Y-89795800D01*
X147350796Y-89795800D01*
X147356725Y-89794145D01*
X147362214Y-89791372D01*
X147362220Y-89791370D01*
X147535116Y-89704033D01*
X147540610Y-89701258D01*
X147554594Y-89690333D01*
X147673356Y-89597546D01*
X147702951Y-89574424D01*
X147743309Y-89527669D01*
X147833540Y-89423134D01*
X147833540Y-89423133D01*
X147837564Y-89418472D01*
X147844322Y-89406577D01*
X147936276Y-89244707D01*
X147939323Y-89239344D01*
X148004351Y-89043863D01*
X148030171Y-88839474D01*
X148030583Y-88810000D01*
X148010480Y-88604970D01*
X147950935Y-88407749D01*
X147854218Y-88225849D01*
X147780859Y-88135902D01*
X147727906Y-88070975D01*
X147727903Y-88070972D01*
X147724011Y-88066200D01*
X147706786Y-88051950D01*
X147570025Y-87938811D01*
X147570021Y-87938809D01*
X147565275Y-87934882D01*
X147384055Y-87836897D01*
X147187254Y-87775977D01*
X147181129Y-87775333D01*
X147181128Y-87775333D01*
X146988498Y-87755087D01*
X146988496Y-87755087D01*
X146982369Y-87754443D01*
X146895529Y-87762346D01*
X146783342Y-87772555D01*
X146783339Y-87772556D01*
X146777203Y-87773114D01*
X146579572Y-87831280D01*
X146397002Y-87926726D01*
X146392201Y-87930586D01*
X146392198Y-87930588D01*
X146381971Y-87938811D01*
X146236447Y-88055815D01*
X146104024Y-88213630D01*
X146101056Y-88219028D01*
X146101053Y-88219033D01*
X146094315Y-88231290D01*
X146004776Y-88394162D01*
X145942484Y-88590532D01*
X145941798Y-88596649D01*
X145941797Y-88596653D01*
X145920207Y-88789137D01*
X145919520Y-88795262D01*
X145579000Y-88795262D01*
X145579000Y-86255262D01*
X145919520Y-86255262D01*
X145936759Y-86460553D01*
X145938458Y-86466478D01*
X145990065Y-86646452D01*
X145993544Y-86658586D01*
X145996359Y-86664063D01*
X145996360Y-86664066D01*
X146081816Y-86830346D01*
X146087712Y-86841818D01*
X146215677Y-87003270D01*
X146372564Y-87136791D01*
X146552398Y-87237297D01*
X146647238Y-87268113D01*
X146742471Y-87299056D01*
X146742475Y-87299057D01*
X146748329Y-87300959D01*
X146952894Y-87325351D01*
X146959029Y-87324879D01*
X146959031Y-87324879D01*
X147015039Y-87320569D01*
X147158300Y-87309546D01*
X147164230Y-87307890D01*
X147164232Y-87307890D01*
X147350797Y-87255800D01*
X147350796Y-87255800D01*
X147356725Y-87254145D01*
X147362214Y-87251372D01*
X147362220Y-87251370D01*
X147535116Y-87164033D01*
X147540610Y-87161258D01*
X147702951Y-87034424D01*
X147774416Y-86951631D01*
X147833540Y-86883134D01*
X147833540Y-86883133D01*
X147837564Y-86878472D01*
X147858387Y-86841818D01*
X147884592Y-86795687D01*
X147939323Y-86699344D01*
X148004351Y-86503863D01*
X148030171Y-86299474D01*
X148030583Y-86270000D01*
X148010480Y-86064970D01*
X147952717Y-85873649D01*
X147952716Y-85873647D01*
X147950935Y-85867749D01*
X147950076Y-85866134D01*
X147942771Y-85797023D01*
X147977634Y-85730521D01*
X148343750Y-85364405D01*
X148406062Y-85330379D01*
X148432845Y-85327500D01*
X148664255Y-85327500D01*
X148732376Y-85347502D01*
X148778869Y-85401158D01*
X148788973Y-85471432D01*
X148760776Y-85534491D01*
X148644024Y-85673630D01*
X148641056Y-85679028D01*
X148641053Y-85679033D01*
X148583432Y-85783846D01*
X148544776Y-85854162D01*
X148482484Y-86050532D01*
X148481798Y-86056649D01*
X148481797Y-86056653D01*
X148460207Y-86249137D01*
X148459520Y-86255262D01*
X148476759Y-86460553D01*
X148478458Y-86466478D01*
X148530065Y-86646452D01*
X148533544Y-86658586D01*
X148536359Y-86664063D01*
X148536360Y-86664066D01*
X148621816Y-86830346D01*
X148627712Y-86841818D01*
X148755677Y-87003270D01*
X148912564Y-87136791D01*
X149092398Y-87237297D01*
X149187238Y-87268113D01*
X149282471Y-87299056D01*
X149282475Y-87299057D01*
X149288329Y-87300959D01*
X149492894Y-87325351D01*
X149499029Y-87324879D01*
X149499031Y-87324879D01*
X149555039Y-87320569D01*
X149698300Y-87309546D01*
X149704230Y-87307890D01*
X149704232Y-87307890D01*
X149890797Y-87255800D01*
X149890796Y-87255800D01*
X149896725Y-87254145D01*
X149902214Y-87251372D01*
X149902220Y-87251370D01*
X150075116Y-87164033D01*
X150080610Y-87161258D01*
X150242951Y-87034424D01*
X150314416Y-86951631D01*
X150373540Y-86883134D01*
X150373540Y-86883133D01*
X150377564Y-86878472D01*
X150398387Y-86841818D01*
X150424592Y-86795687D01*
X150479323Y-86699344D01*
X150544351Y-86503863D01*
X150570171Y-86299474D01*
X150570583Y-86270000D01*
X150550480Y-86064970D01*
X150513787Y-85943438D01*
X150513246Y-85872444D01*
X150551173Y-85812427D01*
X150615528Y-85782443D01*
X150634409Y-85781020D01*
X155793060Y-85781020D01*
X155804043Y-85781500D01*
X155830853Y-85783846D01*
X155830854Y-85783846D01*
X155841838Y-85784807D01*
X155878498Y-85774984D01*
X155889221Y-85772607D01*
X155891544Y-85772197D01*
X155926593Y-85766017D01*
X155936139Y-85760506D01*
X155939507Y-85759280D01*
X155942753Y-85757766D01*
X155953397Y-85754914D01*
X155984489Y-85733143D01*
X155993748Y-85727245D01*
X156017065Y-85713783D01*
X156026614Y-85708270D01*
X156051009Y-85679197D01*
X156058435Y-85671093D01*
X156921100Y-84808429D01*
X156929204Y-84801003D01*
X156958270Y-84776614D01*
X156977243Y-84743752D01*
X156983146Y-84734487D01*
X156998591Y-84712428D01*
X156998592Y-84712426D01*
X157004914Y-84703397D01*
X157007766Y-84692753D01*
X157009280Y-84689507D01*
X157010506Y-84686139D01*
X157016017Y-84676593D01*
X157022607Y-84639221D01*
X157024986Y-84628489D01*
X157031954Y-84602485D01*
X157034807Y-84591838D01*
X157031500Y-84554043D01*
X157031020Y-84543060D01*
X157031020Y-83494440D01*
X157544901Y-83494440D01*
X157546065Y-83503342D01*
X157546065Y-83503345D01*
X157560468Y-83613489D01*
X157560469Y-83613493D01*
X157561633Y-83622394D01*
X157565250Y-83630614D01*
X157608981Y-83730000D01*
X157613605Y-83740510D01*
X157619382Y-83747383D01*
X157619383Y-83747384D01*
X157671114Y-83808925D01*
X157696639Y-83839291D01*
X157804060Y-83910796D01*
X157927233Y-83949278D01*
X157936203Y-83949442D01*
X157936207Y-83949443D01*
X157994942Y-83950519D01*
X158056255Y-83951643D01*
X158118505Y-83934671D01*
X158172092Y-83920062D01*
X158172093Y-83920062D01*
X158180755Y-83917700D01*
X158188405Y-83913003D01*
X158188407Y-83913002D01*
X158283072Y-83854878D01*
X158283075Y-83854875D01*
X158290724Y-83850179D01*
X158300580Y-83839291D01*
X158331215Y-83805445D01*
X158391758Y-83768364D01*
X158424630Y-83764000D01*
X158824662Y-83764000D01*
X158892783Y-83784002D01*
X158921113Y-83808925D01*
X158940861Y-83832418D01*
X158940863Y-83832420D01*
X158946639Y-83839291D01*
X159054060Y-83910796D01*
X159177233Y-83949278D01*
X159186203Y-83949442D01*
X159186207Y-83949443D01*
X159244942Y-83950519D01*
X159306255Y-83951643D01*
X159368505Y-83934671D01*
X159422092Y-83920062D01*
X159422093Y-83920062D01*
X159430755Y-83917700D01*
X159438405Y-83913003D01*
X159438407Y-83913002D01*
X159533072Y-83854878D01*
X159533075Y-83854875D01*
X159540724Y-83850179D01*
X159546750Y-83843522D01*
X159621300Y-83761161D01*
X159621303Y-83761157D01*
X159627322Y-83754507D01*
X159683588Y-83638375D01*
X159704997Y-83511120D01*
X159705133Y-83500000D01*
X159686839Y-83372259D01*
X159669284Y-83333649D01*
X159637145Y-83262962D01*
X159637143Y-83262959D01*
X159633428Y-83254788D01*
X159580540Y-83193408D01*
X159555051Y-83163826D01*
X159555049Y-83163824D01*
X159549193Y-83157028D01*
X159440906Y-83086841D01*
X159432311Y-83084271D01*
X159432310Y-83084270D01*
X159325874Y-83052438D01*
X159325872Y-83052438D01*
X159317273Y-83049866D01*
X159308298Y-83049811D01*
X159308297Y-83049811D01*
X159253641Y-83049477D01*
X159188231Y-83049078D01*
X159176475Y-83052438D01*
X159072786Y-83082072D01*
X159072784Y-83082073D01*
X159064155Y-83084539D01*
X159056565Y-83089328D01*
X158967968Y-83145229D01*
X158955019Y-83153399D01*
X158931554Y-83179968D01*
X158919684Y-83193408D01*
X158859598Y-83231226D01*
X158825243Y-83236000D01*
X158424993Y-83236000D01*
X158356872Y-83215998D01*
X158329539Y-83192247D01*
X158299193Y-83157028D01*
X158190906Y-83086841D01*
X158182311Y-83084271D01*
X158182310Y-83084270D01*
X158075874Y-83052438D01*
X158075872Y-83052438D01*
X158067273Y-83049866D01*
X158058298Y-83049811D01*
X158058297Y-83049811D01*
X158003641Y-83049477D01*
X157938231Y-83049078D01*
X157926475Y-83052438D01*
X157822786Y-83082072D01*
X157822784Y-83082073D01*
X157814155Y-83084539D01*
X157806565Y-83089328D01*
X157717968Y-83145229D01*
X157705019Y-83153399D01*
X157699076Y-83160128D01*
X157699075Y-83160129D01*
X157669684Y-83193408D01*
X157619596Y-83250122D01*
X157615782Y-83258245D01*
X157615781Y-83258247D01*
X157611534Y-83267293D01*
X157564754Y-83366932D01*
X157563374Y-83375798D01*
X157546282Y-83485567D01*
X157546282Y-83485571D01*
X157544901Y-83494440D01*
X157031020Y-83494440D01*
X157031020Y-83234324D01*
X157051022Y-83166203D01*
X157067925Y-83145229D01*
X157395229Y-82817925D01*
X157457541Y-82783899D01*
X157484324Y-82781020D01*
X158418060Y-82781020D01*
X158429043Y-82781500D01*
X158455853Y-82783846D01*
X158455854Y-82783846D01*
X158466838Y-82784807D01*
X158503498Y-82774984D01*
X158514221Y-82772607D01*
X158516544Y-82772197D01*
X158551593Y-82766017D01*
X158561139Y-82760506D01*
X158564507Y-82759280D01*
X158567753Y-82757766D01*
X158578397Y-82754914D01*
X158609489Y-82733143D01*
X158618748Y-82727245D01*
X158642065Y-82713783D01*
X158651614Y-82708270D01*
X158676014Y-82679191D01*
X158683441Y-82671087D01*
X160171093Y-81183436D01*
X160179197Y-81176009D01*
X160199825Y-81158700D01*
X160208270Y-81151614D01*
X160223441Y-81125338D01*
X160227243Y-81118752D01*
X160233148Y-81109482D01*
X160248592Y-81087426D01*
X160248592Y-81087425D01*
X160254914Y-81078397D01*
X160257768Y-81067748D01*
X160259282Y-81064501D01*
X160260504Y-81061142D01*
X160266017Y-81051593D01*
X160272607Y-81014217D01*
X160274987Y-81003484D01*
X160281953Y-80977488D01*
X160281953Y-80977485D01*
X160284806Y-80966839D01*
X160281499Y-80929040D01*
X160281020Y-80918058D01*
X160281020Y-78297841D01*
X160301022Y-78229720D01*
X160317925Y-78208745D01*
X160598751Y-77927920D01*
X160661063Y-77893895D01*
X160687846Y-77891016D01*
X162256509Y-77891016D01*
X162267492Y-77891496D01*
X162294302Y-77893842D01*
X162294303Y-77893842D01*
X162305287Y-77894803D01*
X162341947Y-77884980D01*
X162352670Y-77882603D01*
X162354993Y-77882193D01*
X162390042Y-77876013D01*
X162399588Y-77870502D01*
X162402956Y-77869276D01*
X162406202Y-77867762D01*
X162416846Y-77864910D01*
X162447938Y-77843139D01*
X162457197Y-77837241D01*
X162480514Y-77823779D01*
X162490063Y-77818266D01*
X162514463Y-77789187D01*
X162521890Y-77781083D01*
X162844561Y-77458412D01*
X162900511Y-77425945D01*
X162930755Y-77417700D01*
X162966871Y-77395525D01*
X163033072Y-77354878D01*
X163033075Y-77354875D01*
X163040724Y-77350179D01*
X163050519Y-77339358D01*
X163121300Y-77261161D01*
X163121303Y-77261157D01*
X163127322Y-77254507D01*
X163183588Y-77138375D01*
X163204997Y-77011120D01*
X163205133Y-77000000D01*
X163186839Y-76872259D01*
X163180724Y-76858809D01*
X163137145Y-76762962D01*
X163137143Y-76762959D01*
X163133428Y-76754788D01*
X163073822Y-76685611D01*
X163055051Y-76663826D01*
X163055049Y-76663824D01*
X163049193Y-76657028D01*
X162940906Y-76586841D01*
X162932311Y-76584271D01*
X162932310Y-76584270D01*
X162825874Y-76552438D01*
X162825872Y-76552438D01*
X162817273Y-76549866D01*
X162808298Y-76549811D01*
X162808297Y-76549811D01*
X162753641Y-76549477D01*
X162688231Y-76549078D01*
X162676475Y-76552438D01*
X162572786Y-76582072D01*
X162572784Y-76582073D01*
X162564155Y-76584539D01*
X162556565Y-76589328D01*
X162556561Y-76589330D01*
X162470532Y-76643610D01*
X162402247Y-76663044D01*
X162334766Y-76642781D01*
X162235941Y-76578727D01*
X162235936Y-76578725D01*
X162228409Y-76573846D01*
X162219814Y-76571276D01*
X162219813Y-76571275D01*
X162113377Y-76539443D01*
X162113375Y-76539443D01*
X162104776Y-76536871D01*
X162095801Y-76536816D01*
X162095800Y-76536816D01*
X162041144Y-76536482D01*
X161975734Y-76536083D01*
X161930073Y-76549133D01*
X161860289Y-76569077D01*
X161860287Y-76569078D01*
X161851658Y-76571544D01*
X161844068Y-76576333D01*
X161743056Y-76640067D01*
X161675820Y-76659505D01*
X160454933Y-76659505D01*
X160443951Y-76659026D01*
X160406152Y-76655719D01*
X160395506Y-76658572D01*
X160395503Y-76658572D01*
X160369507Y-76665538D01*
X160358774Y-76667918D01*
X160351404Y-76669218D01*
X160321398Y-76674508D01*
X160311849Y-76680021D01*
X160308490Y-76681243D01*
X160305243Y-76682757D01*
X160294594Y-76685611D01*
X160285566Y-76691933D01*
X160285565Y-76691933D01*
X160263509Y-76707377D01*
X160254239Y-76713282D01*
X160230925Y-76726742D01*
X160230923Y-76726744D01*
X160221377Y-76732255D01*
X160214291Y-76740700D01*
X160196988Y-76761321D01*
X160189562Y-76769425D01*
X159282427Y-77676561D01*
X159274323Y-77683987D01*
X159245250Y-77708382D01*
X159239737Y-77717931D01*
X159226275Y-77741248D01*
X159220377Y-77750507D01*
X159198606Y-77781599D01*
X159195754Y-77792243D01*
X159194240Y-77795489D01*
X159193014Y-77798857D01*
X159187503Y-77808403D01*
X159185589Y-77819259D01*
X159180913Y-77845775D01*
X159178536Y-77856498D01*
X159168713Y-77893158D01*
X159169674Y-77904141D01*
X159172020Y-77930953D01*
X159172500Y-77941936D01*
X159172500Y-80562155D01*
X159152498Y-80630276D01*
X159135595Y-80651250D01*
X158151251Y-81635595D01*
X158088939Y-81669620D01*
X158062156Y-81672500D01*
X157128435Y-81672500D01*
X157117453Y-81672021D01*
X157090619Y-81669673D01*
X157090617Y-81669673D01*
X157079642Y-81668713D01*
X157042973Y-81678538D01*
X157032259Y-81680913D01*
X156994887Y-81687503D01*
X156985338Y-81693017D01*
X156981966Y-81694244D01*
X156978732Y-81695752D01*
X156968083Y-81698605D01*
X156936987Y-81720378D01*
X156927740Y-81726270D01*
X156894866Y-81745250D01*
X156887780Y-81753695D01*
X156870476Y-81774318D01*
X156863048Y-81782424D01*
X156032433Y-82613039D01*
X156024329Y-82620466D01*
X155995250Y-82644866D01*
X155989737Y-82654415D01*
X155976275Y-82677732D01*
X155970377Y-82686991D01*
X155948606Y-82718083D01*
X155945754Y-82728727D01*
X155944240Y-82731973D01*
X155943014Y-82735341D01*
X155937503Y-82744887D01*
X155932615Y-82772607D01*
X155930913Y-82782259D01*
X155928536Y-82792982D01*
X155918713Y-82829642D01*
X155919674Y-82840625D01*
X155922020Y-82867437D01*
X155922500Y-82878420D01*
X155922500Y-84187154D01*
X155902498Y-84255275D01*
X155885596Y-84276249D01*
X155526251Y-84635595D01*
X155463938Y-84669620D01*
X155437155Y-84672500D01*
X150364448Y-84672500D01*
X150296327Y-84652498D01*
X150249834Y-84598842D01*
X150239730Y-84528568D01*
X150269066Y-84464169D01*
X150373540Y-84343134D01*
X150373540Y-84343133D01*
X150377564Y-84338472D01*
X150398387Y-84301818D01*
X150416056Y-84270714D01*
X150479323Y-84159344D01*
X150505642Y-84080227D01*
X150546124Y-84021903D01*
X150611712Y-83994724D01*
X150625200Y-83994000D01*
X152981588Y-83994000D01*
X153006168Y-83996421D01*
X153007827Y-83996751D01*
X153007829Y-83996751D01*
X153020000Y-83999172D01*
X153032171Y-83996751D01*
X153033831Y-83996421D01*
X153046002Y-83994000D01*
X153110838Y-83981104D01*
X153110839Y-83981103D01*
X153123008Y-83978683D01*
X153210333Y-83920333D01*
X153218172Y-83908601D01*
X153233838Y-83889514D01*
X153832554Y-83290798D01*
X153851641Y-83275132D01*
X153863373Y-83267293D01*
X153921723Y-83179968D01*
X153928510Y-83145849D01*
X153937040Y-83102962D01*
X153937040Y-83102958D01*
X153939790Y-83089132D01*
X153942211Y-83076960D01*
X153939461Y-83063134D01*
X153937040Y-83038554D01*
X153937040Y-81113502D01*
X153957042Y-81045381D01*
X153973945Y-81024407D01*
X154120927Y-80877425D01*
X154183239Y-80843399D01*
X154210022Y-80840520D01*
X157096838Y-80840520D01*
X157121418Y-80842941D01*
X157123077Y-80843271D01*
X157123079Y-80843271D01*
X157135250Y-80845692D01*
X157147421Y-80843271D01*
X157149081Y-80842941D01*
X157161252Y-80840520D01*
X157226088Y-80827624D01*
X157226089Y-80827623D01*
X157238258Y-80825203D01*
X157325583Y-80766853D01*
X157333422Y-80755121D01*
X157349088Y-80736034D01*
X158159514Y-79925608D01*
X158178601Y-79909942D01*
X158190333Y-79902103D01*
X158248683Y-79814778D01*
X158264000Y-79737772D01*
X158264000Y-79737768D01*
X158269171Y-79711770D01*
X158266421Y-79697944D01*
X158264000Y-79673364D01*
X158264000Y-76161542D01*
X158284002Y-76093421D01*
X158300905Y-76072447D01*
X158495927Y-75877425D01*
X158558239Y-75843399D01*
X158585022Y-75840520D01*
X159596837Y-75840520D01*
X159621417Y-75842941D01*
X159623076Y-75843271D01*
X159623078Y-75843271D01*
X159635249Y-75845692D01*
X159647420Y-75843271D01*
X159649080Y-75842941D01*
X159661251Y-75840520D01*
X159726083Y-75827625D01*
X159726085Y-75827624D01*
X159738257Y-75825203D01*
X159764249Y-75807835D01*
X159764251Y-75807834D01*
X159783894Y-75794709D01*
X159803539Y-75781583D01*
X159803542Y-75781580D01*
X159825582Y-75766853D01*
X159833419Y-75755124D01*
X159849085Y-75736037D01*
X160236034Y-75349088D01*
X160255121Y-75333422D01*
X160266853Y-75325583D01*
X160325203Y-75238258D01*
X160333178Y-75198167D01*
X160340520Y-75161252D01*
X160343271Y-75147421D01*
X160345692Y-75135250D01*
X160342941Y-75121418D01*
X160340520Y-75096838D01*
X160340520Y-72525022D01*
X160360522Y-72456901D01*
X160377425Y-72435927D01*
X160575102Y-72238250D01*
X160637414Y-72204224D01*
X160708229Y-72209289D01*
X160725662Y-72217355D01*
X160752398Y-72232297D01*
X160813804Y-72252249D01*
X160942471Y-72294056D01*
X160942475Y-72294057D01*
X160948329Y-72295959D01*
X161152894Y-72320351D01*
X161159029Y-72319879D01*
X161159031Y-72319879D01*
X161215039Y-72315569D01*
X161358300Y-72304546D01*
X161364230Y-72302890D01*
X161364232Y-72302890D01*
X161488104Y-72268304D01*
X161556725Y-72249145D01*
X161562214Y-72246372D01*
X161562220Y-72246370D01*
X161694952Y-72179322D01*
X161740610Y-72156258D01*
X161902951Y-72029424D01*
X161966443Y-71955868D01*
X162033540Y-71878134D01*
X162033540Y-71878133D01*
X162037564Y-71873472D01*
X162055642Y-71841650D01*
X162117839Y-71732163D01*
X162139323Y-71694344D01*
X162204351Y-71498863D01*
X162230171Y-71294474D01*
X162230583Y-71265000D01*
X162229138Y-71250262D01*
X162659520Y-71250262D01*
X162676759Y-71455553D01*
X162678458Y-71461478D01*
X162718886Y-71602466D01*
X162733544Y-71653586D01*
X162736359Y-71659063D01*
X162736360Y-71659066D01*
X162824896Y-71831339D01*
X162827712Y-71836818D01*
X162955677Y-71998270D01*
X162960370Y-72002264D01*
X162960371Y-72002265D01*
X163076989Y-72101514D01*
X163112564Y-72131791D01*
X163117942Y-72134797D01*
X163117944Y-72134798D01*
X163139201Y-72146678D01*
X163292398Y-72232297D01*
X163353804Y-72252249D01*
X163482471Y-72294056D01*
X163482475Y-72294057D01*
X163488329Y-72295959D01*
X163692894Y-72320351D01*
X163699029Y-72319879D01*
X163699031Y-72319879D01*
X163755039Y-72315569D01*
X163898300Y-72304546D01*
X163904230Y-72302890D01*
X163904232Y-72302890D01*
X163997513Y-72276845D01*
X164096725Y-72249145D01*
X164167507Y-72213390D01*
X164237326Y-72200531D01*
X164303017Y-72227460D01*
X164313410Y-72236762D01*
X164449095Y-72372447D01*
X164483121Y-72434759D01*
X164486000Y-72461542D01*
X164486000Y-74961588D01*
X164483579Y-74986168D01*
X164480828Y-75000000D01*
X164486000Y-75026002D01*
X164501317Y-75103008D01*
X164559667Y-75190333D01*
X164571396Y-75198170D01*
X164590484Y-75213836D01*
X165036167Y-75659520D01*
X165051832Y-75678607D01*
X165059667Y-75690333D01*
X165081707Y-75705060D01*
X165081710Y-75705063D01*
X165146992Y-75748683D01*
X165250000Y-75769172D01*
X165262171Y-75766751D01*
X165262173Y-75766751D01*
X165263832Y-75766421D01*
X165288412Y-75764000D01*
X175838457Y-75764000D01*
X175906578Y-75784002D01*
X175927553Y-75800905D01*
X176199096Y-76072449D01*
X176233121Y-76134761D01*
X176236000Y-76161544D01*
X176236000Y-80461588D01*
X176233579Y-80486168D01*
X176230828Y-80500000D01*
X176233249Y-80512171D01*
X176236000Y-80526002D01*
X176248820Y-80590452D01*
X176251317Y-80603008D01*
X176309667Y-80690333D01*
X176321399Y-80698172D01*
X176340486Y-80713838D01*
X176976162Y-81349514D01*
X176991828Y-81368601D01*
X176999667Y-81380333D01*
X177086992Y-81438683D01*
X177099161Y-81441103D01*
X177099162Y-81441104D01*
X177163991Y-81453999D01*
X177163996Y-81454000D01*
X177163999Y-81454000D01*
X177164007Y-81454001D01*
X177190000Y-81459171D01*
X177203826Y-81456421D01*
X177228406Y-81454000D01*
X179362872Y-81454000D01*
X179430993Y-81474002D01*
X179477486Y-81527658D01*
X179483991Y-81545269D01*
X179493544Y-81578586D01*
X179496359Y-81584063D01*
X179496360Y-81584066D01*
X179569445Y-81726275D01*
X179587712Y-81761818D01*
X179715677Y-81923270D01*
X179720370Y-81927264D01*
X179720371Y-81927265D01*
X179826622Y-82017691D01*
X179872564Y-82056791D01*
X179877942Y-82059797D01*
X179877944Y-82059798D01*
X179933480Y-82090836D01*
X180052398Y-82157297D01*
X180122326Y-82180018D01*
X180242471Y-82219056D01*
X180242475Y-82219057D01*
X180248329Y-82220959D01*
X180452894Y-82245351D01*
X180459029Y-82244879D01*
X180459031Y-82244879D01*
X180515039Y-82240569D01*
X180658300Y-82229546D01*
X180664230Y-82227890D01*
X180664232Y-82227890D01*
X180850797Y-82175800D01*
X180850796Y-82175800D01*
X180856725Y-82174145D01*
X180862214Y-82171372D01*
X180862220Y-82171370D01*
X180997552Y-82103008D01*
X181040610Y-82081258D01*
X181054653Y-82070287D01*
X181177897Y-81973998D01*
X181202951Y-81954424D01*
X181241095Y-81910234D01*
X181333540Y-81803134D01*
X181333540Y-81803133D01*
X181337564Y-81798472D01*
X181351286Y-81774318D01*
X181400603Y-81687503D01*
X181439323Y-81619344D01*
X181504351Y-81423863D01*
X181530171Y-81219474D01*
X181530583Y-81190000D01*
X181510480Y-80984970D01*
X181450935Y-80787749D01*
X181354218Y-80605849D01*
X181243125Y-80469636D01*
X181215571Y-80404204D01*
X181227766Y-80334263D01*
X181275839Y-80282018D01*
X181340768Y-80264000D01*
X181663458Y-80264000D01*
X181731579Y-80284002D01*
X181752553Y-80300905D01*
X182042100Y-80590452D01*
X182076126Y-80652764D01*
X182071061Y-80723579D01*
X182063420Y-80740247D01*
X182047745Y-80768760D01*
X182047743Y-80768765D01*
X182044776Y-80774162D01*
X181982484Y-80970532D01*
X181981798Y-80976649D01*
X181981797Y-80976653D01*
X181961378Y-81158700D01*
X181959520Y-81175262D01*
X181960036Y-81181406D01*
X181975756Y-81368605D01*
X181976759Y-81380553D01*
X181978458Y-81386478D01*
X182018941Y-81527658D01*
X182033544Y-81578586D01*
X182036359Y-81584063D01*
X182036360Y-81584066D01*
X182109445Y-81726275D01*
X182127712Y-81761818D01*
X182255677Y-81923270D01*
X182260370Y-81927264D01*
X182260371Y-81927265D01*
X182366622Y-82017691D01*
X182412564Y-82056791D01*
X182417942Y-82059797D01*
X182417944Y-82059798D01*
X182473480Y-82090836D01*
X182592398Y-82157297D01*
X182662326Y-82180018D01*
X182782471Y-82219056D01*
X182782475Y-82219057D01*
X182788329Y-82220959D01*
X182992894Y-82245351D01*
X182999029Y-82244879D01*
X182999031Y-82244879D01*
X183055039Y-82240569D01*
X183198300Y-82229546D01*
X183204230Y-82227890D01*
X183204232Y-82227890D01*
X183390797Y-82175800D01*
X183390796Y-82175800D01*
X183396725Y-82174145D01*
X183402214Y-82171372D01*
X183402220Y-82171370D01*
X183537552Y-82103008D01*
X183580610Y-82081258D01*
X183594653Y-82070287D01*
X183717897Y-81973998D01*
X183742951Y-81954424D01*
X183781095Y-81910234D01*
X183873540Y-81803134D01*
X183873540Y-81803133D01*
X183877564Y-81798472D01*
X183891286Y-81774318D01*
X183940603Y-81687503D01*
X183979323Y-81619344D01*
X184044351Y-81423863D01*
X184070171Y-81219474D01*
X184070583Y-81190000D01*
X184050480Y-80984970D01*
X183990935Y-80787749D01*
X183894218Y-80605849D01*
X183817816Y-80512171D01*
X183767906Y-80450975D01*
X183767903Y-80450972D01*
X183764011Y-80446200D01*
X183757173Y-80440543D01*
X183610025Y-80318811D01*
X183610021Y-80318809D01*
X183605275Y-80314882D01*
X183467660Y-80240474D01*
X183429474Y-80219827D01*
X183424055Y-80216897D01*
X183227254Y-80155977D01*
X183221129Y-80155333D01*
X183221128Y-80155333D01*
X183028498Y-80135087D01*
X183028496Y-80135087D01*
X183022369Y-80134443D01*
X182935529Y-80142346D01*
X182823342Y-80152555D01*
X182823339Y-80152556D01*
X182817203Y-80153114D01*
X182619572Y-80211280D01*
X182563728Y-80240475D01*
X182494096Y-80254309D01*
X182428035Y-80228300D01*
X182416260Y-80217908D01*
X182038838Y-79840486D01*
X182023172Y-79821399D01*
X182015333Y-79809667D01*
X181928008Y-79751317D01*
X181915839Y-79748897D01*
X181915838Y-79748896D01*
X181851002Y-79736000D01*
X181850997Y-79735999D01*
X181825000Y-79730828D01*
X181812829Y-79733249D01*
X181812827Y-79733249D01*
X181811168Y-79733579D01*
X181786588Y-79736000D01*
X179788406Y-79736000D01*
X179763826Y-79733579D01*
X179762172Y-79733250D01*
X179750000Y-79730829D01*
X179737828Y-79733250D01*
X179724007Y-79735999D01*
X179723999Y-79736000D01*
X179723996Y-79736000D01*
X179723991Y-79736001D01*
X179659162Y-79748896D01*
X179659161Y-79748897D01*
X179646992Y-79751317D01*
X179559667Y-79809667D01*
X179551828Y-79821399D01*
X179536162Y-79840486D01*
X178814073Y-80562575D01*
X178751761Y-80596601D01*
X178724978Y-80599480D01*
X177525022Y-80599480D01*
X177456901Y-80579478D01*
X177435927Y-80562575D01*
X177127425Y-80254073D01*
X177093399Y-80191761D01*
X177090520Y-80164978D01*
X177090520Y-75903163D01*
X177092941Y-75878583D01*
X177093271Y-75876924D01*
X177093271Y-75876922D01*
X177095692Y-75864751D01*
X177091420Y-75843271D01*
X177079630Y-75784002D01*
X177075203Y-75761743D01*
X177031583Y-75696461D01*
X177031580Y-75696458D01*
X177016853Y-75674418D01*
X177005127Y-75666583D01*
X176986040Y-75650918D01*
X176349085Y-75013964D01*
X176333419Y-74994876D01*
X176325582Y-74983147D01*
X176238257Y-74924797D01*
X176226088Y-74922377D01*
X176226087Y-74922376D01*
X176161251Y-74909480D01*
X176158516Y-74908936D01*
X176135249Y-74904308D01*
X176123078Y-74906729D01*
X176123076Y-74906729D01*
X176121417Y-74907059D01*
X176096837Y-74909480D01*
X165585024Y-74909480D01*
X165516903Y-74889478D01*
X165495929Y-74872576D01*
X165377425Y-74754073D01*
X165343400Y-74691761D01*
X165340520Y-74664977D01*
X165340520Y-72605022D01*
X165360522Y-72536901D01*
X165377425Y-72515927D01*
X165655102Y-72238250D01*
X165717414Y-72204224D01*
X165788229Y-72209289D01*
X165805662Y-72217355D01*
X165832398Y-72232297D01*
X165893804Y-72252249D01*
X166022471Y-72294056D01*
X166022475Y-72294057D01*
X166028329Y-72295959D01*
X166232894Y-72320351D01*
X166239029Y-72319879D01*
X166239031Y-72319879D01*
X166295039Y-72315569D01*
X166438300Y-72304546D01*
X166444230Y-72302890D01*
X166444232Y-72302890D01*
X166568104Y-72268304D01*
X166636725Y-72249145D01*
X166642214Y-72246372D01*
X166642220Y-72246370D01*
X166774952Y-72179322D01*
X166820610Y-72156258D01*
X166982951Y-72029424D01*
X167046443Y-71955868D01*
X167113540Y-71878134D01*
X167113540Y-71878133D01*
X167117564Y-71873472D01*
X167135642Y-71841650D01*
X167197839Y-71732163D01*
X167219323Y-71694344D01*
X167284351Y-71498863D01*
X167310171Y-71294474D01*
X167310583Y-71265000D01*
X167309138Y-71250262D01*
X167739520Y-71250262D01*
X167756759Y-71455553D01*
X167758458Y-71461478D01*
X167798886Y-71602466D01*
X167813544Y-71653586D01*
X167816359Y-71659063D01*
X167816360Y-71659066D01*
X167904896Y-71831339D01*
X167907712Y-71836818D01*
X168035677Y-71998270D01*
X168040370Y-72002264D01*
X168040371Y-72002265D01*
X168156989Y-72101514D01*
X168192564Y-72131791D01*
X168197942Y-72134797D01*
X168197944Y-72134798D01*
X168219201Y-72146678D01*
X168372398Y-72232297D01*
X168433804Y-72252249D01*
X168562471Y-72294056D01*
X168562475Y-72294057D01*
X168568329Y-72295959D01*
X168772894Y-72320351D01*
X168779029Y-72319879D01*
X168779031Y-72319879D01*
X168835039Y-72315569D01*
X168978300Y-72304546D01*
X168984230Y-72302890D01*
X168984232Y-72302890D01*
X169108104Y-72268304D01*
X169176725Y-72249145D01*
X169182214Y-72246372D01*
X169182220Y-72246370D01*
X169314952Y-72179322D01*
X169360610Y-72156258D01*
X169522951Y-72029424D01*
X169586443Y-71955868D01*
X169653540Y-71878134D01*
X169653540Y-71878133D01*
X169657564Y-71873472D01*
X169675642Y-71841650D01*
X169737839Y-71732163D01*
X169759323Y-71694344D01*
X169824351Y-71498863D01*
X169850171Y-71294474D01*
X169850583Y-71265000D01*
X169849138Y-71250262D01*
X170279520Y-71250262D01*
X170296759Y-71455553D01*
X170298458Y-71461478D01*
X170338886Y-71602466D01*
X170353544Y-71653586D01*
X170356359Y-71659063D01*
X170356360Y-71659066D01*
X170444896Y-71831339D01*
X170447712Y-71836818D01*
X170575677Y-71998270D01*
X170580370Y-72002264D01*
X170580371Y-72002265D01*
X170696989Y-72101514D01*
X170732564Y-72131791D01*
X170737942Y-72134797D01*
X170737944Y-72134798D01*
X170759201Y-72146678D01*
X170912398Y-72232297D01*
X170973804Y-72252249D01*
X171102471Y-72294056D01*
X171102475Y-72294057D01*
X171108329Y-72295959D01*
X171312894Y-72320351D01*
X171319029Y-72319879D01*
X171319031Y-72319879D01*
X171375039Y-72315569D01*
X171518300Y-72304546D01*
X171524230Y-72302890D01*
X171524232Y-72302890D01*
X171648104Y-72268304D01*
X171716725Y-72249145D01*
X171722214Y-72246372D01*
X171722220Y-72246370D01*
X171854952Y-72179322D01*
X171900610Y-72156258D01*
X172062951Y-72029424D01*
X172126443Y-71955868D01*
X172193540Y-71878134D01*
X172193540Y-71878133D01*
X172197564Y-71873472D01*
X172215642Y-71841650D01*
X172277839Y-71732163D01*
X172299323Y-71694344D01*
X172364351Y-71498863D01*
X172390171Y-71294474D01*
X172390583Y-71265000D01*
X172370480Y-71059970D01*
X172310935Y-70862749D01*
X172214218Y-70680849D01*
X172140859Y-70590902D01*
X172087906Y-70525975D01*
X172087903Y-70525972D01*
X172084011Y-70521200D01*
X172066786Y-70506950D01*
X171930025Y-70393811D01*
X171930021Y-70393809D01*
X171925275Y-70389882D01*
X171744055Y-70291897D01*
X171547254Y-70230977D01*
X171541129Y-70230333D01*
X171541128Y-70230333D01*
X171348498Y-70210087D01*
X171348496Y-70210087D01*
X171342369Y-70209443D01*
X171255529Y-70217346D01*
X171143342Y-70227555D01*
X171143339Y-70227556D01*
X171137203Y-70228114D01*
X170939572Y-70286280D01*
X170757002Y-70381726D01*
X170752201Y-70385586D01*
X170752198Y-70385588D01*
X170741971Y-70393811D01*
X170596447Y-70510815D01*
X170464024Y-70668630D01*
X170461056Y-70674028D01*
X170461053Y-70674033D01*
X170367743Y-70843765D01*
X170364776Y-70849162D01*
X170302484Y-71045532D01*
X170301798Y-71051649D01*
X170301797Y-71051653D01*
X170280207Y-71244137D01*
X170279520Y-71250262D01*
X169849138Y-71250262D01*
X169830480Y-71059970D01*
X169770935Y-70862749D01*
X169674218Y-70680849D01*
X169600859Y-70590902D01*
X169547906Y-70525975D01*
X169547903Y-70525972D01*
X169544011Y-70521200D01*
X169526786Y-70506950D01*
X169390025Y-70393811D01*
X169390021Y-70393809D01*
X169385275Y-70389882D01*
X169204055Y-70291897D01*
X169007254Y-70230977D01*
X169001129Y-70230333D01*
X169001128Y-70230333D01*
X168808498Y-70210087D01*
X168808496Y-70210087D01*
X168802369Y-70209443D01*
X168715529Y-70217346D01*
X168603342Y-70227555D01*
X168603339Y-70227556D01*
X168597203Y-70228114D01*
X168399572Y-70286280D01*
X168217002Y-70381726D01*
X168212201Y-70385586D01*
X168212198Y-70385588D01*
X168201971Y-70393811D01*
X168056447Y-70510815D01*
X167924024Y-70668630D01*
X167921056Y-70674028D01*
X167921053Y-70674033D01*
X167827743Y-70843765D01*
X167824776Y-70849162D01*
X167762484Y-71045532D01*
X167761798Y-71051649D01*
X167761797Y-71051653D01*
X167740207Y-71244137D01*
X167739520Y-71250262D01*
X167309138Y-71250262D01*
X167290480Y-71059970D01*
X167230935Y-70862749D01*
X167134218Y-70680849D01*
X167060859Y-70590902D01*
X167007906Y-70525975D01*
X167007903Y-70525972D01*
X167004011Y-70521200D01*
X166986786Y-70506950D01*
X166850025Y-70393811D01*
X166850021Y-70393809D01*
X166845275Y-70389882D01*
X166664055Y-70291897D01*
X166467254Y-70230977D01*
X166461129Y-70230333D01*
X166461128Y-70230333D01*
X166268498Y-70210087D01*
X166268496Y-70210087D01*
X166262369Y-70209443D01*
X166175529Y-70217346D01*
X166063342Y-70227555D01*
X166063339Y-70227556D01*
X166057203Y-70228114D01*
X165859572Y-70286280D01*
X165677002Y-70381726D01*
X165672201Y-70385586D01*
X165672198Y-70385588D01*
X165661971Y-70393811D01*
X165516447Y-70510815D01*
X165384024Y-70668630D01*
X165381056Y-70674028D01*
X165381053Y-70674033D01*
X165287743Y-70843765D01*
X165284776Y-70849162D01*
X165222484Y-71045532D01*
X165221798Y-71051649D01*
X165221797Y-71051653D01*
X165200207Y-71244137D01*
X165199520Y-71250262D01*
X165216759Y-71455553D01*
X165218458Y-71461478D01*
X165258886Y-71602466D01*
X165273544Y-71653586D01*
X165276359Y-71659063D01*
X165276360Y-71659066D01*
X165306065Y-71716866D01*
X165319412Y-71786597D01*
X165292941Y-71852474D01*
X165283093Y-71863555D01*
X165074095Y-72072553D01*
X165011783Y-72106579D01*
X164940968Y-72101514D01*
X164895905Y-72072553D01*
X164688642Y-71865290D01*
X164654616Y-71802978D01*
X164659681Y-71732163D01*
X164668180Y-71713960D01*
X164676276Y-71699709D01*
X164676279Y-71699703D01*
X164679323Y-71694344D01*
X164744351Y-71498863D01*
X164770171Y-71294474D01*
X164770583Y-71265000D01*
X164750480Y-71059970D01*
X164690935Y-70862749D01*
X164594218Y-70680849D01*
X164520859Y-70590902D01*
X164467906Y-70525975D01*
X164467903Y-70525972D01*
X164464011Y-70521200D01*
X164446786Y-70506950D01*
X164310025Y-70393811D01*
X164310021Y-70393809D01*
X164305275Y-70389882D01*
X164124055Y-70291897D01*
X163927254Y-70230977D01*
X163921129Y-70230333D01*
X163921128Y-70230333D01*
X163728498Y-70210087D01*
X163728496Y-70210087D01*
X163722369Y-70209443D01*
X163635529Y-70217346D01*
X163523342Y-70227555D01*
X163523339Y-70227556D01*
X163517203Y-70228114D01*
X163319572Y-70286280D01*
X163137002Y-70381726D01*
X163132201Y-70385586D01*
X163132198Y-70385588D01*
X163121971Y-70393811D01*
X162976447Y-70510815D01*
X162844024Y-70668630D01*
X162841056Y-70674028D01*
X162841053Y-70674033D01*
X162747743Y-70843765D01*
X162744776Y-70849162D01*
X162682484Y-71045532D01*
X162681798Y-71051649D01*
X162681797Y-71051653D01*
X162660207Y-71244137D01*
X162659520Y-71250262D01*
X162229138Y-71250262D01*
X162210480Y-71059970D01*
X162150935Y-70862749D01*
X162054218Y-70680849D01*
X161980859Y-70590902D01*
X161927906Y-70525975D01*
X161927903Y-70525972D01*
X161924011Y-70521200D01*
X161906786Y-70506950D01*
X161770025Y-70393811D01*
X161770021Y-70393809D01*
X161765275Y-70389882D01*
X161584055Y-70291897D01*
X161387254Y-70230977D01*
X161381129Y-70230333D01*
X161381128Y-70230333D01*
X161188498Y-70210087D01*
X161188496Y-70210087D01*
X161182369Y-70209443D01*
X161095529Y-70217346D01*
X160983342Y-70227555D01*
X160983339Y-70227556D01*
X160977203Y-70228114D01*
X160779572Y-70286280D01*
X160597002Y-70381726D01*
X160592201Y-70385586D01*
X160592198Y-70385588D01*
X160581971Y-70393811D01*
X160436447Y-70510815D01*
X160304024Y-70668630D01*
X160301056Y-70674028D01*
X160301053Y-70674033D01*
X160207743Y-70843765D01*
X160204776Y-70849162D01*
X160142484Y-71045532D01*
X160141798Y-71051649D01*
X160141797Y-71051653D01*
X160120207Y-71244137D01*
X160119520Y-71250262D01*
X160136759Y-71455553D01*
X160138458Y-71461478D01*
X160178886Y-71602466D01*
X160193544Y-71653586D01*
X160196359Y-71659063D01*
X160196360Y-71659066D01*
X160226065Y-71716866D01*
X160239412Y-71786597D01*
X160212941Y-71852474D01*
X160203093Y-71863555D01*
X159994095Y-72072553D01*
X159931783Y-72106579D01*
X159860968Y-72101514D01*
X159815905Y-72072553D01*
X159608642Y-71865290D01*
X159574616Y-71802978D01*
X159579681Y-71732163D01*
X159588180Y-71713960D01*
X159596276Y-71699709D01*
X159596279Y-71699703D01*
X159599323Y-71694344D01*
X159664351Y-71498863D01*
X159690171Y-71294474D01*
X159690583Y-71265000D01*
X159670480Y-71059970D01*
X159610935Y-70862749D01*
X159514218Y-70680849D01*
X159440859Y-70590902D01*
X159387906Y-70525975D01*
X159387903Y-70525972D01*
X159384011Y-70521200D01*
X159366786Y-70506950D01*
X159230025Y-70393811D01*
X159230021Y-70393809D01*
X159225275Y-70389882D01*
X159044055Y-70291897D01*
X158847254Y-70230977D01*
X158841129Y-70230333D01*
X158841128Y-70230333D01*
X158648498Y-70210087D01*
X158648496Y-70210087D01*
X158642369Y-70209443D01*
X158555529Y-70217346D01*
X158443342Y-70227555D01*
X158443339Y-70227556D01*
X158437203Y-70228114D01*
X158239572Y-70286280D01*
X158057002Y-70381726D01*
X158052201Y-70385586D01*
X158052198Y-70385588D01*
X158041971Y-70393811D01*
X157896447Y-70510815D01*
X157764024Y-70668630D01*
X157761056Y-70674028D01*
X157761053Y-70674033D01*
X157667743Y-70843765D01*
X157664776Y-70849162D01*
X157602484Y-71045532D01*
X157601798Y-71051649D01*
X157601797Y-71051653D01*
X157580207Y-71244137D01*
X157579520Y-71250262D01*
X157596759Y-71455553D01*
X157598458Y-71461478D01*
X157638886Y-71602466D01*
X157653544Y-71653586D01*
X157656359Y-71659063D01*
X157656360Y-71659066D01*
X157744896Y-71831339D01*
X157747712Y-71836818D01*
X157875677Y-71998270D01*
X157880370Y-72002264D01*
X157880371Y-72002265D01*
X157996989Y-72101514D01*
X158032564Y-72131791D01*
X158037942Y-72134797D01*
X158037944Y-72134798D01*
X158059201Y-72146678D01*
X158212398Y-72232297D01*
X158273804Y-72252249D01*
X158402471Y-72294056D01*
X158402475Y-72294057D01*
X158408329Y-72295959D01*
X158612894Y-72320351D01*
X158619029Y-72319879D01*
X158619031Y-72319879D01*
X158675039Y-72315569D01*
X158818300Y-72304546D01*
X158824230Y-72302890D01*
X158824232Y-72302890D01*
X158917513Y-72276845D01*
X159016725Y-72249145D01*
X159087507Y-72213390D01*
X159157326Y-72200531D01*
X159223017Y-72227460D01*
X159233410Y-72236762D01*
X159449095Y-72452447D01*
X159483121Y-72514759D01*
X159486000Y-72541542D01*
X159486000Y-74838458D01*
X159465998Y-74906579D01*
X159449095Y-74927553D01*
X159427553Y-74949095D01*
X159365241Y-74983121D01*
X159338458Y-74986000D01*
X158326642Y-74986000D01*
X158302062Y-74983579D01*
X158300403Y-74983249D01*
X158300401Y-74983249D01*
X158288230Y-74980828D01*
X158276058Y-74983249D01*
X158236726Y-74991073D01*
X158185222Y-75001317D01*
X158119940Y-75044937D01*
X158119937Y-75044940D01*
X158097897Y-75059667D01*
X158090062Y-75071393D01*
X158074397Y-75090480D01*
X157513964Y-75650914D01*
X157494876Y-75666580D01*
X157483147Y-75674417D01*
X157468418Y-75696460D01*
X157424797Y-75761742D01*
X157422377Y-75773911D01*
X157422376Y-75773912D01*
X157408646Y-75842941D01*
X157404308Y-75864750D01*
X157406729Y-75876921D01*
X157406729Y-75876923D01*
X157407059Y-75878582D01*
X157409480Y-75903162D01*
X157409480Y-79414976D01*
X157389478Y-79483097D01*
X157372576Y-79504071D01*
X156927553Y-79949095D01*
X156865240Y-79983120D01*
X156838457Y-79986000D01*
X153951642Y-79986000D01*
X153927062Y-79983579D01*
X153925403Y-79983249D01*
X153925401Y-79983249D01*
X153913230Y-79980828D01*
X153887228Y-79986000D01*
X153822392Y-79998896D01*
X153822391Y-79998897D01*
X153810222Y-80001317D01*
X153722897Y-80059667D01*
X153715058Y-80071399D01*
X153699392Y-80090486D01*
X153187006Y-80602872D01*
X153167919Y-80618538D01*
X153156187Y-80626377D01*
X153141458Y-80648420D01*
X153097837Y-80713702D01*
X153095417Y-80725871D01*
X153095416Y-80725872D01*
X153079769Y-80804538D01*
X153077348Y-80816710D01*
X153079769Y-80828881D01*
X153079769Y-80828883D01*
X153080099Y-80830542D01*
X153082520Y-80855122D01*
X153082520Y-82780168D01*
X153062518Y-82848289D01*
X153045615Y-82869263D01*
X152812303Y-83102575D01*
X152749991Y-83136601D01*
X152723208Y-83139480D01*
X151029783Y-83139480D01*
X150961662Y-83119478D01*
X150940688Y-83102576D01*
X150178595Y-82340484D01*
X150162929Y-82321396D01*
X150155092Y-82309667D01*
X150133048Y-82294937D01*
X150133044Y-82294933D01*
X150102225Y-82274341D01*
X150056697Y-82219864D01*
X150047849Y-82149421D01*
X150078491Y-82085377D01*
X150094654Y-82070287D01*
X150238095Y-81958219D01*
X150238101Y-81958213D01*
X150242951Y-81954424D01*
X150281095Y-81910234D01*
X150373540Y-81803134D01*
X150373540Y-81803133D01*
X150377564Y-81798472D01*
X150391286Y-81774318D01*
X150440603Y-81687503D01*
X150479323Y-81619344D01*
X150544351Y-81423863D01*
X150570171Y-81219474D01*
X150570583Y-81190000D01*
X150550480Y-80984970D01*
X150490935Y-80787749D01*
X150394218Y-80605849D01*
X150317816Y-80512171D01*
X150267906Y-80450975D01*
X150267903Y-80450972D01*
X150264011Y-80446200D01*
X150257173Y-80440543D01*
X150110025Y-80318811D01*
X150110021Y-80318809D01*
X150105275Y-80314882D01*
X149967660Y-80240474D01*
X149929474Y-80219827D01*
X149924055Y-80216897D01*
X149727254Y-80155977D01*
X149721129Y-80155333D01*
X149721128Y-80155333D01*
X149528498Y-80135087D01*
X149528496Y-80135087D01*
X149522369Y-80134443D01*
X149435529Y-80142346D01*
X149323342Y-80152555D01*
X149323339Y-80152556D01*
X149317203Y-80153114D01*
X149119572Y-80211280D01*
X148937002Y-80306726D01*
X148932201Y-80310586D01*
X148932198Y-80310588D01*
X148785462Y-80428567D01*
X148776447Y-80435815D01*
X148644024Y-80593630D01*
X148641056Y-80599028D01*
X148641053Y-80599033D01*
X148565737Y-80736034D01*
X148544776Y-80774162D01*
X148482484Y-80970532D01*
X148481798Y-80976649D01*
X148481797Y-80976653D01*
X148461378Y-81158700D01*
X148459520Y-81175262D01*
X148460036Y-81181406D01*
X148475756Y-81368605D01*
X148476759Y-81380553D01*
X148478458Y-81386478D01*
X148518941Y-81527658D01*
X148533544Y-81578586D01*
X148536359Y-81584063D01*
X148536360Y-81584066D01*
X148609445Y-81726275D01*
X148627712Y-81761818D01*
X148755677Y-81923270D01*
X148846323Y-82000415D01*
X148862339Y-82014046D01*
X148901252Y-82073429D01*
X148901883Y-82144422D01*
X148864032Y-82204487D01*
X148799715Y-82234553D01*
X148780676Y-82236000D01*
X148243412Y-82236000D01*
X148218832Y-82233579D01*
X148217173Y-82233249D01*
X148217171Y-82233249D01*
X148205000Y-82230828D01*
X148192828Y-82233249D01*
X148179003Y-82235999D01*
X148101992Y-82251317D01*
X148036710Y-82294937D01*
X148036707Y-82294940D01*
X148014667Y-82309667D01*
X148006830Y-82321396D01*
X147991164Y-82340483D01*
X147574237Y-82757410D01*
X147511925Y-82791436D01*
X147441110Y-82786371D01*
X147425215Y-82779151D01*
X147389480Y-82759830D01*
X147389478Y-82759829D01*
X147384055Y-82756897D01*
X147187254Y-82695977D01*
X147181129Y-82695333D01*
X147181128Y-82695333D01*
X146988498Y-82675087D01*
X146988496Y-82675087D01*
X146982369Y-82674443D01*
X146895529Y-82682346D01*
X146783342Y-82692555D01*
X146783339Y-82692556D01*
X146777203Y-82693114D01*
X146579572Y-82751280D01*
X146574107Y-82754137D01*
X146536951Y-82773562D01*
X146397002Y-82846726D01*
X146392201Y-82850586D01*
X146392198Y-82850588D01*
X146314061Y-82913412D01*
X146236447Y-82975815D01*
X146104024Y-83133630D01*
X146101056Y-83139028D01*
X146101053Y-83139033D01*
X146023951Y-83279282D01*
X146004776Y-83314162D01*
X145942484Y-83510532D01*
X145941798Y-83516649D01*
X145941797Y-83516653D01*
X145929937Y-83622394D01*
X145919520Y-83715262D01*
X145920036Y-83721406D01*
X145935940Y-83910796D01*
X145936759Y-83920553D01*
X145938458Y-83926478D01*
X145982545Y-84080227D01*
X145993544Y-84118586D01*
X145996359Y-84124063D01*
X145996360Y-84124066D01*
X146017247Y-84164707D01*
X146087712Y-84301818D01*
X146215677Y-84463270D01*
X146372564Y-84596791D01*
X146552398Y-84697297D01*
X146633119Y-84723525D01*
X146742471Y-84759056D01*
X146742475Y-84759057D01*
X146748329Y-84760959D01*
X146952894Y-84785351D01*
X146959029Y-84784879D01*
X146959031Y-84784879D01*
X147015039Y-84780569D01*
X147158300Y-84769546D01*
X147164230Y-84767890D01*
X147164232Y-84767890D01*
X147350797Y-84715800D01*
X147350796Y-84715800D01*
X147356725Y-84714145D01*
X147362214Y-84711372D01*
X147362220Y-84711370D01*
X147505049Y-84639221D01*
X147540610Y-84621258D01*
X147564639Y-84602485D01*
X147626642Y-84554043D01*
X147702951Y-84494424D01*
X147729067Y-84464169D01*
X147833540Y-84343134D01*
X147833540Y-84343133D01*
X147837564Y-84338472D01*
X147858387Y-84301818D01*
X147876056Y-84270714D01*
X147939323Y-84159344D01*
X148004351Y-83963863D01*
X148030171Y-83759474D01*
X148030583Y-83730000D01*
X148010480Y-83524970D01*
X147950935Y-83327749D01*
X147925164Y-83279280D01*
X147910844Y-83209744D01*
X147936392Y-83143504D01*
X147947320Y-83131032D01*
X148098330Y-82980023D01*
X148277449Y-82800904D01*
X148339761Y-82766879D01*
X148366544Y-82764000D01*
X148684852Y-82764000D01*
X148752973Y-82784002D01*
X148799466Y-82837658D01*
X148809570Y-82907932D01*
X148780076Y-82972512D01*
X148778589Y-82974093D01*
X148776447Y-82975815D01*
X148644024Y-83133630D01*
X148641056Y-83139028D01*
X148641053Y-83139033D01*
X148563951Y-83279282D01*
X148544776Y-83314162D01*
X148482484Y-83510532D01*
X148481798Y-83516649D01*
X148481797Y-83516653D01*
X148469937Y-83622394D01*
X148459520Y-83715262D01*
X148460036Y-83721406D01*
X148475940Y-83910796D01*
X148476759Y-83920553D01*
X148478458Y-83926478D01*
X148522545Y-84080227D01*
X148533544Y-84118586D01*
X148536359Y-84124063D01*
X148536360Y-84124066D01*
X148557247Y-84164707D01*
X148627712Y-84301818D01*
X148752539Y-84459310D01*
X148752540Y-84459313D01*
X148755677Y-84463270D01*
X148754925Y-84463866D01*
X148785295Y-84521865D01*
X148778998Y-84592582D01*
X148735468Y-84648668D01*
X148661727Y-84672500D01*
X148264797Y-84672500D01*
X148253815Y-84672021D01*
X148226993Y-84669674D01*
X148226991Y-84669674D01*
X148216016Y-84668714D01*
X148179358Y-84678536D01*
X148168643Y-84680911D01*
X148162787Y-84681944D01*
X148142118Y-84685588D01*
X148142115Y-84685589D01*
X148131261Y-84687503D01*
X148121713Y-84693016D01*
X148118358Y-84694237D01*
X148115108Y-84695752D01*
X148104457Y-84698606D01*
X148073372Y-84720372D01*
X148064102Y-84726277D01*
X148040788Y-84739737D01*
X148040786Y-84739739D01*
X148031240Y-84745250D01*
X148018059Y-84760959D01*
X148006851Y-84774316D01*
X147999425Y-84782420D01*
X147514500Y-85267346D01*
X147452187Y-85301371D01*
X147384597Y-85295147D01*
X147384055Y-85296897D01*
X147187254Y-85235977D01*
X147181129Y-85235333D01*
X147181128Y-85235333D01*
X146988498Y-85215087D01*
X146988496Y-85215087D01*
X146982369Y-85214443D01*
X146895529Y-85222346D01*
X146783342Y-85232555D01*
X146783339Y-85232556D01*
X146777203Y-85233114D01*
X146579572Y-85291280D01*
X146397002Y-85386726D01*
X146392201Y-85390586D01*
X146392198Y-85390588D01*
X146241254Y-85511950D01*
X146236447Y-85515815D01*
X146104024Y-85673630D01*
X146101056Y-85679028D01*
X146101053Y-85679033D01*
X146043432Y-85783846D01*
X146004776Y-85854162D01*
X145942484Y-86050532D01*
X145941798Y-86056649D01*
X145941797Y-86056653D01*
X145920207Y-86249137D01*
X145919520Y-86255262D01*
X145579000Y-86255262D01*
X145579000Y-81175262D01*
X145919520Y-81175262D01*
X145920036Y-81181406D01*
X145935756Y-81368605D01*
X145936759Y-81380553D01*
X145938458Y-81386478D01*
X145978941Y-81527658D01*
X145993544Y-81578586D01*
X145996359Y-81584063D01*
X145996360Y-81584066D01*
X146069445Y-81726275D01*
X146087712Y-81761818D01*
X146215677Y-81923270D01*
X146220370Y-81927264D01*
X146220371Y-81927265D01*
X146326622Y-82017691D01*
X146372564Y-82056791D01*
X146377942Y-82059797D01*
X146377944Y-82059798D01*
X146433480Y-82090836D01*
X146552398Y-82157297D01*
X146622326Y-82180018D01*
X146742471Y-82219056D01*
X146742475Y-82219057D01*
X146748329Y-82220959D01*
X146952894Y-82245351D01*
X146959029Y-82244879D01*
X146959031Y-82244879D01*
X147015039Y-82240569D01*
X147158300Y-82229546D01*
X147164230Y-82227890D01*
X147164232Y-82227890D01*
X147350797Y-82175800D01*
X147350796Y-82175800D01*
X147356725Y-82174145D01*
X147362214Y-82171372D01*
X147362220Y-82171370D01*
X147497552Y-82103008D01*
X147540610Y-82081258D01*
X147554653Y-82070287D01*
X147677897Y-81973998D01*
X147702951Y-81954424D01*
X147741095Y-81910234D01*
X147833540Y-81803134D01*
X147833540Y-81803133D01*
X147837564Y-81798472D01*
X147851286Y-81774318D01*
X147900603Y-81687503D01*
X147939323Y-81619344D01*
X148004351Y-81423863D01*
X148030171Y-81219474D01*
X148030583Y-81190000D01*
X148010480Y-80984970D01*
X147950935Y-80787749D01*
X147854218Y-80605849D01*
X147777816Y-80512171D01*
X147727906Y-80450975D01*
X147727903Y-80450972D01*
X147724011Y-80446200D01*
X147717173Y-80440543D01*
X147570025Y-80318811D01*
X147570021Y-80318809D01*
X147565275Y-80314882D01*
X147427660Y-80240474D01*
X147389474Y-80219827D01*
X147384055Y-80216897D01*
X147187254Y-80155977D01*
X147181129Y-80155333D01*
X147181128Y-80155333D01*
X146988498Y-80135087D01*
X146988496Y-80135087D01*
X146982369Y-80134443D01*
X146895529Y-80142346D01*
X146783342Y-80152555D01*
X146783339Y-80152556D01*
X146777203Y-80153114D01*
X146579572Y-80211280D01*
X146397002Y-80306726D01*
X146392201Y-80310586D01*
X146392198Y-80310588D01*
X146245462Y-80428567D01*
X146236447Y-80435815D01*
X146104024Y-80593630D01*
X146101056Y-80599028D01*
X146101053Y-80599033D01*
X146025737Y-80736034D01*
X146004776Y-80774162D01*
X145942484Y-80970532D01*
X145941798Y-80976649D01*
X145941797Y-80976653D01*
X145921378Y-81158700D01*
X145919520Y-81175262D01*
X145579000Y-81175262D01*
X145579000Y-79519748D01*
X145924500Y-79519748D01*
X145925707Y-79525816D01*
X145929331Y-79544033D01*
X145936133Y-79578231D01*
X145980448Y-79644552D01*
X145990761Y-79651443D01*
X146023568Y-79673364D01*
X146046769Y-79688867D01*
X146058938Y-79691288D01*
X146058939Y-79691288D01*
X146092402Y-79697944D01*
X146105252Y-79700500D01*
X147844748Y-79700500D01*
X147857598Y-79697944D01*
X147891061Y-79691288D01*
X147891062Y-79691288D01*
X147903231Y-79688867D01*
X147926433Y-79673364D01*
X147959239Y-79651443D01*
X147969552Y-79644552D01*
X148013867Y-79578231D01*
X148020670Y-79544033D01*
X148024293Y-79525816D01*
X148025500Y-79519748D01*
X148025500Y-79226500D01*
X148045502Y-79158379D01*
X148099158Y-79111886D01*
X148151500Y-79100500D01*
X148488453Y-79100500D01*
X148556574Y-79120502D01*
X148600518Y-79168903D01*
X148627712Y-79221818D01*
X148755677Y-79383270D01*
X148760370Y-79387264D01*
X148760371Y-79387265D01*
X148872974Y-79483097D01*
X148912564Y-79516791D01*
X149092398Y-79617297D01*
X149176280Y-79644552D01*
X149282471Y-79679056D01*
X149282475Y-79679057D01*
X149288329Y-79680959D01*
X149492894Y-79705351D01*
X149499029Y-79704879D01*
X149499031Y-79704879D01*
X149555939Y-79700500D01*
X149698300Y-79689546D01*
X149704230Y-79687890D01*
X149704232Y-79687890D01*
X149890797Y-79635800D01*
X149890796Y-79635800D01*
X149896725Y-79634145D01*
X149902214Y-79631372D01*
X149902220Y-79631370D01*
X150075116Y-79544033D01*
X150080610Y-79541258D01*
X150128208Y-79504071D01*
X150238101Y-79418213D01*
X150242951Y-79414424D01*
X150377564Y-79258472D01*
X150395642Y-79226650D01*
X150401499Y-79216339D01*
X150431083Y-79164262D01*
X150482121Y-79114913D01*
X150540638Y-79100500D01*
X155315780Y-79100500D01*
X155330589Y-79101373D01*
X155364310Y-79105364D01*
X155373574Y-79103672D01*
X155373575Y-79103672D01*
X155422001Y-79094828D01*
X155425904Y-79094178D01*
X155474645Y-79086850D01*
X155474646Y-79086850D01*
X155483962Y-79085449D01*
X155490475Y-79082321D01*
X155497573Y-79081025D01*
X155549647Y-79053975D01*
X155553137Y-79052232D01*
X155606079Y-79026809D01*
X155611365Y-79021923D01*
X155611413Y-79021890D01*
X155617788Y-79018579D01*
X155622828Y-79014275D01*
X155660055Y-78977048D01*
X155663621Y-78973618D01*
X155698641Y-78941246D01*
X155705556Y-78934854D01*
X155709249Y-78928495D01*
X155714766Y-78922337D01*
X156389350Y-78247753D01*
X156400439Y-78237899D01*
X156419709Y-78222707D01*
X156419711Y-78222705D01*
X156427110Y-78216872D01*
X156439117Y-78199500D01*
X156450096Y-78183614D01*
X156460462Y-78168615D01*
X156462757Y-78165403D01*
X156492040Y-78125758D01*
X156492041Y-78125757D01*
X156497634Y-78118184D01*
X156500027Y-78111368D01*
X156504131Y-78105431D01*
X156521826Y-78049481D01*
X156523071Y-78045750D01*
X156539396Y-77999263D01*
X156539396Y-77999261D01*
X156542519Y-77990369D01*
X156542801Y-77983181D01*
X156542812Y-77983122D01*
X156544980Y-77976270D01*
X156545500Y-77969663D01*
X156545500Y-77916984D01*
X156545597Y-77912037D01*
X156546716Y-77883558D01*
X156547838Y-77855006D01*
X156545954Y-77847900D01*
X156545500Y-77839653D01*
X156545500Y-72291920D01*
X156565502Y-72223799D01*
X156614688Y-72179455D01*
X156660610Y-72156258D01*
X156822951Y-72029424D01*
X156886443Y-71955868D01*
X156953540Y-71878134D01*
X156953540Y-71878133D01*
X156957564Y-71873472D01*
X156975642Y-71841650D01*
X157037839Y-71732163D01*
X157059323Y-71694344D01*
X157124351Y-71498863D01*
X157150171Y-71294474D01*
X157150583Y-71265000D01*
X157130480Y-71059970D01*
X157070935Y-70862749D01*
X156974218Y-70680849D01*
X156900859Y-70590902D01*
X156847906Y-70525975D01*
X156847903Y-70525972D01*
X156844011Y-70521200D01*
X156826786Y-70506950D01*
X156690025Y-70393811D01*
X156690021Y-70393809D01*
X156685275Y-70389882D01*
X156504055Y-70291897D01*
X156307254Y-70230977D01*
X156301129Y-70230333D01*
X156301128Y-70230333D01*
X156108498Y-70210087D01*
X156108496Y-70210087D01*
X156102369Y-70209443D01*
X156015529Y-70217346D01*
X155903342Y-70227555D01*
X155903339Y-70227556D01*
X155897203Y-70228114D01*
X155699572Y-70286280D01*
X155517002Y-70381726D01*
X155512201Y-70385586D01*
X155512198Y-70385588D01*
X155501971Y-70393811D01*
X155356447Y-70510815D01*
X155224024Y-70668630D01*
X155221057Y-70674028D01*
X155221053Y-70674033D01*
X155179730Y-70749201D01*
X155129385Y-70799259D01*
X155069315Y-70814500D01*
X151503793Y-70814500D01*
X151435672Y-70794498D01*
X151414698Y-70777595D01*
X148587405Y-67950302D01*
X148553379Y-67887990D01*
X148550500Y-67861207D01*
X148550500Y-67826500D01*
X148570502Y-67758379D01*
X148624158Y-67711886D01*
X148676500Y-67700500D01*
X155334854Y-67700500D01*
X155402975Y-67720502D01*
X155449468Y-67774158D01*
X155459572Y-67844432D01*
X155430078Y-67909012D01*
X155413806Y-67924696D01*
X155361260Y-67966945D01*
X155356447Y-67970815D01*
X155224024Y-68128630D01*
X155221056Y-68134028D01*
X155221053Y-68134033D01*
X155214315Y-68146290D01*
X155124776Y-68309162D01*
X155122913Y-68315035D01*
X155069239Y-68484239D01*
X155062484Y-68505532D01*
X155061798Y-68511649D01*
X155061797Y-68511653D01*
X155040207Y-68704137D01*
X155039520Y-68710262D01*
X155056759Y-68915553D01*
X155113544Y-69113586D01*
X155116359Y-69119063D01*
X155116360Y-69119066D01*
X155137247Y-69159707D01*
X155207712Y-69296818D01*
X155335677Y-69458270D01*
X155492564Y-69591791D01*
X155672398Y-69692297D01*
X155756280Y-69719552D01*
X155862471Y-69754056D01*
X155862475Y-69754057D01*
X155868329Y-69755959D01*
X156072894Y-69780351D01*
X156079029Y-69779879D01*
X156079031Y-69779879D01*
X156151625Y-69774293D01*
X156278300Y-69764546D01*
X156284230Y-69762890D01*
X156284232Y-69762890D01*
X156470797Y-69710800D01*
X156470796Y-69710800D01*
X156476725Y-69709145D01*
X156482214Y-69706372D01*
X156482220Y-69706370D01*
X156655116Y-69619033D01*
X156660610Y-69616258D01*
X156822951Y-69489424D01*
X156957564Y-69333472D01*
X156978387Y-69296818D01*
X157056276Y-69159707D01*
X157059323Y-69154344D01*
X157124351Y-68958863D01*
X157150171Y-68754474D01*
X157150583Y-68725000D01*
X157130480Y-68519970D01*
X157070935Y-68322749D01*
X156974218Y-68140849D01*
X156900859Y-68050902D01*
X156847906Y-67985975D01*
X156847903Y-67985972D01*
X156844011Y-67981200D01*
X156839264Y-67977273D01*
X156839261Y-67977270D01*
X156774366Y-67923584D01*
X156734628Y-67864751D01*
X156733007Y-67793772D01*
X156770016Y-67733185D01*
X156833906Y-67702225D01*
X156854682Y-67700500D01*
X157874854Y-67700500D01*
X157942975Y-67720502D01*
X157989468Y-67774158D01*
X157999572Y-67844432D01*
X157970078Y-67909012D01*
X157953806Y-67924696D01*
X157901260Y-67966945D01*
X157896447Y-67970815D01*
X157764024Y-68128630D01*
X157761056Y-68134028D01*
X157761053Y-68134033D01*
X157754315Y-68146290D01*
X157664776Y-68309162D01*
X157662913Y-68315035D01*
X157609239Y-68484239D01*
X157602484Y-68505532D01*
X157601798Y-68511649D01*
X157601797Y-68511653D01*
X157580207Y-68704137D01*
X157579520Y-68710262D01*
X157596759Y-68915553D01*
X157653544Y-69113586D01*
X157656359Y-69119063D01*
X157656360Y-69119066D01*
X157677247Y-69159707D01*
X157747712Y-69296818D01*
X157875677Y-69458270D01*
X158032564Y-69591791D01*
X158212398Y-69692297D01*
X158296280Y-69719552D01*
X158402471Y-69754056D01*
X158402475Y-69754057D01*
X158408329Y-69755959D01*
X158612894Y-69780351D01*
X158619029Y-69779879D01*
X158619031Y-69779879D01*
X158691625Y-69774293D01*
X158818300Y-69764546D01*
X158824230Y-69762890D01*
X158824232Y-69762890D01*
X159010797Y-69710800D01*
X159010796Y-69710800D01*
X159016725Y-69709145D01*
X159022214Y-69706372D01*
X159022220Y-69706370D01*
X159195116Y-69619033D01*
X159200610Y-69616258D01*
X159362951Y-69489424D01*
X159497564Y-69333472D01*
X159518387Y-69296818D01*
X159596276Y-69159707D01*
X159599323Y-69154344D01*
X159664351Y-68958863D01*
X159690171Y-68754474D01*
X159690583Y-68725000D01*
X159670480Y-68519970D01*
X159610935Y-68322749D01*
X159514218Y-68140849D01*
X159440859Y-68050902D01*
X159387906Y-67985975D01*
X159387903Y-67985972D01*
X159384011Y-67981200D01*
X159379264Y-67977273D01*
X159379261Y-67977270D01*
X159314366Y-67923584D01*
X159274628Y-67864751D01*
X159273007Y-67793772D01*
X159310016Y-67733185D01*
X159373906Y-67702225D01*
X159394682Y-67700500D01*
X160414854Y-67700500D01*
X160482975Y-67720502D01*
X160529468Y-67774158D01*
X160539572Y-67844432D01*
X160510078Y-67909012D01*
X160493806Y-67924696D01*
X160441260Y-67966945D01*
X160436447Y-67970815D01*
X160304024Y-68128630D01*
X160301056Y-68134028D01*
X160301053Y-68134033D01*
X160294315Y-68146290D01*
X160204776Y-68309162D01*
X160202913Y-68315035D01*
X160149239Y-68484239D01*
X160142484Y-68505532D01*
X160141798Y-68511649D01*
X160141797Y-68511653D01*
X160120207Y-68704137D01*
X160119520Y-68710262D01*
X160136759Y-68915553D01*
X160193544Y-69113586D01*
X160196359Y-69119063D01*
X160196360Y-69119066D01*
X160217247Y-69159707D01*
X160287712Y-69296818D01*
X160415677Y-69458270D01*
X160572564Y-69591791D01*
X160752398Y-69692297D01*
X160836280Y-69719552D01*
X160942471Y-69754056D01*
X160942475Y-69754057D01*
X160948329Y-69755959D01*
X161152894Y-69780351D01*
X161159029Y-69779879D01*
X161159031Y-69779879D01*
X161231625Y-69774293D01*
X161358300Y-69764546D01*
X161364230Y-69762890D01*
X161364232Y-69762890D01*
X161550797Y-69710800D01*
X161550796Y-69710800D01*
X161556725Y-69709145D01*
X161562214Y-69706372D01*
X161562220Y-69706370D01*
X161735116Y-69619033D01*
X161740610Y-69616258D01*
X161902951Y-69489424D01*
X162037564Y-69333472D01*
X162058387Y-69296818D01*
X162136276Y-69159707D01*
X162139323Y-69154344D01*
X162204351Y-68958863D01*
X162230171Y-68754474D01*
X162230583Y-68725000D01*
X162210480Y-68519970D01*
X162150935Y-68322749D01*
X162054218Y-68140849D01*
X161980859Y-68050902D01*
X161927906Y-67985975D01*
X161927903Y-67985972D01*
X161924011Y-67981200D01*
X161919264Y-67977273D01*
X161919261Y-67977270D01*
X161854366Y-67923584D01*
X161814628Y-67864751D01*
X161813007Y-67793772D01*
X161850016Y-67733185D01*
X161913906Y-67702225D01*
X161934682Y-67700500D01*
X162954854Y-67700500D01*
X163022975Y-67720502D01*
X163069468Y-67774158D01*
X163079572Y-67844432D01*
X163050078Y-67909012D01*
X163033806Y-67924696D01*
X162981260Y-67966945D01*
X162976447Y-67970815D01*
X162844024Y-68128630D01*
X162841056Y-68134028D01*
X162841053Y-68134033D01*
X162834315Y-68146290D01*
X162744776Y-68309162D01*
X162742913Y-68315035D01*
X162689239Y-68484239D01*
X162682484Y-68505532D01*
X162681798Y-68511649D01*
X162681797Y-68511653D01*
X162660207Y-68704137D01*
X162659520Y-68710262D01*
X162676759Y-68915553D01*
X162733544Y-69113586D01*
X162736359Y-69119063D01*
X162736360Y-69119066D01*
X162757247Y-69159707D01*
X162827712Y-69296818D01*
X162955677Y-69458270D01*
X163112564Y-69591791D01*
X163292398Y-69692297D01*
X163376280Y-69719552D01*
X163482471Y-69754056D01*
X163482475Y-69754057D01*
X163488329Y-69755959D01*
X163692894Y-69780351D01*
X163699029Y-69779879D01*
X163699031Y-69779879D01*
X163771625Y-69774293D01*
X163898300Y-69764546D01*
X163904230Y-69762890D01*
X163904232Y-69762890D01*
X164090797Y-69710800D01*
X164090796Y-69710800D01*
X164096725Y-69709145D01*
X164102214Y-69706372D01*
X164102220Y-69706370D01*
X164275116Y-69619033D01*
X164280610Y-69616258D01*
X164442951Y-69489424D01*
X164577564Y-69333472D01*
X164598387Y-69296818D01*
X164676276Y-69159707D01*
X164679323Y-69154344D01*
X164744351Y-68958863D01*
X164770171Y-68754474D01*
X164770583Y-68725000D01*
X164750480Y-68519970D01*
X164690935Y-68322749D01*
X164594218Y-68140849D01*
X164520859Y-68050902D01*
X164467906Y-67985975D01*
X164467903Y-67985972D01*
X164464011Y-67981200D01*
X164459264Y-67977273D01*
X164459261Y-67977270D01*
X164394366Y-67923584D01*
X164354628Y-67864751D01*
X164353007Y-67793772D01*
X164390016Y-67733185D01*
X164453906Y-67702225D01*
X164474682Y-67700500D01*
X165494854Y-67700500D01*
X165562975Y-67720502D01*
X165609468Y-67774158D01*
X165619572Y-67844432D01*
X165590078Y-67909012D01*
X165573806Y-67924696D01*
X165521260Y-67966945D01*
X165516447Y-67970815D01*
X165384024Y-68128630D01*
X165381056Y-68134028D01*
X165381053Y-68134033D01*
X165374315Y-68146290D01*
X165284776Y-68309162D01*
X165282913Y-68315035D01*
X165229239Y-68484239D01*
X165222484Y-68505532D01*
X165221798Y-68511649D01*
X165221797Y-68511653D01*
X165200207Y-68704137D01*
X165199520Y-68710262D01*
X165216759Y-68915553D01*
X165273544Y-69113586D01*
X165276359Y-69119063D01*
X165276360Y-69119066D01*
X165297247Y-69159707D01*
X165367712Y-69296818D01*
X165495677Y-69458270D01*
X165652564Y-69591791D01*
X165832398Y-69692297D01*
X165916280Y-69719552D01*
X166022471Y-69754056D01*
X166022475Y-69754057D01*
X166028329Y-69755959D01*
X166232894Y-69780351D01*
X166239029Y-69779879D01*
X166239031Y-69779879D01*
X166311625Y-69774293D01*
X166438300Y-69764546D01*
X166444230Y-69762890D01*
X166444232Y-69762890D01*
X166630797Y-69710800D01*
X166630796Y-69710800D01*
X166636725Y-69709145D01*
X166642214Y-69706372D01*
X166642220Y-69706370D01*
X166815116Y-69619033D01*
X166820610Y-69616258D01*
X166982951Y-69489424D01*
X167117564Y-69333472D01*
X167138387Y-69296818D01*
X167216276Y-69159707D01*
X167219323Y-69154344D01*
X167284351Y-68958863D01*
X167310171Y-68754474D01*
X167310583Y-68725000D01*
X167290480Y-68519970D01*
X167230935Y-68322749D01*
X167134218Y-68140849D01*
X167060859Y-68050902D01*
X167007906Y-67985975D01*
X167007903Y-67985972D01*
X167004011Y-67981200D01*
X166999264Y-67977273D01*
X166999261Y-67977270D01*
X166934366Y-67923584D01*
X166894628Y-67864751D01*
X166893007Y-67793772D01*
X166930016Y-67733185D01*
X166993906Y-67702225D01*
X167014682Y-67700500D01*
X168034854Y-67700500D01*
X168102975Y-67720502D01*
X168149468Y-67774158D01*
X168159572Y-67844432D01*
X168130078Y-67909012D01*
X168113806Y-67924696D01*
X168061260Y-67966945D01*
X168056447Y-67970815D01*
X167924024Y-68128630D01*
X167921056Y-68134028D01*
X167921053Y-68134033D01*
X167914315Y-68146290D01*
X167824776Y-68309162D01*
X167822913Y-68315035D01*
X167769239Y-68484239D01*
X167762484Y-68505532D01*
X167761798Y-68511649D01*
X167761797Y-68511653D01*
X167740207Y-68704137D01*
X167739520Y-68710262D01*
X167756759Y-68915553D01*
X167813544Y-69113586D01*
X167816359Y-69119063D01*
X167816360Y-69119066D01*
X167837247Y-69159707D01*
X167907712Y-69296818D01*
X168035677Y-69458270D01*
X168192564Y-69591791D01*
X168372398Y-69692297D01*
X168456280Y-69719552D01*
X168562471Y-69754056D01*
X168562475Y-69754057D01*
X168568329Y-69755959D01*
X168772894Y-69780351D01*
X168779029Y-69779879D01*
X168779031Y-69779879D01*
X168851625Y-69774293D01*
X168978300Y-69764546D01*
X168984230Y-69762890D01*
X168984232Y-69762890D01*
X169170797Y-69710800D01*
X169170796Y-69710800D01*
X169176725Y-69709145D01*
X169182214Y-69706372D01*
X169182220Y-69706370D01*
X169355116Y-69619033D01*
X169360610Y-69616258D01*
X169522951Y-69489424D01*
X169657564Y-69333472D01*
X169678387Y-69296818D01*
X169756276Y-69159707D01*
X169759323Y-69154344D01*
X169824351Y-68958863D01*
X169850171Y-68754474D01*
X169850583Y-68725000D01*
X169830480Y-68519970D01*
X169770935Y-68322749D01*
X169674218Y-68140849D01*
X169600859Y-68050902D01*
X169547906Y-67985975D01*
X169547903Y-67985972D01*
X169544011Y-67981200D01*
X169539264Y-67977273D01*
X169539261Y-67977270D01*
X169474366Y-67923584D01*
X169434628Y-67864751D01*
X169433007Y-67793772D01*
X169470016Y-67733185D01*
X169533906Y-67702225D01*
X169554682Y-67700500D01*
X170574854Y-67700500D01*
X170642975Y-67720502D01*
X170689468Y-67774158D01*
X170699572Y-67844432D01*
X170670078Y-67909012D01*
X170653806Y-67924696D01*
X170601260Y-67966945D01*
X170596447Y-67970815D01*
X170464024Y-68128630D01*
X170461056Y-68134028D01*
X170461053Y-68134033D01*
X170454315Y-68146290D01*
X170364776Y-68309162D01*
X170362913Y-68315035D01*
X170309239Y-68484239D01*
X170302484Y-68505532D01*
X170301798Y-68511649D01*
X170301797Y-68511653D01*
X170280207Y-68704137D01*
X170279520Y-68710262D01*
X170296759Y-68915553D01*
X170353544Y-69113586D01*
X170356359Y-69119063D01*
X170356360Y-69119066D01*
X170377247Y-69159707D01*
X170447712Y-69296818D01*
X170575677Y-69458270D01*
X170732564Y-69591791D01*
X170912398Y-69692297D01*
X170996280Y-69719552D01*
X171102471Y-69754056D01*
X171102475Y-69754057D01*
X171108329Y-69755959D01*
X171312894Y-69780351D01*
X171319029Y-69779879D01*
X171319031Y-69779879D01*
X171391625Y-69774293D01*
X171518300Y-69764546D01*
X171524230Y-69762890D01*
X171524232Y-69762890D01*
X171710797Y-69710800D01*
X171710796Y-69710800D01*
X171716725Y-69709145D01*
X171722214Y-69706372D01*
X171722220Y-69706370D01*
X171895116Y-69619033D01*
X171900610Y-69616258D01*
X172062951Y-69489424D01*
X172197564Y-69333472D01*
X172218387Y-69296818D01*
X172296276Y-69159707D01*
X172299323Y-69154344D01*
X172364351Y-68958863D01*
X172390171Y-68754474D01*
X172390583Y-68725000D01*
X172370480Y-68519970D01*
X172310935Y-68322749D01*
X172214218Y-68140849D01*
X172140859Y-68050902D01*
X172087906Y-67985975D01*
X172087903Y-67985972D01*
X172084011Y-67981200D01*
X172079264Y-67977273D01*
X172079261Y-67977270D01*
X172014366Y-67923584D01*
X171974628Y-67864751D01*
X171973007Y-67793772D01*
X172010016Y-67733185D01*
X172073906Y-67702225D01*
X172094682Y-67700500D01*
X172701751Y-67700500D01*
X172769872Y-67720502D01*
X172816365Y-67774158D01*
X172824365Y-67842829D01*
X172826314Y-67843021D01*
X172825707Y-67849184D01*
X172824500Y-67855252D01*
X172824500Y-69594748D01*
X172825707Y-69600816D01*
X172829331Y-69619033D01*
X172836133Y-69653231D01*
X172880448Y-69719552D01*
X172946769Y-69763867D01*
X172958938Y-69766288D01*
X172958939Y-69766288D01*
X172999184Y-69774293D01*
X173005252Y-69775500D01*
X174423207Y-69775500D01*
X174491328Y-69795502D01*
X174537821Y-69849158D01*
X174547925Y-69919432D01*
X174518431Y-69984012D01*
X174512302Y-69990595D01*
X174282015Y-70220882D01*
X174219703Y-70254908D01*
X174155662Y-70252152D01*
X174093142Y-70232799D01*
X174093136Y-70232798D01*
X174087254Y-70230977D01*
X174081129Y-70230333D01*
X174081128Y-70230333D01*
X173888498Y-70210087D01*
X173888496Y-70210087D01*
X173882369Y-70209443D01*
X173795529Y-70217346D01*
X173683342Y-70227555D01*
X173683339Y-70227556D01*
X173677203Y-70228114D01*
X173479572Y-70286280D01*
X173297002Y-70381726D01*
X173292201Y-70385586D01*
X173292198Y-70385588D01*
X173281971Y-70393811D01*
X173136447Y-70510815D01*
X173004024Y-70668630D01*
X173001056Y-70674028D01*
X173001053Y-70674033D01*
X172907743Y-70843765D01*
X172904776Y-70849162D01*
X172842484Y-71045532D01*
X172841798Y-71051649D01*
X172841797Y-71051653D01*
X172820207Y-71244137D01*
X172819520Y-71250262D01*
X172836759Y-71455553D01*
X172838458Y-71461478D01*
X172878886Y-71602466D01*
X172893544Y-71653586D01*
X172896359Y-71659063D01*
X172896360Y-71659066D01*
X172984896Y-71831339D01*
X172987712Y-71836818D01*
X173115677Y-71998270D01*
X173120370Y-72002264D01*
X173120371Y-72002265D01*
X173236989Y-72101514D01*
X173272564Y-72131791D01*
X173277942Y-72134797D01*
X173277944Y-72134798D01*
X173299201Y-72146678D01*
X173452398Y-72232297D01*
X173513804Y-72252249D01*
X173642471Y-72294056D01*
X173642475Y-72294057D01*
X173648329Y-72295959D01*
X173852894Y-72320351D01*
X173859029Y-72319879D01*
X173859031Y-72319879D01*
X173915039Y-72315569D01*
X174058300Y-72304546D01*
X174064230Y-72302890D01*
X174064232Y-72302890D01*
X174188104Y-72268304D01*
X174256725Y-72249145D01*
X174262214Y-72246372D01*
X174262220Y-72246370D01*
X174394952Y-72179322D01*
X174440610Y-72156258D01*
X174602951Y-72029424D01*
X174666443Y-71955868D01*
X174733540Y-71878134D01*
X174733540Y-71878133D01*
X174737564Y-71873472D01*
X174755642Y-71841650D01*
X174817839Y-71732163D01*
X174839323Y-71694344D01*
X174904351Y-71498863D01*
X174930171Y-71294474D01*
X174930583Y-71265000D01*
X174910480Y-71059970D01*
X174887438Y-70983651D01*
X174886897Y-70912656D01*
X174918965Y-70858138D01*
X175544350Y-70232753D01*
X175555439Y-70222899D01*
X175574711Y-70207706D01*
X175574715Y-70207702D01*
X175582110Y-70201872D01*
X175587464Y-70194125D01*
X175587468Y-70194121D01*
X175615477Y-70153596D01*
X175617758Y-70150402D01*
X175652635Y-70103183D01*
X175655029Y-70096366D01*
X175659131Y-70090431D01*
X175676812Y-70034525D01*
X175678060Y-70030785D01*
X175694400Y-69984255D01*
X175694401Y-69984252D01*
X175697520Y-69975369D01*
X175697803Y-69968184D01*
X175697817Y-69968111D01*
X175699980Y-69961270D01*
X175700500Y-69954663D01*
X175700500Y-69902009D01*
X175700597Y-69897062D01*
X175702469Y-69849418D01*
X175702839Y-69840006D01*
X175700954Y-69832897D01*
X175700500Y-69824648D01*
X175700500Y-67784220D01*
X175701373Y-67769411D01*
X175704257Y-67745043D01*
X175705364Y-67735690D01*
X175703672Y-67726426D01*
X175703672Y-67726422D01*
X175694827Y-67677989D01*
X175694178Y-67674088D01*
X175686851Y-67625355D01*
X175686849Y-67625347D01*
X175685449Y-67616038D01*
X175682323Y-67609528D01*
X175681026Y-67602427D01*
X175653982Y-67550363D01*
X175652214Y-67546825D01*
X175630886Y-67502411D01*
X175626809Y-67493921D01*
X175621922Y-67488635D01*
X175621895Y-67488595D01*
X175618580Y-67482212D01*
X175614275Y-67477172D01*
X175577048Y-67439945D01*
X175573618Y-67436379D01*
X175541246Y-67401359D01*
X175534854Y-67394444D01*
X175528495Y-67390751D01*
X175522337Y-67385234D01*
X175092753Y-66955650D01*
X175082899Y-66944561D01*
X175067707Y-66925291D01*
X175067705Y-66925289D01*
X175061872Y-66917890D01*
X175054125Y-66912535D01*
X175054123Y-66912534D01*
X175013625Y-66884545D01*
X175010403Y-66882243D01*
X174970758Y-66852960D01*
X174970757Y-66852959D01*
X174963184Y-66847366D01*
X174956368Y-66844973D01*
X174950431Y-66840869D01*
X174941451Y-66838029D01*
X174941449Y-66838028D01*
X174921283Y-66831650D01*
X174894481Y-66823174D01*
X174890750Y-66821929D01*
X174844263Y-66805604D01*
X174844261Y-66805604D01*
X174835369Y-66802481D01*
X174828181Y-66802199D01*
X174828122Y-66802188D01*
X174821270Y-66800020D01*
X174814663Y-66799500D01*
X174761984Y-66799500D01*
X174757037Y-66799403D01*
X174700006Y-66797162D01*
X174692900Y-66799046D01*
X174684653Y-66799500D01*
X148676500Y-66799500D01*
X148608379Y-66779498D01*
X148561886Y-66725842D01*
X148550500Y-66673500D01*
X148550500Y-66630252D01*
X148538867Y-66571769D01*
X148494552Y-66505448D01*
X148428231Y-66461133D01*
X148416062Y-66458712D01*
X148416061Y-66458712D01*
X148375816Y-66450707D01*
X148369748Y-66449500D01*
X146630252Y-66449500D01*
X146624184Y-66450707D01*
X146583939Y-66458712D01*
X146583938Y-66458712D01*
X146571769Y-66461133D01*
X146505448Y-66505448D01*
X146461133Y-66571769D01*
X146449500Y-66630252D01*
X146449500Y-68369748D01*
X146461133Y-68428231D01*
X146505448Y-68494552D01*
X146571769Y-68538867D01*
X146583938Y-68541288D01*
X146583939Y-68541288D01*
X146624184Y-68549293D01*
X146630252Y-68550500D01*
X147861207Y-68550500D01*
X147929328Y-68570502D01*
X147950302Y-68587405D01*
X150922247Y-71559350D01*
X150932101Y-71570439D01*
X150947293Y-71589709D01*
X150953128Y-71597110D01*
X150960875Y-71602465D01*
X150960877Y-71602466D01*
X151001375Y-71630455D01*
X151004597Y-71632757D01*
X151032797Y-71653586D01*
X151051816Y-71667634D01*
X151058632Y-71670027D01*
X151064569Y-71674131D01*
X151073549Y-71676971D01*
X151073551Y-71676972D01*
X151093717Y-71683350D01*
X151120519Y-71691826D01*
X151124250Y-71693071D01*
X151170737Y-71709396D01*
X151170739Y-71709396D01*
X151179631Y-71712519D01*
X151186819Y-71712801D01*
X151186878Y-71712812D01*
X151193730Y-71714980D01*
X151200337Y-71715500D01*
X151253016Y-71715500D01*
X151257962Y-71715597D01*
X151314994Y-71717838D01*
X151322100Y-71715954D01*
X151330347Y-71715500D01*
X155068453Y-71715500D01*
X155136574Y-71735502D01*
X155180518Y-71783903D01*
X155207712Y-71836818D01*
X155335677Y-71998270D01*
X155340370Y-72002264D01*
X155340371Y-72002265D01*
X155456989Y-72101514D01*
X155492564Y-72131791D01*
X155497942Y-72134797D01*
X155497944Y-72134798D01*
X155511010Y-72142100D01*
X155579971Y-72180641D01*
X155629676Y-72231333D01*
X155644500Y-72290628D01*
X155644500Y-77666207D01*
X155624498Y-77734328D01*
X155607595Y-77755302D01*
X155200302Y-78162595D01*
X155137990Y-78196621D01*
X155111207Y-78199500D01*
X150540990Y-78199500D01*
X150472869Y-78179498D01*
X150429738Y-78132653D01*
X150397111Y-78071290D01*
X150394218Y-78065849D01*
X150293157Y-77941936D01*
X150267906Y-77910975D01*
X150267903Y-77910972D01*
X150264011Y-77906200D01*
X150251458Y-77895815D01*
X150110025Y-77778811D01*
X150110021Y-77778809D01*
X150105275Y-77774882D01*
X149924055Y-77676897D01*
X149727254Y-77615977D01*
X149721129Y-77615333D01*
X149721128Y-77615333D01*
X149528498Y-77595087D01*
X149528496Y-77595087D01*
X149522369Y-77594443D01*
X149435529Y-77602346D01*
X149323342Y-77612555D01*
X149323339Y-77612556D01*
X149317203Y-77613114D01*
X149119572Y-77671280D01*
X148937002Y-77766726D01*
X148932201Y-77770586D01*
X148932198Y-77770588D01*
X148782416Y-77891016D01*
X148776447Y-77895815D01*
X148644024Y-78053630D01*
X148641057Y-78059028D01*
X148641053Y-78059033D01*
X148599730Y-78134201D01*
X148549385Y-78184259D01*
X148489315Y-78199500D01*
X148151500Y-78199500D01*
X148083379Y-78179498D01*
X148036886Y-78125842D01*
X148025500Y-78073500D01*
X148025500Y-77780252D01*
X148019587Y-77750523D01*
X148016288Y-77733939D01*
X148016288Y-77733938D01*
X148013867Y-77721769D01*
X147969552Y-77655448D01*
X147903231Y-77611133D01*
X147891062Y-77608712D01*
X147891061Y-77608712D01*
X147850816Y-77600707D01*
X147844748Y-77599500D01*
X146105252Y-77599500D01*
X146099184Y-77600707D01*
X146058939Y-77608712D01*
X146058938Y-77608712D01*
X146046769Y-77611133D01*
X145980448Y-77655448D01*
X145936133Y-77721769D01*
X145933712Y-77733938D01*
X145933712Y-77733939D01*
X145930413Y-77750523D01*
X145924500Y-77780252D01*
X145924500Y-79519748D01*
X145579000Y-79519748D01*
X145579000Y-75075597D01*
X145599002Y-75007476D01*
X145619369Y-74983167D01*
X145627857Y-74975304D01*
X145639532Y-74965724D01*
X145640709Y-74964871D01*
X145651985Y-74959688D01*
X145659190Y-74951912D01*
X145661952Y-74949474D01*
X145662686Y-74948942D01*
X145663930Y-74947728D01*
X145770880Y-74853322D01*
X145775416Y-74849318D01*
X145876299Y-74718152D01*
X145939671Y-74591409D01*
X145988026Y-74539425D01*
X146056810Y-74521836D01*
X146124183Y-74544227D01*
X146168756Y-74599488D01*
X146172200Y-74608817D01*
X146175885Y-74620158D01*
X146261107Y-74754447D01*
X146377048Y-74863324D01*
X146516424Y-74939946D01*
X146670476Y-74979500D01*
X146789603Y-74979500D01*
X146845426Y-74972448D01*
X146899929Y-74965563D01*
X146899932Y-74965562D01*
X146907794Y-74964569D01*
X146915161Y-74961652D01*
X146915162Y-74961652D01*
X146950329Y-74947728D01*
X147055674Y-74906019D01*
X147076831Y-74890648D01*
X147177933Y-74817193D01*
X147184347Y-74812533D01*
X147264357Y-74715818D01*
X147280677Y-74696091D01*
X147280678Y-74696090D01*
X147285729Y-74689984D01*
X147353448Y-74546072D01*
X147354933Y-74538289D01*
X147354934Y-74538285D01*
X147381766Y-74397626D01*
X147381766Y-74397625D01*
X147383251Y-74389841D01*
X147373264Y-74231106D01*
X147370594Y-74222888D01*
X147326566Y-74087384D01*
X147326565Y-74087381D01*
X147324115Y-74079842D01*
X147238893Y-73945553D01*
X147122952Y-73836676D01*
X146983576Y-73760054D01*
X146829524Y-73720500D01*
X146710397Y-73720500D01*
X146654574Y-73727552D01*
X146600071Y-73734437D01*
X146600068Y-73734438D01*
X146592206Y-73735431D01*
X146584839Y-73738348D01*
X146584838Y-73738348D01*
X146550903Y-73751784D01*
X146444326Y-73793981D01*
X146437915Y-73798639D01*
X146437913Y-73798640D01*
X146330563Y-73876635D01*
X146315653Y-73887467D01*
X146293528Y-73914212D01*
X146227084Y-73994528D01*
X146168251Y-74034266D01*
X146097273Y-74035887D01*
X146036685Y-73998878D01*
X146005725Y-73934988D01*
X146004000Y-73914212D01*
X146004000Y-73083005D01*
X146024002Y-73014884D01*
X146077658Y-72968391D01*
X146147932Y-72958287D01*
X146212512Y-72987781D01*
X146236382Y-73015486D01*
X146261107Y-73054447D01*
X146377048Y-73163324D01*
X146516424Y-73239946D01*
X146670476Y-73279500D01*
X146789603Y-73279500D01*
X146845426Y-73272448D01*
X146899929Y-73265563D01*
X146899932Y-73265562D01*
X146907794Y-73264569D01*
X146915161Y-73261652D01*
X146915162Y-73261652D01*
X146949097Y-73248216D01*
X147055674Y-73206019D01*
X147121905Y-73157900D01*
X147177933Y-73117193D01*
X147184347Y-73112533D01*
X147285729Y-72989984D01*
X147353448Y-72846072D01*
X147354933Y-72838289D01*
X147354934Y-72838285D01*
X147381766Y-72697626D01*
X147381766Y-72697625D01*
X147383251Y-72689841D01*
X147373264Y-72531106D01*
X147367953Y-72514759D01*
X147326566Y-72387384D01*
X147326565Y-72387381D01*
X147324115Y-72379842D01*
X147238893Y-72245553D01*
X147226805Y-72234201D01*
X147128728Y-72142100D01*
X147122952Y-72136676D01*
X146983576Y-72060054D01*
X146829524Y-72020500D01*
X146710397Y-72020500D01*
X146654574Y-72027552D01*
X146600071Y-72034437D01*
X146600068Y-72034438D01*
X146592206Y-72035431D01*
X146584839Y-72038348D01*
X146584838Y-72038348D01*
X146579878Y-72040312D01*
X146444326Y-72093981D01*
X146437915Y-72098639D01*
X146437913Y-72098640D01*
X146371794Y-72146678D01*
X146315653Y-72187467D01*
X146241541Y-72277052D01*
X146233097Y-72287260D01*
X146214271Y-72310016D01*
X146167808Y-72408756D01*
X146120707Y-72461876D01*
X146052363Y-72481099D01*
X145984475Y-72460320D01*
X145941103Y-72411456D01*
X145876299Y-72281848D01*
X145775416Y-72150682D01*
X145663930Y-72052272D01*
X145662686Y-72051058D01*
X145661952Y-72050526D01*
X145659190Y-72048088D01*
X145651985Y-72040312D01*
X145640709Y-72035129D01*
X145639532Y-72034276D01*
X145627857Y-72024696D01*
X145619371Y-72016834D01*
X145582992Y-71955868D01*
X145579000Y-71924403D01*
X145579000Y-64945262D01*
X146444520Y-64945262D01*
X146461759Y-65150553D01*
X146463458Y-65156478D01*
X146512606Y-65327876D01*
X146518544Y-65348586D01*
X146521359Y-65354063D01*
X146521360Y-65354066D01*
X146572341Y-65453264D01*
X146612712Y-65531818D01*
X146740677Y-65693270D01*
X146745370Y-65697264D01*
X146745371Y-65697265D01*
X146799573Y-65743394D01*
X146897564Y-65826791D01*
X147077398Y-65927297D01*
X147172238Y-65958113D01*
X147267471Y-65989056D01*
X147267475Y-65989057D01*
X147273329Y-65990959D01*
X147477894Y-66015351D01*
X147484029Y-66014879D01*
X147484031Y-66014879D01*
X147540039Y-66010569D01*
X147683300Y-65999546D01*
X147689230Y-65997890D01*
X147689232Y-65997890D01*
X147701588Y-65994440D01*
X156044901Y-65994440D01*
X156046065Y-66003342D01*
X156046065Y-66003345D01*
X156060468Y-66113489D01*
X156060469Y-66113493D01*
X156061633Y-66122394D01*
X156113605Y-66240510D01*
X156119382Y-66247383D01*
X156119383Y-66247384D01*
X156190859Y-66332415D01*
X156196639Y-66339291D01*
X156304060Y-66410796D01*
X156427233Y-66449278D01*
X156436203Y-66449442D01*
X156436207Y-66449443D01*
X156494942Y-66450519D01*
X156556255Y-66451643D01*
X156618505Y-66434671D01*
X156672092Y-66420062D01*
X156672093Y-66420062D01*
X156680755Y-66417700D01*
X156688405Y-66413003D01*
X156688407Y-66413002D01*
X156783072Y-66354878D01*
X156783075Y-66354875D01*
X156790724Y-66350179D01*
X156798177Y-66341945D01*
X156799977Y-66340843D01*
X156803655Y-66337789D01*
X156804096Y-66338320D01*
X156858720Y-66304864D01*
X156891592Y-66300500D01*
X158447634Y-66300500D01*
X158450307Y-66300696D01*
X158455342Y-66302425D01*
X158466964Y-66301989D01*
X158466966Y-66301989D01*
X158504255Y-66300589D01*
X158508981Y-66300500D01*
X158527948Y-66300500D01*
X158532683Y-66299618D01*
X158536209Y-66299390D01*
X158539949Y-66299249D01*
X158567208Y-66298226D01*
X158577893Y-66293636D01*
X158582493Y-66292599D01*
X158594214Y-66289038D01*
X158598617Y-66287339D01*
X158610053Y-66285209D01*
X158631041Y-66272272D01*
X158647411Y-66263769D01*
X158661888Y-66257549D01*
X158661892Y-66257547D01*
X158670063Y-66254036D01*
X158674949Y-66250022D01*
X158677134Y-66247837D01*
X158679397Y-66245785D01*
X158679542Y-66245945D01*
X158688549Y-66238825D01*
X158695444Y-66232573D01*
X158705348Y-66226468D01*
X158721916Y-66204680D01*
X158733110Y-66191861D01*
X159049971Y-65875000D01*
X181194318Y-65875000D01*
X181214956Y-66031762D01*
X181275464Y-66177841D01*
X181371718Y-66303282D01*
X181497159Y-66399536D01*
X181643238Y-66460044D01*
X181651426Y-66461122D01*
X181703868Y-66468026D01*
X181760639Y-66475500D01*
X182339361Y-66475500D01*
X182396133Y-66468026D01*
X182448574Y-66461122D01*
X182456762Y-66460044D01*
X182602841Y-66399536D01*
X182728282Y-66303282D01*
X182824536Y-66177841D01*
X182885044Y-66031762D01*
X182905682Y-65875000D01*
X182885044Y-65718238D01*
X182824536Y-65572159D01*
X182728282Y-65446718D01*
X182602841Y-65350464D01*
X182604886Y-65347799D01*
X182566691Y-65307750D01*
X182553246Y-65238038D01*
X182579625Y-65172124D01*
X182603980Y-65151020D01*
X182602841Y-65149536D01*
X182721736Y-65058305D01*
X182728282Y-65053282D01*
X182824536Y-64927841D01*
X182885044Y-64781762D01*
X182905682Y-64625000D01*
X182885044Y-64468238D01*
X182824536Y-64322159D01*
X182728282Y-64196718D01*
X182660734Y-64144886D01*
X182618867Y-64087549D01*
X182614645Y-64016678D01*
X182649409Y-63954775D01*
X182680235Y-63932657D01*
X182738342Y-63903050D01*
X182828050Y-63813342D01*
X182885646Y-63700304D01*
X182900500Y-63606519D01*
X182900499Y-63143482D01*
X182885646Y-63049696D01*
X182828050Y-62936658D01*
X182738342Y-62846950D01*
X182625304Y-62789354D01*
X182615515Y-62787804D01*
X182615513Y-62787803D01*
X182588151Y-62783470D01*
X182531519Y-62774500D01*
X182050098Y-62774500D01*
X181568482Y-62774501D01*
X181563589Y-62775276D01*
X181563588Y-62775276D01*
X181484494Y-62787802D01*
X181484492Y-62787803D01*
X181474696Y-62789354D01*
X181361658Y-62846950D01*
X181271950Y-62936658D01*
X181214354Y-63049696D01*
X181199500Y-63143481D01*
X181199501Y-63606518D01*
X181200276Y-63611409D01*
X181200276Y-63611412D01*
X181206926Y-63653399D01*
X181214354Y-63700304D01*
X181271950Y-63813342D01*
X181361658Y-63903050D01*
X181419765Y-63932657D01*
X181471380Y-63981405D01*
X181488446Y-64050320D01*
X181465545Y-64117522D01*
X181439267Y-64144886D01*
X181371718Y-64196718D01*
X181275464Y-64322159D01*
X181214956Y-64468238D01*
X181194318Y-64625000D01*
X181214956Y-64781762D01*
X181275464Y-64927841D01*
X181371718Y-65053282D01*
X181378264Y-65058305D01*
X181497159Y-65149536D01*
X181495114Y-65152201D01*
X181533309Y-65192250D01*
X181546754Y-65261962D01*
X181520375Y-65327876D01*
X181496020Y-65348980D01*
X181497159Y-65350464D01*
X181371718Y-65446718D01*
X181275464Y-65572159D01*
X181214956Y-65718238D01*
X181194318Y-65875000D01*
X159049971Y-65875000D01*
X160436955Y-64488016D01*
X160499267Y-64453990D01*
X160528358Y-64451132D01*
X160547277Y-64451479D01*
X160547281Y-64451478D01*
X160556255Y-64451643D01*
X160618505Y-64434672D01*
X160672092Y-64420062D01*
X160672093Y-64420062D01*
X160680755Y-64417700D01*
X160688405Y-64413003D01*
X160688407Y-64413002D01*
X160783072Y-64354878D01*
X160783075Y-64354875D01*
X160790724Y-64350179D01*
X160796750Y-64343522D01*
X160871300Y-64261161D01*
X160871303Y-64261157D01*
X160877322Y-64254507D01*
X160933588Y-64138375D01*
X160941927Y-64088811D01*
X160954190Y-64015917D01*
X160954997Y-64011120D01*
X160955133Y-64000000D01*
X160941893Y-63907550D01*
X160938112Y-63881145D01*
X160938111Y-63881142D01*
X160936839Y-63872259D01*
X160883428Y-63754788D01*
X160836482Y-63700304D01*
X160805051Y-63663826D01*
X160805049Y-63663824D01*
X160799193Y-63657028D01*
X160690906Y-63586841D01*
X160682311Y-63584271D01*
X160682310Y-63584270D01*
X160575874Y-63552438D01*
X160575872Y-63552438D01*
X160567273Y-63549866D01*
X160558298Y-63549811D01*
X160558297Y-63549811D01*
X160503641Y-63549477D01*
X160438231Y-63549078D01*
X160426475Y-63552438D01*
X160322786Y-63582072D01*
X160322784Y-63582073D01*
X160314155Y-63584539D01*
X160205019Y-63653399D01*
X160119596Y-63750122D01*
X160115782Y-63758245D01*
X160115781Y-63758247D01*
X160094061Y-63804509D01*
X160064754Y-63866932D01*
X160044901Y-63994440D01*
X160041489Y-63993909D01*
X160025547Y-64045858D01*
X160009479Y-64065550D01*
X158412434Y-65662595D01*
X158350122Y-65696621D01*
X158323339Y-65699500D01*
X156893178Y-65699500D01*
X156825057Y-65679498D01*
X156810347Y-65668447D01*
X156805052Y-65663827D01*
X156799193Y-65657028D01*
X156690906Y-65586841D01*
X156682311Y-65584271D01*
X156682310Y-65584270D01*
X156575874Y-65552438D01*
X156575872Y-65552438D01*
X156567273Y-65549866D01*
X156558298Y-65549811D01*
X156558297Y-65549811D01*
X156503641Y-65549477D01*
X156438231Y-65549078D01*
X156376193Y-65566809D01*
X156322786Y-65582072D01*
X156322784Y-65582073D01*
X156314155Y-65584539D01*
X156205019Y-65653399D01*
X156199076Y-65660128D01*
X156199075Y-65660129D01*
X156142292Y-65724424D01*
X156119596Y-65750122D01*
X156064754Y-65866932D01*
X156063374Y-65875798D01*
X156046282Y-65985567D01*
X156046282Y-65985571D01*
X156044901Y-65994440D01*
X147701588Y-65994440D01*
X147875797Y-65945800D01*
X147875796Y-65945800D01*
X147881725Y-65944145D01*
X147887214Y-65941372D01*
X147887220Y-65941370D01*
X148034818Y-65866812D01*
X148065610Y-65851258D01*
X148227951Y-65724424D01*
X148283449Y-65660129D01*
X148358540Y-65573134D01*
X148358540Y-65573133D01*
X148362564Y-65568472D01*
X148373582Y-65549078D01*
X148461276Y-65394707D01*
X148464323Y-65389344D01*
X148529351Y-65193863D01*
X148555171Y-64989474D01*
X148555583Y-64960000D01*
X148535480Y-64754970D01*
X148475935Y-64557749D01*
X148379218Y-64375849D01*
X148305859Y-64285902D01*
X148252906Y-64220975D01*
X148252903Y-64220972D01*
X148249011Y-64216200D01*
X148231786Y-64201950D01*
X148095025Y-64088811D01*
X148095021Y-64088809D01*
X148090275Y-64084882D01*
X147923006Y-63994440D01*
X147914474Y-63989827D01*
X147909055Y-63986897D01*
X147712254Y-63925977D01*
X147706129Y-63925333D01*
X147706128Y-63925333D01*
X147513498Y-63905087D01*
X147513496Y-63905087D01*
X147507369Y-63904443D01*
X147420529Y-63912346D01*
X147308342Y-63922555D01*
X147308339Y-63922556D01*
X147302203Y-63923114D01*
X147104572Y-63981280D01*
X146922002Y-64076726D01*
X146917201Y-64080586D01*
X146917198Y-64080588D01*
X146772761Y-64196718D01*
X146761447Y-64205815D01*
X146629024Y-64363630D01*
X146626056Y-64369028D01*
X146626053Y-64369033D01*
X146571515Y-64468238D01*
X146529776Y-64544162D01*
X146467484Y-64740532D01*
X146466798Y-64746649D01*
X146466797Y-64746653D01*
X146447330Y-64920211D01*
X146444520Y-64945262D01*
X145579000Y-64945262D01*
X145579000Y-62405262D01*
X146444520Y-62405262D01*
X146461759Y-62610553D01*
X146463458Y-62616478D01*
X146514321Y-62793857D01*
X146518544Y-62808586D01*
X146521359Y-62814063D01*
X146521360Y-62814066D01*
X146588903Y-62945491D01*
X146612712Y-62991818D01*
X146740677Y-63153270D01*
X146897564Y-63286791D01*
X147077398Y-63387297D01*
X147172238Y-63418113D01*
X147267471Y-63449056D01*
X147267475Y-63449057D01*
X147273329Y-63450959D01*
X147477894Y-63475351D01*
X147484029Y-63474879D01*
X147484031Y-63474879D01*
X147540039Y-63470569D01*
X147683300Y-63459546D01*
X147689230Y-63457890D01*
X147689232Y-63457890D01*
X147875797Y-63405800D01*
X147875796Y-63405800D01*
X147881725Y-63404145D01*
X147887214Y-63401372D01*
X147887220Y-63401370D01*
X148060116Y-63314033D01*
X148065610Y-63311258D01*
X148227951Y-63184424D01*
X148259017Y-63148434D01*
X148358540Y-63033134D01*
X148358540Y-63033133D01*
X148362564Y-63028472D01*
X148383387Y-62991818D01*
X148461276Y-62854707D01*
X148464323Y-62849344D01*
X148529351Y-62653863D01*
X148555171Y-62449474D01*
X148555583Y-62420000D01*
X148535480Y-62214970D01*
X148475935Y-62017749D01*
X148379218Y-61835849D01*
X148305859Y-61745902D01*
X148252906Y-61680975D01*
X148252903Y-61680972D01*
X148249011Y-61676200D01*
X148231786Y-61661950D01*
X148095025Y-61548811D01*
X148095021Y-61548809D01*
X148090275Y-61544882D01*
X147909055Y-61446897D01*
X147712254Y-61385977D01*
X147706129Y-61385333D01*
X147706128Y-61385333D01*
X147513498Y-61365087D01*
X147513496Y-61365087D01*
X147507369Y-61364443D01*
X147420529Y-61372346D01*
X147308342Y-61382555D01*
X147308339Y-61382556D01*
X147302203Y-61383114D01*
X147104572Y-61441280D01*
X146922002Y-61536726D01*
X146917201Y-61540586D01*
X146917198Y-61540588D01*
X146906971Y-61548811D01*
X146761447Y-61665815D01*
X146629024Y-61823630D01*
X146626056Y-61829028D01*
X146626053Y-61829033D01*
X146619315Y-61841290D01*
X146529776Y-62004162D01*
X146467484Y-62200532D01*
X146466798Y-62206649D01*
X146466797Y-62206653D01*
X146445207Y-62399137D01*
X146444520Y-62405262D01*
X145579000Y-62405262D01*
X145579000Y-59244440D01*
X155544901Y-59244440D01*
X155546065Y-59253342D01*
X155546065Y-59253345D01*
X155560468Y-59363489D01*
X155560469Y-59363493D01*
X155561633Y-59372394D01*
X155613605Y-59490510D01*
X155696639Y-59589291D01*
X155804060Y-59660796D01*
X155927233Y-59699278D01*
X155936203Y-59699442D01*
X155936207Y-59699443D01*
X155994942Y-59700519D01*
X156056255Y-59701643D01*
X156118505Y-59684671D01*
X156172092Y-59670062D01*
X156172093Y-59670062D01*
X156180755Y-59667700D01*
X156188405Y-59663003D01*
X156188407Y-59663002D01*
X156290724Y-59600179D01*
X156291794Y-59601921D01*
X156346238Y-59578432D01*
X156361535Y-59577500D01*
X157140824Y-59577500D01*
X157210642Y-59598612D01*
X157304060Y-59660796D01*
X157427233Y-59699278D01*
X157436203Y-59699442D01*
X157436207Y-59699443D01*
X157494942Y-59700519D01*
X157556255Y-59701643D01*
X157618505Y-59684671D01*
X157672092Y-59670062D01*
X157672093Y-59670062D01*
X157680755Y-59667700D01*
X157688405Y-59663003D01*
X157688407Y-59663002D01*
X157783072Y-59604878D01*
X157783075Y-59604875D01*
X157790724Y-59600179D01*
X157796750Y-59593522D01*
X157871300Y-59511161D01*
X157871303Y-59511157D01*
X157877322Y-59504507D01*
X157933588Y-59388375D01*
X157954997Y-59261120D01*
X157955133Y-59250000D01*
X157936839Y-59122259D01*
X157883428Y-59004788D01*
X157857625Y-58974842D01*
X157805051Y-58913826D01*
X157805049Y-58913824D01*
X157799193Y-58907028D01*
X157690906Y-58836841D01*
X157682311Y-58834271D01*
X157682310Y-58834270D01*
X157575874Y-58802438D01*
X157575872Y-58802438D01*
X157567273Y-58799866D01*
X157558298Y-58799811D01*
X157558297Y-58799811D01*
X157503641Y-58799477D01*
X157438231Y-58799078D01*
X157426475Y-58802438D01*
X157322786Y-58832072D01*
X157322784Y-58832073D01*
X157314155Y-58834539D01*
X157306565Y-58839328D01*
X157205553Y-58903062D01*
X157138317Y-58922500D01*
X156360327Y-58922500D01*
X156291795Y-58902233D01*
X156286202Y-58898608D01*
X156190906Y-58836841D01*
X156182311Y-58834271D01*
X156182310Y-58834270D01*
X156075874Y-58802438D01*
X156075872Y-58802438D01*
X156067273Y-58799866D01*
X156058298Y-58799811D01*
X156058297Y-58799811D01*
X156003641Y-58799477D01*
X155938231Y-58799078D01*
X155926475Y-58802438D01*
X155822786Y-58832072D01*
X155822784Y-58832073D01*
X155814155Y-58834539D01*
X155705019Y-58903399D01*
X155699076Y-58910128D01*
X155699075Y-58910129D01*
X155631351Y-58986812D01*
X155619596Y-59000122D01*
X155615782Y-59008245D01*
X155615781Y-59008247D01*
X155589794Y-59063598D01*
X155564754Y-59116932D01*
X155563374Y-59125798D01*
X155546282Y-59235567D01*
X155546282Y-59235571D01*
X155544901Y-59244440D01*
X145579000Y-59244440D01*
X145579000Y-57662516D01*
X151979500Y-57662516D01*
X151994724Y-57788320D01*
X152054655Y-57946923D01*
X152150688Y-58086651D01*
X152156358Y-58091703D01*
X152156359Y-58091704D01*
X152271608Y-58194388D01*
X152271612Y-58194390D01*
X152277279Y-58199440D01*
X152427119Y-58278776D01*
X152591559Y-58320081D01*
X152599157Y-58320121D01*
X152599159Y-58320121D01*
X152676332Y-58320525D01*
X152761105Y-58320969D01*
X152768492Y-58319195D01*
X152768496Y-58319195D01*
X152918583Y-58283161D01*
X152925968Y-58281388D01*
X152932712Y-58277907D01*
X152932715Y-58277906D01*
X153069883Y-58207108D01*
X153069884Y-58207108D01*
X153076631Y-58203625D01*
X153136150Y-58151704D01*
X153198671Y-58097163D01*
X153204396Y-58092169D01*
X153301887Y-57953453D01*
X153363476Y-57795487D01*
X153373582Y-57718727D01*
X153379962Y-57670261D01*
X153379962Y-57670260D01*
X153380500Y-57666174D01*
X153380500Y-56912414D01*
X153400502Y-56844293D01*
X153454158Y-56797800D01*
X153524432Y-56787696D01*
X153589012Y-56817190D01*
X153606463Y-56835710D01*
X153696696Y-56953304D01*
X153817750Y-57046192D01*
X153958720Y-57104584D01*
X154072020Y-57119500D01*
X154147980Y-57119500D01*
X154261280Y-57104584D01*
X154402250Y-57046192D01*
X154523304Y-56953304D01*
X154616192Y-56832250D01*
X154674584Y-56691280D01*
X154694500Y-56540000D01*
X159305500Y-56540000D01*
X159325416Y-56691280D01*
X159383808Y-56832250D01*
X159476696Y-56953304D01*
X159597750Y-57046192D01*
X159738720Y-57104584D01*
X159852020Y-57119500D01*
X159927980Y-57119500D01*
X160041280Y-57104584D01*
X160182250Y-57046192D01*
X160303304Y-56953304D01*
X160393537Y-56835710D01*
X160450875Y-56793843D01*
X160521746Y-56789621D01*
X160583649Y-56824385D01*
X160616930Y-56887098D01*
X160619500Y-56912414D01*
X160619500Y-57662516D01*
X160634724Y-57788320D01*
X160694655Y-57946923D01*
X160790688Y-58086651D01*
X160796358Y-58091703D01*
X160796359Y-58091704D01*
X160911608Y-58194388D01*
X160911612Y-58194390D01*
X160917279Y-58199440D01*
X161067119Y-58278776D01*
X161231559Y-58320081D01*
X161239157Y-58320121D01*
X161239159Y-58320121D01*
X161316332Y-58320525D01*
X161401105Y-58320969D01*
X161408492Y-58319195D01*
X161408496Y-58319195D01*
X161558583Y-58283161D01*
X161565968Y-58281388D01*
X161572712Y-58277907D01*
X161572715Y-58277906D01*
X161709883Y-58207108D01*
X161709884Y-58207108D01*
X161716631Y-58203625D01*
X161776150Y-58151704D01*
X161838671Y-58097163D01*
X161844396Y-58092169D01*
X161941887Y-57953453D01*
X162003476Y-57795487D01*
X162013083Y-57722516D01*
X167979500Y-57722516D01*
X167994724Y-57848320D01*
X168054655Y-58006923D01*
X168058956Y-58013181D01*
X168116676Y-58097163D01*
X168150688Y-58146651D01*
X168156358Y-58151703D01*
X168156359Y-58151704D01*
X168271608Y-58254388D01*
X168271612Y-58254390D01*
X168277279Y-58259440D01*
X168283988Y-58262992D01*
X168283989Y-58262993D01*
X168322080Y-58283161D01*
X168427119Y-58338776D01*
X168591559Y-58380081D01*
X168599157Y-58380121D01*
X168599159Y-58380121D01*
X168676332Y-58380525D01*
X168761105Y-58380969D01*
X168768492Y-58379195D01*
X168768496Y-58379195D01*
X168918583Y-58343161D01*
X168925968Y-58341388D01*
X168932712Y-58337907D01*
X168932715Y-58337906D01*
X169069883Y-58267108D01*
X169069884Y-58267108D01*
X169076631Y-58263625D01*
X169204396Y-58152169D01*
X169301887Y-58013453D01*
X169363476Y-57855487D01*
X169371384Y-57795423D01*
X169379962Y-57730261D01*
X169379962Y-57730260D01*
X169380500Y-57726174D01*
X169380500Y-56972414D01*
X169400502Y-56904293D01*
X169454158Y-56857800D01*
X169524432Y-56847696D01*
X169589012Y-56877190D01*
X169606463Y-56895710D01*
X169696696Y-57013304D01*
X169817750Y-57106192D01*
X169958720Y-57164584D01*
X170072020Y-57179500D01*
X170147980Y-57179500D01*
X170261280Y-57164584D01*
X170402250Y-57106192D01*
X170523304Y-57013304D01*
X170616192Y-56892250D01*
X170674584Y-56751280D01*
X170694500Y-56600000D01*
X175305500Y-56600000D01*
X175325416Y-56751280D01*
X175383808Y-56892250D01*
X175476696Y-57013304D01*
X175597750Y-57106192D01*
X175738720Y-57164584D01*
X175852020Y-57179500D01*
X175927980Y-57179500D01*
X176041280Y-57164584D01*
X176182250Y-57106192D01*
X176303304Y-57013304D01*
X176393537Y-56895710D01*
X176450875Y-56853843D01*
X176521746Y-56849621D01*
X176583649Y-56884385D01*
X176616930Y-56947098D01*
X176619500Y-56972414D01*
X176619500Y-57722516D01*
X176634724Y-57848320D01*
X176694655Y-58006923D01*
X176698956Y-58013181D01*
X176756676Y-58097163D01*
X176790688Y-58146651D01*
X176796358Y-58151703D01*
X176796359Y-58151704D01*
X176911608Y-58254388D01*
X176911612Y-58254390D01*
X176917279Y-58259440D01*
X176923988Y-58262992D01*
X176923989Y-58262993D01*
X176962080Y-58283161D01*
X177067119Y-58338776D01*
X177231559Y-58380081D01*
X177239157Y-58380121D01*
X177239159Y-58380121D01*
X177316332Y-58380525D01*
X177401105Y-58380969D01*
X177408492Y-58379195D01*
X177408496Y-58379195D01*
X177558583Y-58343161D01*
X177565968Y-58341388D01*
X177572712Y-58337907D01*
X177572715Y-58337906D01*
X177709883Y-58267108D01*
X177709884Y-58267108D01*
X177716631Y-58263625D01*
X177844396Y-58152169D01*
X177941887Y-58013453D01*
X178003476Y-57855487D01*
X178011384Y-57795423D01*
X178019962Y-57730261D01*
X178019962Y-57730260D01*
X178020500Y-57726174D01*
X178020500Y-56537484D01*
X178005276Y-56411680D01*
X177945345Y-56253077D01*
X177849312Y-56113349D01*
X177788995Y-56059608D01*
X177728392Y-56005612D01*
X177728388Y-56005610D01*
X177722721Y-56000560D01*
X177681201Y-55978576D01*
X177594918Y-55932892D01*
X177572881Y-55921224D01*
X177408441Y-55879919D01*
X177400843Y-55879879D01*
X177400841Y-55879879D01*
X177323668Y-55879475D01*
X177238895Y-55879031D01*
X177231508Y-55880805D01*
X177231504Y-55880805D01*
X177088162Y-55915220D01*
X177074032Y-55918612D01*
X177067288Y-55922093D01*
X177067285Y-55922094D01*
X176991833Y-55961038D01*
X176923369Y-55996375D01*
X176917647Y-56001367D01*
X176917645Y-56001368D01*
X176858058Y-56053349D01*
X176795604Y-56107831D01*
X176777745Y-56133242D01*
X176735304Y-56193630D01*
X176698113Y-56246547D01*
X176695353Y-56253627D01*
X176695351Y-56253630D01*
X176653284Y-56361527D01*
X176609904Y-56417729D01*
X176543025Y-56441556D01*
X176473881Y-56425443D01*
X176424425Y-56374505D01*
X176419482Y-56363977D01*
X176416894Y-56357729D01*
X176396192Y-56307750D01*
X176303304Y-56186696D01*
X176182250Y-56093808D01*
X176041280Y-56035416D01*
X175927980Y-56020500D01*
X175852020Y-56020500D01*
X175738720Y-56035416D01*
X175597750Y-56093808D01*
X175476696Y-56186696D01*
X175383808Y-56307750D01*
X175325416Y-56448720D01*
X175305500Y-56600000D01*
X170694500Y-56600000D01*
X170674584Y-56448720D01*
X170616192Y-56307750D01*
X170523304Y-56186696D01*
X170402250Y-56093808D01*
X170261280Y-56035416D01*
X170147980Y-56020500D01*
X170072020Y-56020500D01*
X169958720Y-56035416D01*
X169817750Y-56093808D01*
X169696696Y-56186696D01*
X169603808Y-56307750D01*
X169582273Y-56359741D01*
X169580318Y-56364460D01*
X169535770Y-56419741D01*
X169468406Y-56442162D01*
X169399615Y-56424604D01*
X169351237Y-56372642D01*
X169346043Y-56360780D01*
X169308029Y-56260180D01*
X169305345Y-56253077D01*
X169209312Y-56113349D01*
X169148995Y-56059608D01*
X169088392Y-56005612D01*
X169088388Y-56005610D01*
X169082721Y-56000560D01*
X169041201Y-55978576D01*
X168954918Y-55932892D01*
X168932881Y-55921224D01*
X168768441Y-55879919D01*
X168760843Y-55879879D01*
X168760841Y-55879879D01*
X168683668Y-55879475D01*
X168598895Y-55879031D01*
X168591508Y-55880805D01*
X168591504Y-55880805D01*
X168448162Y-55915220D01*
X168434032Y-55918612D01*
X168427288Y-55922093D01*
X168427285Y-55922094D01*
X168351833Y-55961038D01*
X168283369Y-55996375D01*
X168277647Y-56001367D01*
X168277645Y-56001368D01*
X168218058Y-56053349D01*
X168155604Y-56107831D01*
X168137745Y-56133242D01*
X168095304Y-56193630D01*
X168058113Y-56246547D01*
X167996524Y-56404513D01*
X167995532Y-56412046D01*
X167995532Y-56412047D01*
X167980038Y-56529739D01*
X167979500Y-56533826D01*
X167979500Y-57722516D01*
X162013083Y-57722516D01*
X162013582Y-57718727D01*
X162019962Y-57670261D01*
X162019962Y-57670260D01*
X162020500Y-57666174D01*
X162020500Y-56477484D01*
X162005276Y-56351680D01*
X161945345Y-56193077D01*
X161894851Y-56119608D01*
X161853614Y-56059608D01*
X161853613Y-56059607D01*
X161849312Y-56053349D01*
X161833022Y-56038835D01*
X161728392Y-55945612D01*
X161728388Y-55945610D01*
X161722721Y-55940560D01*
X161682710Y-55919375D01*
X161655080Y-55904746D01*
X161572881Y-55861224D01*
X161408441Y-55819919D01*
X161400843Y-55819879D01*
X161400841Y-55819879D01*
X161323668Y-55819475D01*
X161238895Y-55819031D01*
X161231508Y-55820805D01*
X161231504Y-55820805D01*
X161088162Y-55855220D01*
X161074032Y-55858612D01*
X161067288Y-55862093D01*
X161067285Y-55862094D01*
X160930117Y-55932892D01*
X160923369Y-55936375D01*
X160795604Y-56047831D01*
X160698113Y-56186547D01*
X160695353Y-56193627D01*
X160695351Y-56193630D01*
X160653284Y-56301527D01*
X160609904Y-56357729D01*
X160543025Y-56381556D01*
X160473881Y-56365443D01*
X160424425Y-56314505D01*
X160419482Y-56303977D01*
X160418158Y-56300780D01*
X160396192Y-56247750D01*
X160303304Y-56126696D01*
X160182250Y-56033808D01*
X160041280Y-55975416D01*
X159927980Y-55960500D01*
X159852020Y-55960500D01*
X159738720Y-55975416D01*
X159597750Y-56033808D01*
X159476696Y-56126696D01*
X159383808Y-56247750D01*
X159325416Y-56388720D01*
X159305500Y-56540000D01*
X154694500Y-56540000D01*
X154674584Y-56388720D01*
X154616192Y-56247750D01*
X154523304Y-56126696D01*
X154402250Y-56033808D01*
X154261280Y-55975416D01*
X154147980Y-55960500D01*
X154072020Y-55960500D01*
X153958720Y-55975416D01*
X153817750Y-56033808D01*
X153696696Y-56126696D01*
X153603808Y-56247750D01*
X153581842Y-56300780D01*
X153580318Y-56304460D01*
X153535770Y-56359741D01*
X153468406Y-56382162D01*
X153399615Y-56364604D01*
X153351237Y-56312642D01*
X153346043Y-56300780D01*
X153308029Y-56200180D01*
X153305345Y-56193077D01*
X153254851Y-56119608D01*
X153213614Y-56059608D01*
X153213613Y-56059607D01*
X153209312Y-56053349D01*
X153193022Y-56038835D01*
X153088392Y-55945612D01*
X153088388Y-55945610D01*
X153082721Y-55940560D01*
X153042710Y-55919375D01*
X153015080Y-55904746D01*
X152932881Y-55861224D01*
X152768441Y-55819919D01*
X152760843Y-55819879D01*
X152760841Y-55819879D01*
X152683668Y-55819475D01*
X152598895Y-55819031D01*
X152591508Y-55820805D01*
X152591504Y-55820805D01*
X152448162Y-55855220D01*
X152434032Y-55858612D01*
X152427288Y-55862093D01*
X152427285Y-55862094D01*
X152290117Y-55932892D01*
X152283369Y-55936375D01*
X152155604Y-56047831D01*
X152058113Y-56186547D01*
X151996524Y-56344513D01*
X151995532Y-56352046D01*
X151995532Y-56352047D01*
X151982805Y-56448720D01*
X151979500Y-56473826D01*
X151979500Y-57662516D01*
X145579000Y-57662516D01*
X145579000Y-55644748D01*
X180449500Y-55644748D01*
X180461133Y-55703231D01*
X180505448Y-55769552D01*
X180571769Y-55813867D01*
X180583938Y-55816288D01*
X180583939Y-55816288D01*
X180611500Y-55821770D01*
X180630252Y-55825500D01*
X182369748Y-55825500D01*
X182388500Y-55821770D01*
X182416061Y-55816288D01*
X182416062Y-55816288D01*
X182428231Y-55813867D01*
X182494552Y-55769552D01*
X182538867Y-55703231D01*
X182550500Y-55644748D01*
X182550500Y-53905252D01*
X182538867Y-53846769D01*
X182494552Y-53780448D01*
X182428231Y-53736133D01*
X182416062Y-53733712D01*
X182416061Y-53733712D01*
X182375816Y-53725707D01*
X182369748Y-53724500D01*
X180630252Y-53724500D01*
X180624184Y-53725707D01*
X180583939Y-53733712D01*
X180583938Y-53733712D01*
X180571769Y-53736133D01*
X180505448Y-53780448D01*
X180461133Y-53846769D01*
X180449500Y-53905252D01*
X180449500Y-55644748D01*
X145579000Y-55644748D01*
X145579000Y-54126000D01*
X145599002Y-54057879D01*
X145652658Y-54011386D01*
X145705000Y-54000000D01*
X151750000Y-54000000D01*
X151750000Y-53399365D01*
X151770002Y-53331244D01*
X151823658Y-53284751D01*
X151893932Y-53274647D01*
X151958512Y-53304141D01*
X151992221Y-53359266D01*
X151994724Y-53358320D01*
X152054655Y-53516923D01*
X152150688Y-53656651D01*
X152156358Y-53661703D01*
X152156359Y-53661704D01*
X152271608Y-53764388D01*
X152271612Y-53764390D01*
X152277279Y-53769440D01*
X152283988Y-53772992D01*
X152283989Y-53772993D01*
X152317547Y-53790761D01*
X152427119Y-53848776D01*
X152591559Y-53890081D01*
X152599157Y-53890121D01*
X152599159Y-53890121D01*
X152676332Y-53890525D01*
X152761105Y-53890969D01*
X152768492Y-53889195D01*
X152768496Y-53889195D01*
X152918583Y-53853161D01*
X152925968Y-53851388D01*
X152932712Y-53847907D01*
X152932715Y-53847906D01*
X153069883Y-53777108D01*
X153069884Y-53777108D01*
X153076631Y-53773625D01*
X153111708Y-53743026D01*
X153198671Y-53667163D01*
X153204396Y-53662169D01*
X153301887Y-53523453D01*
X153363476Y-53365487D01*
X153373582Y-53288727D01*
X153379962Y-53240261D01*
X153379962Y-53240260D01*
X153380500Y-53236174D01*
X153380500Y-53232516D01*
X160619500Y-53232516D01*
X160634724Y-53358320D01*
X160694655Y-53516923D01*
X160790688Y-53656651D01*
X160796358Y-53661703D01*
X160796359Y-53661704D01*
X160911608Y-53764388D01*
X160911612Y-53764390D01*
X160917279Y-53769440D01*
X160923988Y-53772992D01*
X160923989Y-53772993D01*
X160957547Y-53790761D01*
X161067119Y-53848776D01*
X161231559Y-53890081D01*
X161239157Y-53890121D01*
X161239159Y-53890121D01*
X161316332Y-53890525D01*
X161401105Y-53890969D01*
X161408492Y-53889195D01*
X161408496Y-53889195D01*
X161558583Y-53853161D01*
X161565968Y-53851388D01*
X161572712Y-53847907D01*
X161572715Y-53847906D01*
X161709883Y-53777108D01*
X161709884Y-53777108D01*
X161716631Y-53773625D01*
X161751708Y-53743026D01*
X161838671Y-53667163D01*
X161844396Y-53662169D01*
X161941887Y-53523453D01*
X162003476Y-53365487D01*
X162013083Y-53292516D01*
X167979500Y-53292516D01*
X167994724Y-53418320D01*
X168054655Y-53576923D01*
X168058956Y-53583181D01*
X168116676Y-53667163D01*
X168150688Y-53716651D01*
X168156358Y-53721703D01*
X168156359Y-53721704D01*
X168271608Y-53824388D01*
X168271612Y-53824390D01*
X168277279Y-53829440D01*
X168283988Y-53832992D01*
X168283989Y-53832993D01*
X168322080Y-53853161D01*
X168427119Y-53908776D01*
X168591559Y-53950081D01*
X168599157Y-53950121D01*
X168599159Y-53950121D01*
X168676332Y-53950525D01*
X168761105Y-53950969D01*
X168768492Y-53949195D01*
X168768496Y-53949195D01*
X168918583Y-53913161D01*
X168925968Y-53911388D01*
X168932712Y-53907907D01*
X168932715Y-53907906D01*
X169069883Y-53837108D01*
X169069884Y-53837108D01*
X169076631Y-53833625D01*
X169204396Y-53722169D01*
X169301887Y-53583453D01*
X169363476Y-53425487D01*
X169371384Y-53365423D01*
X169379962Y-53300261D01*
X169379962Y-53300260D01*
X169380500Y-53296174D01*
X169380500Y-53292516D01*
X176619500Y-53292516D01*
X176634724Y-53418320D01*
X176694655Y-53576923D01*
X176698956Y-53583181D01*
X176756676Y-53667163D01*
X176790688Y-53716651D01*
X176796358Y-53721703D01*
X176796359Y-53721704D01*
X176911608Y-53824388D01*
X176911612Y-53824390D01*
X176917279Y-53829440D01*
X176923988Y-53832992D01*
X176923989Y-53832993D01*
X176962080Y-53853161D01*
X177067119Y-53908776D01*
X177231559Y-53950081D01*
X177239157Y-53950121D01*
X177239159Y-53950121D01*
X177316332Y-53950525D01*
X177401105Y-53950969D01*
X177408492Y-53949195D01*
X177408496Y-53949195D01*
X177558583Y-53913161D01*
X177565968Y-53911388D01*
X177572712Y-53907907D01*
X177572715Y-53907906D01*
X177709883Y-53837108D01*
X177709884Y-53837108D01*
X177716631Y-53833625D01*
X177844396Y-53722169D01*
X177941887Y-53583453D01*
X178003476Y-53425487D01*
X178011384Y-53365423D01*
X178019962Y-53300261D01*
X178019962Y-53300260D01*
X178020500Y-53296174D01*
X178020500Y-52607484D01*
X178005276Y-52481680D01*
X177945345Y-52323077D01*
X177849312Y-52183349D01*
X177788995Y-52129608D01*
X177728392Y-52075612D01*
X177728388Y-52075610D01*
X177722721Y-52070560D01*
X177572881Y-51991224D01*
X177408441Y-51949919D01*
X177400843Y-51949879D01*
X177400841Y-51949879D01*
X177323668Y-51949475D01*
X177238895Y-51949031D01*
X177231508Y-51950805D01*
X177231504Y-51950805D01*
X177088162Y-51985220D01*
X177074032Y-51988612D01*
X177067288Y-51992093D01*
X177067285Y-51992094D01*
X177021720Y-52015612D01*
X176923369Y-52066375D01*
X176917647Y-52071367D01*
X176917645Y-52071368D01*
X176858058Y-52123349D01*
X176795604Y-52177831D01*
X176698113Y-52316547D01*
X176636524Y-52474513D01*
X176635532Y-52482046D01*
X176635532Y-52482047D01*
X176620038Y-52599739D01*
X176619500Y-52603826D01*
X176619500Y-53292516D01*
X169380500Y-53292516D01*
X169380500Y-52607484D01*
X169365276Y-52481680D01*
X169305345Y-52323077D01*
X169209312Y-52183349D01*
X169148995Y-52129608D01*
X169088392Y-52075612D01*
X169088388Y-52075610D01*
X169082721Y-52070560D01*
X168932881Y-51991224D01*
X168768441Y-51949919D01*
X168760843Y-51949879D01*
X168760841Y-51949879D01*
X168683668Y-51949475D01*
X168598895Y-51949031D01*
X168591508Y-51950805D01*
X168591504Y-51950805D01*
X168448162Y-51985220D01*
X168434032Y-51988612D01*
X168427288Y-51992093D01*
X168427285Y-51992094D01*
X168381720Y-52015612D01*
X168283369Y-52066375D01*
X168277647Y-52071367D01*
X168277645Y-52071368D01*
X168218058Y-52123349D01*
X168155604Y-52177831D01*
X168058113Y-52316547D01*
X167996524Y-52474513D01*
X167995532Y-52482046D01*
X167995532Y-52482047D01*
X167980038Y-52599739D01*
X167979500Y-52603826D01*
X167979500Y-53292516D01*
X162013083Y-53292516D01*
X162013582Y-53288727D01*
X162019962Y-53240261D01*
X162019962Y-53240260D01*
X162020500Y-53236174D01*
X162020500Y-52547484D01*
X162005276Y-52421680D01*
X161945345Y-52263077D01*
X161894851Y-52189608D01*
X161853614Y-52129608D01*
X161853613Y-52129607D01*
X161849312Y-52123349D01*
X161837514Y-52112837D01*
X161728392Y-52015612D01*
X161728388Y-52015610D01*
X161722721Y-52010560D01*
X161682710Y-51989375D01*
X161655080Y-51974746D01*
X161572881Y-51931224D01*
X161408441Y-51889919D01*
X161400843Y-51889879D01*
X161400841Y-51889879D01*
X161323668Y-51889475D01*
X161238895Y-51889031D01*
X161231508Y-51890805D01*
X161231504Y-51890805D01*
X161088162Y-51925220D01*
X161074032Y-51928612D01*
X161067288Y-51932093D01*
X161067285Y-51932094D01*
X160930117Y-52002892D01*
X160923369Y-52006375D01*
X160795604Y-52117831D01*
X160698113Y-52256547D01*
X160636524Y-52414513D01*
X160635532Y-52422046D01*
X160635532Y-52422047D01*
X160627681Y-52481680D01*
X160619500Y-52543826D01*
X160619500Y-53232516D01*
X153380500Y-53232516D01*
X153380500Y-52547484D01*
X153365276Y-52421680D01*
X153305345Y-52263077D01*
X153254851Y-52189608D01*
X153213614Y-52129608D01*
X153213613Y-52129607D01*
X153209312Y-52123349D01*
X153197514Y-52112837D01*
X153088392Y-52015612D01*
X153088388Y-52015610D01*
X153082721Y-52010560D01*
X153042710Y-51989375D01*
X153015080Y-51974746D01*
X152932881Y-51931224D01*
X152768441Y-51889919D01*
X152760843Y-51889879D01*
X152760841Y-51889879D01*
X152683668Y-51889475D01*
X152598895Y-51889031D01*
X152591508Y-51890805D01*
X152591504Y-51890805D01*
X152448162Y-51925220D01*
X152434032Y-51928612D01*
X152427288Y-51932093D01*
X152427285Y-51932094D01*
X152290117Y-52002892D01*
X152283369Y-52006375D01*
X152155604Y-52117831D01*
X152058113Y-52256547D01*
X151996524Y-52414513D01*
X151996472Y-52414910D01*
X151961728Y-52473278D01*
X151898196Y-52504968D01*
X151827617Y-52497278D01*
X151772399Y-52452652D01*
X151750000Y-52380938D01*
X151750000Y-50455000D01*
X151770002Y-50386879D01*
X151823658Y-50340386D01*
X151876000Y-50329000D01*
X184295000Y-50329000D01*
X184363121Y-50349002D01*
G37*
%TD.AperFunction*%
%TD*%
M02*
