M48
; DRILL file {KiCad (6.0.0)} date Wed Jan  5 23:10:19 2022
; FORMAT={-:-/ absolute / inch / decimal}
; #@! TF.CreationDate,2022-01-05T23:10:19+08:00
; #@! TF.GenerationSoftware,Kicad,Pcbnew,(6.0.0)
; #@! TF.FileFunction,Plated,1,2,PTH
FMAT,2
INCH
; #@! TA.AperFunction,Plated,PTH,ViaDrill
T1C0.0118
; #@! TA.AperFunction,Plated,PTH,ComponentDrill
T2C0.0197
; #@! TA.AperFunction,Plated,PTH,ComponentDrill
T3C0.0236
; #@! TA.AperFunction,Plated,PTH,ComponentDrill
T4C0.0394
%
G90
G05
T1
X5.7579Y-3.6811
X5.7579Y-3.7106
X5.7874Y-3.6811
X5.7874Y-3.7106
X5.8268Y-2.1457
X5.8268Y-2.2933
X5.8563Y-2.2933
X5.8661Y-2.1457
X5.8957Y-2.8642
X5.935Y-2.1457
X5.9547Y-2.5
X5.9646Y-2.1457
X5.9646Y-2.7362
X5.9646Y-2.7657
X5.9837Y-2.5694
X5.9843Y-2.5
X5.9941Y-2.7362
X5.9941Y-2.7657
X6.0138Y-2.3425
X6.0433Y-2.3425
X6.0531Y-2.5492
X6.0728Y-2.9823
X6.0728Y-3.0118
X6.0827Y-2.5492
X6.0925Y-3.248
X6.0925Y-3.4547
X6.1024Y-2.0669
X6.1024Y-2.0965
X6.1024Y-2.9823
X6.1024Y-3.0118
X6.122Y-3.2185
X6.122Y-3.248
X6.122Y-3.4252
X6.122Y-3.4547
X6.1319Y-2.0669
X6.1319Y-2.0965
X6.1417Y-2.3327
X6.1417Y-3.1299
X6.1516Y-2.4508
X6.1516Y-2.4902
X6.1614Y-2.5984
X6.1713Y-3.1004
X6.1713Y-3.1299
X6.1909Y-2.4508
X6.1909Y-2.4902
X6.2008Y-2.3327
X6.2205Y-3.2874
X6.2402Y-2.126
X6.2402Y-2.1555
X6.2697Y-2.126
X6.2697Y-2.1555
X6.2697Y-3.2874
X6.2894Y-2.5886
X6.2894Y-2.6181
X6.2992Y-3.2579
X6.3091Y-3.4252
X6.3189Y-2.5197
X6.3189Y-3.5827
X6.3189Y-3.6122
X6.3287Y-2.3327
X6.3287Y-3.2579
X6.3386Y-3.4252
X6.3484Y-2.3917
X6.3484Y-2.4508
X6.3484Y-3.5827
X6.3484Y-3.6122
X6.3583Y-2.3327
X6.3583Y-2.4213
X6.3681Y-3.1201
X6.378Y-2.8642
X6.378Y-2.8937
X6.378Y-3.0906
X6.3794Y-3.031
X6.4075Y-2.8642
X6.4075Y-2.8937
X6.4075Y-3.0315
X6.4075Y-3.0807
X6.4154Y-3.6102
X6.4587Y-3.5551
X6.4665Y-3.3169
X6.4665Y-3.376
X6.4764Y-3.0315
X6.4862Y-2.2933
X6.4862Y-2.4705
X6.4961Y-3.3465
X6.5157Y-2.2933
X6.5157Y-2.4705
X6.5256Y-3.3169
X6.5256Y-3.376
X6.5551Y-3.5138
X6.5551Y-3.5925
X6.5551Y-3.622
X6.5551Y-3.6516
X6.5551Y-3.6811
X6.5551Y-3.7106
X6.5748Y-2.8839
X6.5748Y-2.9134
X6.5846Y-2.5886
X6.5846Y-2.6181
X6.5846Y-3.0807
X6.5945Y-3.2677
X6.5945Y-3.4252
X6.6043Y-2.8839
X6.6043Y-2.9134
X6.6142Y-2.5886
X6.6142Y-2.6181
X6.6142Y-3.0906
X6.6142Y-3.4449
X6.624Y-2.313
X6.624Y-3.1201
X6.624Y-3.1801
X6.624Y-3.2677
X6.6339Y-3.4744
X6.6339Y-3.5039
X6.6339Y-3.5335
X6.6339Y-3.563
X6.6339Y-3.5925
X6.6339Y-3.622
X6.6339Y-3.6516
X6.6339Y-3.6811
X6.6339Y-3.7106
X6.6535Y-2.313
X6.6831Y-3.4055
X6.7126Y-3.4744
X6.7224Y-2.0866
X6.7224Y-2.1161
X6.7224Y-2.4902
X6.7421Y-3.4646
X6.752Y-2.0866
X6.752Y-2.1161
X6.752Y-2.4902
X6.752Y-2.8839
X6.752Y-2.9134
X6.752Y-3.2677
X6.752Y-3.435
X6.7815Y-2.8839
X6.7815Y-2.9134
X6.7815Y-3.2677
X6.8406Y-3.6319
X6.8406Y-3.6614
X6.8504Y-2.4016
X6.8504Y-2.5394
X6.8504Y-2.5689
X6.8701Y-2.0374
X6.8701Y-2.0669
X6.8701Y-3.6319
X6.8701Y-3.6614
X6.8799Y-3.0118
X6.8799Y-3.0413
X6.8996Y-2.0374
X6.8996Y-2.0669
X6.9094Y-2.8839
X6.9094Y-2.9134
X6.9094Y-3.0118
X6.9094Y-3.0413
X6.9291Y-2.5098
X6.9291Y-2.628
X6.9291Y-2.657
X6.939Y-2.8839
X6.939Y-2.9134
X6.9587Y-2.5098
X6.9685Y-2.3228
X6.998Y-2.3228
X6.998Y-2.5886
X6.998Y-2.6181
X7.0276Y-2.2343
X7.0276Y-2.2638
X7.0965Y-2.9232
X7.1161Y-2.4508
X7.1161Y-2.4803
X7.126Y-2.2736
X7.126Y-2.3031
X7.1555Y-2.2736
X7.1555Y-2.3031
X7.2047Y-2.687
X7.2047Y-2.7165
X7.2047Y-3.6811
X7.2047Y-3.7106
X7.2244Y-2.4508
X7.2244Y-2.4803
X7.2343Y-2.687
X7.2343Y-2.7165
X7.2343Y-3.6811
X7.2343Y-3.7106
T2
X7.1673Y-2.4951
X7.1673Y-2.5443
X7.1673Y-2.5935
X7.1673Y-2.6427
T4
X5.7864Y-3.0965
X5.7864Y-3.1965
X5.7864Y-3.2965
X5.7864Y-3.3965
X5.7864Y-3.4965
X5.7864Y-3.5965
X5.8071Y-2.3575
X5.8071Y-2.4575
X5.8071Y-2.5575
X5.8071Y-2.6575
X5.8864Y-3.0965
X5.8864Y-3.1965
X5.8864Y-3.2965
X5.8864Y-3.3965
X5.8864Y-3.4965
X5.8864Y-3.5965
X6.1455Y-2.7057
X6.1455Y-2.8057
X6.2455Y-2.7057
X6.2455Y-2.8057
X6.3455Y-2.7057
X6.3455Y-2.8057
X6.4455Y-2.7057
X6.4455Y-2.8057
X6.5455Y-2.7057
X6.5455Y-2.8057
X6.6455Y-2.7057
X6.6455Y-2.8057
X6.7455Y-2.7057
X6.7455Y-2.8057
X6.8455Y-2.7057
X6.8455Y-2.8057
X7.1053Y-3.0965
X7.1053Y-3.1965
X7.1053Y-3.2965
X7.1053Y-3.3965
X7.1053Y-3.4965
X7.1053Y-3.5965
X7.1457Y-2.0565
X7.1457Y-2.1565
X7.2053Y-3.0965
X7.2053Y-3.1965
X7.2053Y-3.2965
X7.2053Y-3.3965
X7.2053Y-3.4965
X7.2053Y-3.5965
T3
G00X6.011Y-2.0941
M15
G01X6.011Y-2.0705
M16
G05
G00X6.011Y-2.2685
M15
G01X6.011Y-2.2252
M16
G05
G00X6.3512Y-2.0941
M15
G01X6.3512Y-2.0705
M16
G05
G00X6.3512Y-2.2685
M15
G01X6.3512Y-2.2252
M16
G05
G00X6.6409Y-2.0965
M15
G01X6.6409Y-2.0728
M16
G05
G00X6.6409Y-2.2709
M15
G01X6.6409Y-2.2276
M16
G05
G00X6.9811Y-2.0965
M15
G01X6.9811Y-2.0728
M16
G05
G00X6.9811Y-2.2709
M15
G01X6.9811Y-2.2276
M16
G05
T0
M30
