%TF.GenerationSoftware,KiCad,Pcbnew,(6.0.0)*%
%TF.CreationDate,2022-01-05T23:10:14+08:00*%
%TF.ProjectId,CH573_KIT,43483537-335f-44b4-9954-2e6b69636164,rev?*%
%TF.SameCoordinates,Original*%
%TF.FileFunction,Soldermask,Bot*%
%TF.FilePolarity,Negative*%
%FSLAX46Y46*%
G04 Gerber Fmt 4.6, Leading zero omitted, Abs format (unit mm)*
G04 Created by KiCad (PCBNEW (6.0.0)) date 2022-01-05 23:10:14*
%MOMM*%
%LPD*%
G01*
G04 APERTURE LIST*
G04 Aperture macros list*
%AMRoundRect*
0 Rectangle with rounded corners*
0 $1 Rounding radius*
0 $2 $3 $4 $5 $6 $7 $8 $9 X,Y pos of 4 corners*
0 Add a 4 corners polygon primitive as box body*
4,1,4,$2,$3,$4,$5,$6,$7,$8,$9,$2,$3,0*
0 Add four circle primitives for the rounded corners*
1,1,$1+$1,$2,$3*
1,1,$1+$1,$4,$5*
1,1,$1+$1,$6,$7*
1,1,$1+$1,$8,$9*
0 Add four rect primitives between the rounded corners*
20,1,$1+$1,$2,$3,$4,$5,0*
20,1,$1+$1,$4,$5,$6,$7,0*
20,1,$1+$1,$6,$7,$8,$9,0*
20,1,$1+$1,$8,$9,$2,$3,0*%
G04 Aperture macros list end*
%ADD10O,1.700000X1.700000*%
%ADD11R,1.700000X1.700000*%
%ADD12C,0.650000*%
%ADD13O,1.000000X2.100000*%
%ADD14O,1.000000X1.600000*%
%ADD15C,0.750000*%
%ADD16RoundRect,0.200000X-0.450000X0.200000X-0.450000X-0.200000X0.450000X-0.200000X0.450000X0.200000X0*%
%ADD17O,1.300000X0.800000*%
G04 APERTURE END LIST*
D10*
%TO.C,J3*%
X149515000Y-91350000D03*
X146975000Y-91350000D03*
X149515000Y-88810000D03*
X146975000Y-88810000D03*
X149515000Y-86270000D03*
X146975000Y-86270000D03*
X149515000Y-83730000D03*
X146975000Y-83730000D03*
X149515000Y-81190000D03*
X146975000Y-81190000D03*
X149515000Y-78650000D03*
D11*
X146975000Y-78650000D03*
%TD*%
%TO.C,J4*%
X173875000Y-68725000D03*
D10*
X173875000Y-71265000D03*
X171335000Y-68725000D03*
X171335000Y-71265000D03*
X168795000Y-68725000D03*
X168795000Y-71265000D03*
X166255000Y-68725000D03*
X166255000Y-71265000D03*
X163715000Y-68725000D03*
X163715000Y-71265000D03*
X161175000Y-68725000D03*
X161175000Y-71265000D03*
X158635000Y-68725000D03*
X158635000Y-71265000D03*
X156095000Y-68725000D03*
X156095000Y-71265000D03*
%TD*%
D12*
%TO.C,USB2*%
X159890000Y-56540000D03*
X154110000Y-56540000D03*
D13*
X152680000Y-57070000D03*
D14*
X161320000Y-52890000D03*
D13*
X161320000Y-57070000D03*
D14*
X152680000Y-52890000D03*
%TD*%
D11*
%TO.C,J2*%
X147500000Y-67500000D03*
D10*
X147500000Y-64960000D03*
X147500000Y-62420000D03*
X147500000Y-59880000D03*
%TD*%
D12*
%TO.C,USB1*%
X170110000Y-56600000D03*
X175890000Y-56600000D03*
D14*
X168680000Y-52950000D03*
D13*
X168680000Y-57130000D03*
D14*
X177320000Y-52950000D03*
D13*
X177320000Y-57130000D03*
%TD*%
D11*
%TO.C,J1*%
X181500000Y-54775000D03*
D10*
X181500000Y-52235000D03*
%TD*%
D15*
%TO.C,SW2*%
X183250000Y-74350000D03*
X183250000Y-72650000D03*
%TD*%
D10*
%TO.C,J6*%
X183015000Y-91350000D03*
X180475000Y-91350000D03*
X183015000Y-88810000D03*
X180475000Y-88810000D03*
X183015000Y-86270000D03*
X180475000Y-86270000D03*
X183015000Y-83730000D03*
X180475000Y-83730000D03*
X183015000Y-81190000D03*
X180475000Y-81190000D03*
X183015000Y-78650000D03*
D11*
X180475000Y-78650000D03*
%TD*%
D15*
%TO.C,SW1*%
X146750000Y-74350000D03*
X146750000Y-72650000D03*
%TD*%
D16*
%TO.C,J5*%
X182050000Y-63375000D03*
D17*
X182050000Y-64625000D03*
X182050000Y-65875000D03*
X182050000Y-67125000D03*
%TD*%
M02*
